<svg viewBox="0 0 361 623" xmlns="http://www.w3.org/2000/svg">
  <g fill="none" fillRule="evenodd">
    <path d="M305.993 621.072c-1.454-2.096-.95-4.897 1.126-6.257 2.076-1.36 4.937-.764 6.391 1.332 1.454 2.096-.693 2.53-2.769 3.89-2.076 1.36-3.294 3.131-4.748 1.035z" fill="#5B4A2F" />
    <path d="M360.365 350.883c2.11-3.248 1.156-7.745-2.133-10.044-3.288-2.298-7.665-1.528-9.775 1.72-2.11 3.249 1.229 4.075 4.517 6.373 3.289 2.3 5.28 5.2 7.391 1.951z" fill="#5B4A2F" />
    <path d="M241.73 44.772c.932-3.054 2.001-5.73 3.203-8.026.638-1.217 1.9-2.934 4.054-5.565.617-.754 5.195-6.223 6.634-7.995 2.308-2.843 4.215-5.338 5.9-7.77 2.403-3.464 5.216-8.76 8.465-15.911a1.919 1.919 0 0 0-.97-2.542 1.935 1.935 0 0 0-2.556.955c-3.163 6.961-5.88 12.075-8.126 15.315-.17.245-.342.49-.517.738-.395-1.877-.593-3.414-.595-4.605-.003-1.947.515-4.611 1.56-7.974a.824.824 0 0 0-.547-1.03.827.827 0 0 0-1.036.54c-1.09 3.507-1.638 6.321-1.634 8.462.003 1.62.322 3.746.957 6.39a146.862 146.862 0 0 1-3.915 5.017c-1.417 1.744-5.987 7.205-6.624 7.983-2.316 2.829-3.685 4.691-4.482 6.213-3.646 6.965-6.081 16.873-7.35 29.753a1.93 1.93 0 0 0 1.737 2.103A1.924 1.924 0 0 0 238 65.105c.669-6.785 1.664-12.685 2.981-17.695 2.934-1.056 5.14-2.079 6.633-3.082 1.803-1.212 3.848-3.257 6.162-6.142.379-.472.3-1.166-.175-1.548a1.099 1.099 0 0 0-1.547.163c-2.188 2.728-4.089 4.629-5.678 5.697-1.07.72-2.622 1.48-4.647 2.274z" fill="#2ACEA0" fillRule="nonzero" />
    <path d="M257.257 3.73c-1.458-.257-2.261-2.463-2.006-3.91.255-1.446 2.284-4.41 3.58-4.182 1.294.228 1.954 3.668 1.7 5.114-.256 1.447-1.816 3.235-3.274 2.978z" fill="#2DDF95" />
    <path d="M253.028 38.121c-1.331-.646-1.492-2.984-.845-4.304.647-1.32 3.423-3.611 4.605-3.038 1.182.574.862 4.058.215 5.378-.647 1.32-2.644 2.61-3.975 1.964z" fill="#2DDF95" />
    <path d="M267.264-1.205c.131.139.286.253.457.344.412.256.861.388 1.312.326.054-.008.108-.018.161-.031.892-.029 1.833-.35 2.438-.836 1.149-.924 2.922-3.943 2.093-4.958-.5-.613-1.973-.524-3.314-.155-.661-1.21-1.606-2.317-2.402-2.207-1.301.18-2.307 3.625-2.1 5.08.12.836.65 1.803 1.355 2.437z" fill="#2DDF95" />
    <g fill="#03A678">
      <path d="M24.02 113.653c4.896-3.364 7.593-7.874 4.165-12.68C25.9 97.77 18.54 93.627 6.106 88.542c.616 13.208 2.066 21.413 4.351 24.617 3.428 4.805 8.668 3.86 13.564.495z" />
    </g>
    <g>
      <path d="M40.022 593.334a59.374 59.374 0 0 0-7.678-6.291c-1.28-.88-3.448-1.93-6.987-3.42-1.014-.428-8.471-3.477-10.844-4.488-3.805-1.622-7.027-3.108-9.995-4.648-4.23-2.193-9.842-5.997-16.876-11.425a2.173 2.173 0 0 1 2.657-3.44c6.846 5.283 12.266 8.957 16.222 11.008.299.155.6.31.906.464-.607-2.08-1.229-3.719-1.86-4.909-1.034-1.945-2.966-4.331-5.795-7.137a.93.93 0 0 1 1.312-1.322c2.95 2.926 4.991 5.447 6.127 7.585.86 1.617 1.674 3.908 2.451 6.882a166.6 166.6 0 0 0 6.558 2.945c2.336.996 9.781 4.04 10.827 4.48 3.807 1.605 6.157 2.743 7.76 3.843 7.307 5.017 13.636 11.676 18.983 19.957a2.173 2.173 0 0 1-3.65 2.36c-2.438-3.776-5.083-7.184-7.935-10.226-3.601.52-6.425.677-8.493.46-2.444-.256-5.573-1.213-9.418-2.863a1.242 1.242 0 0 1 .98-2.283c3.635 1.56 6.544 2.45 8.697 2.676 1.492.156 3.513.088 6.051-.208z" fill="#2ACEA0" fillRule="nonzero" />
      <path d="M2.532 560.579c1.31-1.024.934-3.648-.089-4.958-1.023-1.31-4.617-3.2-5.781-2.29-1.164.909.011 4.69 1.034 5.999 1.024 1.31 3.525 2.273 4.836 1.249z" fill="#2DDF95" />
      <path d="M25.038 592.676c.978-1.345-.107-3.763-1.452-4.74-1.345-.977-5.321-1.803-6.19-.608-.868 1.195 1.304 4.504 2.649 5.48 1.345.977 4.015 1.214 4.993-.132z" fill="#2DDF95" />
      <path d="M-10.033 560.921a1.986 1.986 0 0 1-.27.584c-.273.472-.65.84-1.13 1.015a1.82 1.82 0 0 1-.177.055c-.9.44-2.006.615-2.865.448-1.632-.317-5-2.397-4.718-3.846.17-.875 1.68-1.562 3.209-1.899.012-1.555.361-3.158 1.21-3.467 1.388-.505 4.221 2.403 4.79 3.965.326.897.315 2.141-.05 3.145z" fill="#2DDF95" />
    </g>
  </g>
</svg>
