<svg xmlns="http://www.w3.org/2000/svg" xmlnsXlink="http://www.w3.org/1999/xlink" viewBox="0 0 605 602">
  <path fill="#E8F4EF" fillRule="evenodd" d="M321.857 601.5c63.904 0 98.829-52.513 153.204-84.8 56.029-33.268 105.742-54.823 126.205-113.702 10.61-30.525-7.766-71.749-7.766-105.887 0-66.37-7.25-134.467-42.464-175.874-29.41-34.58-96.02-45.818-143.786-66.626C370.977 38.808 338.842.36 296.75.36c-56.49 0-134.659 16.972-176.36 54.25-44.436 39.722-51.128 100.895-69.23 135.233C30.54 228.957 0 249.906 0 297.11c0 48.409 37.833 101.014 80.393 126.097 54.582 32.17 54.07 97.031 113.109 126.894 44.18 22.347 78.926 51.398 128.355 51.398z" />
</svg>
