<svg xmlns="http://www.w3.org/2000/svg" xmlns:xlink="http://www.w3.org/1999/xlink" viewBox="0 0 510 620">
  <defs>
    <path id="a" d="M.004 5.598C11.07 2.494 22.139.942 33.206.942c18.851 0 18.851 6.004 37.702 6.004S89.76.942 108.61.942s18.851 6.004 37.702 6.004S165.163.942 184.014.942s18.935 6.004 37.702 6.004c18.768 0 16.855-6.004 33.709-6.004 16.854 0 16.854 6.004 33.708 6.004S305.987.942 322.842.942c16.854 0 16.854 6.004 33.708 6.004S373.404.942 390.258.942s16.301 4.97 33.709 6.004c6.379.379 16.042.55 28.99.512-.277 124.845-101.569 225.967-226.479 225.967C101.398 233.425 0 132.027 0 6.946c0-.45.001-.899.004-1.348z"/>
  </defs>
  <g fill="none" fill-rule="evenodd">
    <path d="M0 0h510v620H0z"/>
    <path fill="#E8F4EF" fill-rule="nonzero" d="M403.547 265.373c26.642 13.321 47.008 30.741 61.097 52.26 14.09 21.519 21.135 46.368 21.135 74.547 0 33.303-9.478 62.379-28.436 87.228-18.957 24.85-45.599 44.062-79.926 57.64-34.328 13.577-74.035 20.365-119.122 20.365s-84.666-6.788-118.737-20.366c-34.072-13.577-60.458-32.79-79.159-57.639-18.7-24.85-28.05-53.925-28.05-87.228 0-28.18 7.044-53.028 21.134-74.547s34.199-38.939 60.329-52.26C93.83 253.077 78.46 237.578 67.7 218.877c-10.76-18.7-16.139-40.091-16.139-64.172 0-31.253 8.71-58.408 26.13-81.463 17.42-23.056 41.757-40.86 73.01-53.413C181.955 7.276 217.82 1 258.295 1c40.988 0 77.237 6.276 108.747 18.829 31.51 12.553 55.974 30.357 73.394 53.413 17.42 23.055 26.13 50.21 26.13 81.463 0 24.081-5.38 45.471-16.14 64.172-10.759 18.701-26.385 34.2-46.88 46.496zM258.295 92.455c-25.105 0-45.215 6.02-60.33 18.06-15.114 12.04-22.67 28.564-22.67 49.57 0 20.494 7.428 36.633 22.286 48.417 14.859 11.784 35.096 17.676 60.714 17.676 25.618 0 46.112-5.892 61.482-17.676 15.37-11.784 23.056-27.923 23.056-48.417 0-21.006-7.685-37.53-23.056-49.57-15.37-12.04-35.864-18.06-61.482-18.06zm0 373.504c31.254 0 55.974-7.045 74.163-21.135 18.188-14.09 27.283-32.918 27.283-56.486 0-23.569-9.095-42.27-27.283-56.103-18.189-13.833-42.91-20.75-74.163-20.75-30.741 0-55.078 6.917-73.01 20.75-17.932 13.834-26.899 32.534-26.899 56.103 0 24.08 8.967 43.037 26.899 56.87 17.932 13.834 42.269 20.75 73.01 20.75z"/>
    <g transform="translate(32.779 383.752)">
      <mask id="b" fill="#fff">
        <use xlink:href="#a"/>
      </mask>
      <use fill="#424135" xlink:href="#a"/>
      <g mask="url(#b)">
        <path fill="#39392F" d="M0 33.83c18.893-4.273 37.786-6.41 56.679-6.41 28.34 0 28.34 6.41 56.679 6.41 28.34 0 28.34-6.41 56.679-6.41 28.339 0 28.339 6.41 56.678 6.41 28.34 0 28.34-6.41 56.68-6.41 28.339 0 28.339 6.41 56.678 6.41 28.34 0 28.34-6.41 56.679-6.41 18.893 0 37.786 2.137 56.679 6.41v36.536c-18.893-5.3-37.786-7.95-56.679-7.95-28.34 0-28.34 7.95-56.679 7.95-28.34 0-28.34-7.95-56.679-7.95-28.34 0-28.34 7.95-56.679 7.95-28.339 0-28.339-7.95-56.678-7.95-28.34 0-28.34 7.95-56.68 7.95-28.339 0-28.339-7.95-56.678-7.95-18.893 0-37.786 2.65-56.679 7.95V33.831z"/>
        <path fill="#303028" d="M0 .373c18.893-4.274 37.786-6.41 56.679-6.41 28.34 0 28.34 6.41 56.679 6.41 28.34 0 28.34-6.41 56.679-6.41 28.339 0 28.339 6.41 56.678 6.41 28.34 0 28.34-6.41 56.68-6.41 28.339 0 28.339 6.41 56.678 6.41 28.34 0 28.34-6.41 56.679-6.41 18.893 0 37.786 2.136 56.679 6.41v36.535c-18.893-5.3-37.786-7.95-56.679-7.95-28.34 0-28.34 7.95-56.679 7.95-28.34 0-28.34-7.95-56.679-7.95-28.34 0-28.34 7.95-56.679 7.95-28.339 0-28.339-7.95-56.678-7.95-28.34 0-28.34 7.95-56.68 7.95-28.339 0-28.339-7.95-56.678-7.95-18.893 0-37.786 2.65-56.679 7.95V.373z"/>
      </g>
    </g>
  </g>
</svg>
