<svg xmlns="http://www.w3.org/2000/svg" viewBox="0 0 1573 344">
  <g fill="none" fill-rule="evenodd">
    <path fill="#36352C" d="M552.375 43.191c-3.678-.517-6.23-4.003-5.697-7.786.531-3.784 3.944-6.432 7.623-5.915 3.678.517 6.23 4.003 5.697 7.787-.531 3.783-3.944 6.431-7.623 5.914zm-30.179 83.587c-1.383-.194-2.335-1.554-2.127-3.036.209-1.483 1.499-2.527 2.882-2.333 1.383.195 2.335 1.554 2.127 3.037-.209 1.482-1.499 2.526-2.882 2.332zm40.734-10.159c-3.047-.428-5.162-3.308-4.723-6.432.439-3.124 3.266-5.309 6.313-4.88 3.048.428 5.163 3.308 4.724 6.432-.439 3.124-3.266 5.309-6.314 4.88zm-26.92-9.213c-1.62 1.012-3.584.791-4.387-.493-.803-1.285-.14-3.147 1.48-4.16 1.62-1.012 3.584-.791 4.387.494.803 1.285.14 3.147-1.48 4.16zm21.845-5.468a3.459 3.459 0 1 1-3.666-5.867 3.459 3.459 0 0 1 3.666 5.867zm36.519 32.892a3.459 3.459 0 1 1-3.666-5.867 3.459 3.459 0 0 1 3.666 5.867zm-86.713-21.792a2.529 2.529 0 1 1-2.68-4.289 2.529 2.529 0 0 1 2.68 4.29zm-6.504 93.368c-3.679-.517-6.23-4.003-5.698-7.787s3.945-6.432 7.623-5.915c3.679.517 6.23 4.004 5.698 7.787-.532 3.784-3.945 6.432-7.623 5.915zm51.804-22.344c-1.383-.194-2.335-1.554-2.127-3.036.208-1.483 1.498-2.527 2.881-2.332 1.383.194 2.335 1.553 2.127 3.036-.208 1.482-1.498 2.527-2.881 2.332zm83.244 95.425c-3.048-.429-5.163-3.308-4.724-6.432.44-3.124 3.266-5.31 6.314-4.881 3.048.428 5.163 3.308 4.724 6.432-.44 3.124-3.266 5.309-6.314 4.88zm-69.43-114.797c-1.62 1.013-3.584.792-4.387-.493-.803-1.285-.14-3.147 1.48-4.16 1.62-1.012 3.584-.79 4.386.494.803 1.285.14 3.147-1.48 4.16zm21.844-5.468a3.459 3.459 0 1 1-3.666-5.867 3.459 3.459 0 0 1 3.666 5.867zm36.52 32.892a3.459 3.459 0 1 1-3.667-5.867 3.459 3.459 0 0 1 3.666 5.867zm-86.713-21.791a2.529 2.529 0 1 1-2.68-4.29 2.529 2.529 0 0 1 2.68 4.29zM22.268-30.234c-3.679-.517-6.23-4.003-5.698-7.787.532-3.783 3.945-6.431 7.623-5.915 3.679.517 6.23 4.004 5.698 7.787-.532 3.784-3.945 6.432-7.623 5.915zm165.42 53.973c-1.383-.194-2.335-1.554-2.127-3.036.209-1.483 1.499-2.527 2.882-2.332 1.383.194 2.335 1.553 2.127 3.036-.209 1.482-1.499 2.527-2.882 2.332zM253.6-24.513c-3.048-.429-5.163-3.308-4.724-6.432.44-3.124 3.266-5.31 6.314-4.881 3.048.428 5.163 3.308 4.724 6.432-.44 3.124-3.266 5.309-6.314 4.88zm-52.098 28.88c-1.62 1.013-3.584.792-4.387-.493-.803-1.285-.14-3.147 1.48-4.16 1.62-1.012 3.584-.79 4.387.494.803 1.285.14 3.147-1.48 4.16zM223.347-1.1a3.459 3.459 0 1 1-3.666-5.867 3.459 3.459 0 0 1 3.666 5.867zm36.519 32.892a3.459 3.459 0 1 1-3.666-5.867 3.459 3.459 0 0 1 3.666 5.867zM173.153 10a2.529 2.529 0 1 1-2.68-4.29 2.529 2.529 0 0 1 2.68 4.29zm-9.033 146.224c-3.679-.517-6.23-4.003-5.698-7.787.532-3.783 3.945-6.431 7.623-5.914 3.679.517 6.23 4.003 5.698 7.786-.532 3.784-3.945 6.432-7.623 5.915zm54.333-75.2c-1.383-.195-2.335-1.554-2.127-3.037.208-1.482 1.498-2.527 2.881-2.332 1.383.194 2.335 1.554 2.127 3.036-.208 1.483-1.498 2.527-2.881 2.332zm40.734-10.159c-3.048-.428-5.163-3.308-4.724-6.432.44-3.124 3.266-5.31 6.314-4.88 3.048.428 5.163 3.307 4.724 6.431-.44 3.124-3.266 5.31-6.314 4.881zm-26.92-9.213c-1.62 1.012-3.584.791-4.387-.494-.803-1.285-.14-3.147 1.48-4.16 1.62-1.012 3.584-.79 4.386.494.803 1.285.14 3.147-1.48 4.16zm21.844-5.469a3.459 3.459 0 1 1-3.666-5.867 3.459 3.459 0 0 1 3.666 5.867zm36.52 32.892a3.459 3.459 0 1 1-3.667-5.867 3.459 3.459 0 0 1 3.666 5.867zm-86.713-21.791a2.529 2.529 0 1 1-2.68-4.29 2.529 2.529 0 0 1 2.68 4.29zM668.375 142.543c-3.678-.517-6.23-4.003-5.697-7.786.531-3.784 3.944-6.432 7.623-5.915 3.678.517 6.23 4.003 5.697 7.787-.531 3.783-3.944 6.431-7.623 5.914zm-30.179 83.587c-1.383-.194-2.335-1.554-2.127-3.036.209-1.483 1.499-2.527 2.882-2.333 1.383.195 2.335 1.554 2.127 3.037-.209 1.482-1.499 2.526-2.882 2.332zm40.734-10.159c-3.047-.428-5.162-3.308-4.723-6.432.439-3.124 3.266-5.309 6.313-4.88 3.048.428 5.163 3.308 4.724 6.432-.439 3.124-3.266 5.309-6.314 4.88zm-26.92-9.213c-1.62 1.012-3.584.791-4.387-.493-.803-1.285-.14-3.147 1.48-4.16 1.62-1.012 3.584-.791 4.387.494.803 1.285.14 3.147-1.48 4.16zm21.845-5.468a3.459 3.459 0 1 1-3.666-5.867 3.459 3.459 0 0 1 3.666 5.867zm36.519 32.892a3.459 3.459 0 1 1-3.666-5.867 3.459 3.459 0 0 1 3.666 5.867zM623.66 212.39a2.529 2.529 0 1 1-2.68-4.289 2.529 2.529 0 0 1 2.68 4.29zm-6.504 93.368c-3.679-.517-6.23-4.003-5.698-7.787s3.945-6.432 7.623-5.915c3.679.517 6.23 4.004 5.698 7.787-.532 3.784-3.945 6.432-7.623 5.915zm51.804-22.344c-1.383-.194-2.335-1.554-2.127-3.036.208-1.483 1.498-2.527 2.881-2.332 1.383.194 2.335 1.553 2.127 3.036-.208 1.482-1.498 2.527-2.881 2.332zm83.244 95.425c-3.048-.429-5.163-3.308-4.724-6.432.44-3.124 3.266-5.31 6.314-4.881 3.048.428 5.163 3.308 4.724 6.432-.44 3.124-3.266 5.309-6.314 4.88zm-69.43-114.797c-1.62 1.013-3.584.792-4.387-.493-.803-1.285-.14-3.147 1.48-4.16 1.62-1.012 3.584-.79 4.386.494.803 1.285.14 3.147-1.48 4.16zm21.844-5.468a3.459 3.459 0 1 1-3.666-5.867 3.459 3.459 0 0 1 3.666 5.867zm36.52 32.892a3.459 3.459 0 1 1-3.667-5.867 3.459 3.459 0 0 1 3.666 5.867zm-86.713-21.791a2.529 2.529 0 1 1-2.68-4.29 2.529 2.529 0 0 1 2.68 4.29zM138.268 69.118c-3.679-.517-6.23-4.003-5.698-7.787.532-3.783 3.945-6.431 7.623-5.915 3.679.517 6.23 4.004 5.698 7.787-.532 3.784-3.945 6.432-7.623 5.915zm165.42 53.973c-1.383-.194-2.335-1.554-2.127-3.036.209-1.483 1.499-2.527 2.882-2.332 1.383.194 2.335 1.553 2.127 3.036-.209 1.482-1.499 2.527-2.882 2.332zM369.6 74.84c-3.048-.429-5.163-3.308-4.724-6.432.44-3.124 3.266-5.31 6.314-4.881 3.048.428 5.163 3.308 4.724 6.432-.44 3.124-3.266 5.309-6.314 4.88zm-52.098 28.88c-1.62 1.013-3.584.792-4.387-.493-.803-1.285-.14-3.147 1.48-4.16 1.62-1.012 3.584-.79 4.387.494.803 1.285.14 3.147-1.48 4.16zm21.845-5.468a3.459 3.459 0 1 1-3.666-5.867 3.459 3.459 0 0 1 3.666 5.867zm36.519 32.892a3.459 3.459 0 1 1-3.666-5.867 3.459 3.459 0 0 1 3.666 5.867zm-86.713-21.791a2.529 2.529 0 1 1-2.68-4.29 2.529 2.529 0 0 1 2.68 4.29zm-9.033 146.224c-3.679-.517-6.23-4.003-5.698-7.787.532-3.783 3.945-6.431 7.623-5.914 3.679.517 6.23 4.003 5.698 7.786-.532 3.784-3.945 6.432-7.623 5.915zm54.333-75.2c-1.383-.195-2.335-1.554-2.127-3.037.208-1.482 1.498-2.527 2.881-2.332 1.383.194 2.335 1.554 2.127 3.036-.208 1.483-1.498 2.527-2.881 2.332zm40.734-10.159c-3.048-.428-5.163-3.308-4.724-6.432.44-3.124 3.266-5.31 6.314-4.88 3.048.428 5.163 3.307 4.724 6.431-.44 3.124-3.266 5.31-6.314 4.881zm-26.92-9.213c-1.62 1.012-3.584.791-4.387-.494-.803-1.285-.14-3.147 1.48-4.16 1.62-1.012 3.584-.79 4.386.494.803 1.285.14 3.147-1.48 4.16zm21.844-5.469a3.459 3.459 0 1 1-3.666-5.867 3.459 3.459 0 0 1 3.666 5.867zm36.52 32.892a3.459 3.459 0 1 1-3.667-5.867 3.459 3.459 0 0 1 3.666 5.867zm-86.713-21.791a2.529 2.529 0 1 1-2.68-4.29 2.529 2.529 0 0 1 2.68 4.29zM1403.298 55.312c-3.678-.517-6.23-4.004-5.698-7.787.532-3.784 3.945-6.432 7.624-5.915 3.678.517 6.229 4.003 5.697 7.787-.532 3.783-3.945 6.432-7.623 5.915zm-30.179 83.586c-1.383-.194-2.335-1.554-2.127-3.036.208-1.483 1.498-2.527 2.881-2.332 1.383.194 2.336 1.553 2.127 3.036-.208 1.482-1.498 2.527-2.881 2.332zm40.734-10.158c-3.048-.429-5.162-3.308-4.723-6.432.439-3.124 3.265-5.31 6.313-4.881 3.048.428 5.163 3.308 4.724 6.432-.44 3.124-3.266 5.309-6.314 4.88zm-26.92-9.214c-1.62 1.013-3.584.792-4.387-.493-.803-1.285-.14-3.147 1.48-4.16 1.62-1.012 3.584-.79 4.387.494.803 1.285.14 3.147-1.48 4.16zm21.844-5.468a3.459 3.459 0 1 1-3.666-5.867 3.459 3.459 0 0 1 3.666 5.867zm36.52 32.892a3.459 3.459 0 1 1-3.667-5.867 3.459 3.459 0 0 1 3.666 5.867zm-86.713-21.791a2.529 2.529 0 1 1-2.68-4.29 2.529 2.529 0 0 1 2.68 4.29zm-6.504 93.367c-3.679-.517-6.23-4.003-5.698-7.787.532-3.783 3.945-6.431 7.623-5.914 3.679.517 6.23 4.003 5.698 7.786-.532 3.784-3.945 6.432-7.623 5.915zm51.803-22.344c-1.382-.194-2.335-1.553-2.126-3.036.208-1.482 1.498-2.527 2.881-2.332 1.383.194 2.335 1.554 2.127 3.036-.209 1.483-1.499 2.527-2.882 2.332zm83.245 95.425c-3.048-.428-5.163-3.308-4.724-6.432.44-3.124 3.266-5.31 6.314-4.88 3.048.428 5.162 3.307 4.723 6.431-.439 3.124-3.265 5.31-6.313 4.881zm-69.43-114.796c-1.62 1.012-3.585.791-4.388-.494-.802-1.285-.14-3.147 1.48-4.16 1.62-1.012 3.584-.79 4.387.494.803 1.285.14 3.147-1.48 4.16zm21.844-5.469a3.459 3.459 0 1 1-3.666-5.867 3.459 3.459 0 0 1 3.666 5.867zm36.519 32.892a3.459 3.459 0 1 1-3.666-5.867 3.459 3.459 0 0 1 3.666 5.867zm-86.713-21.791a2.529 2.529 0 1 1-2.68-4.29 2.529 2.529 0 0 1 2.68 4.29zM873.19-18.114c-3.678-.517-6.229-4.003-5.697-7.787.532-3.783 3.945-6.431 7.623-5.914 3.678.517 6.23 4.003 5.698 7.787-.532 3.783-3.945 6.431-7.624 5.914zm165.421 53.973c-1.383-.194-2.335-1.553-2.127-3.036.209-1.482 1.499-2.526 2.881-2.332 1.383.194 2.336 1.554 2.127 3.036-.208 1.483-1.498 2.527-2.881 2.332zm65.912-48.252c-3.048-.428-5.163-3.308-4.724-6.432.44-3.124 3.266-5.31 6.314-4.88 3.048.428 5.162 3.307 4.723 6.431-.439 3.124-3.265 5.31-6.313 4.881zm-52.098 28.88c-1.62 1.013-3.584.792-4.387-.493-.803-1.285-.14-3.147 1.48-4.16 1.62-1.011 3.584-.79 4.387.494.803 1.285.14 3.147-1.48 4.16zm21.844-5.468a3.459 3.459 0 1 1-3.666-5.867 3.459 3.459 0 0 1 3.666 5.867zm36.52 32.892a3.459 3.459 0 1 1-3.667-5.867 3.459 3.459 0 0 1 3.666 5.867zm-86.713-21.791a2.529 2.529 0 1 1-2.68-4.289 2.529 2.529 0 0 1 2.68 4.289zm-9.033 146.224c-3.679-.517-6.23-4.003-5.698-7.786.532-3.784 3.945-6.432 7.623-5.915 3.679.517 6.23 4.003 5.698 7.787-.532 3.783-3.945 6.431-7.623 5.914zm54.333-75.2c-1.383-.195-2.336-1.554-2.127-3.036.208-1.483 1.498-2.527 2.881-2.333 1.383.195 2.335 1.554 2.127 3.036-.208 1.483-1.499 2.527-2.881 2.333zm40.734-10.159c-3.048-.428-5.163-3.308-4.724-6.432.44-3.124 3.266-5.309 6.314-4.88 3.048.428 5.162 3.308 4.723 6.431-.439 3.124-3.265 5.31-6.313 4.881zm-26.92-9.213c-1.62 1.012-3.585.791-4.388-.493-.802-1.285-.14-3.148 1.48-4.16s3.584-.791 4.387.494c.803 1.284.14 3.147-1.48 4.159zm21.844-5.469a3.459 3.459 0 1 1-3.666-5.866 3.459 3.459 0 0 1 3.666 5.866zm36.519 32.892a3.459 3.459 0 1 1-3.666-5.866 3.459 3.459 0 0 1 3.666 5.866zm-86.713-21.79a2.529 2.529 0 1 1-2.68-4.29 2.529 2.529 0 0 1 2.68 4.29zM1249.375 84.532c-3.678-.517-6.23-4.003-5.697-7.787.531-3.783 3.944-6.431 7.623-5.914 3.678.517 6.23 4.003 5.697 7.786-.531 3.784-3.944 6.432-7.623 5.915zm-30.179 83.586c-1.383-.194-2.335-1.553-2.127-3.036.209-1.482 1.499-2.526 2.882-2.332 1.383.194 2.335 1.554 2.127 3.036-.209 1.483-1.499 2.527-2.882 2.332zm40.734-10.158c-3.047-.428-5.162-3.308-4.723-6.432.439-3.124 3.266-5.31 6.313-4.88 3.048.428 5.163 3.307 4.724 6.431-.439 3.124-3.266 5.31-6.314 4.881zm-26.92-9.213c-1.62 1.012-3.584.791-4.387-.494-.803-1.285-.14-3.147 1.48-4.16 1.62-1.011 3.584-.79 4.387.494.803 1.285.14 3.147-1.48 4.16zm21.845-5.469a3.459 3.459 0 1 1-3.666-5.867 3.459 3.459 0 0 1 3.666 5.867zm36.519 32.892a3.459 3.459 0 1 1-3.666-5.867 3.459 3.459 0 0 1 3.666 5.867zm-86.713-21.791a2.529 2.529 0 1 1-2.68-4.289 2.529 2.529 0 0 1 2.68 4.289zm-6.504 93.367c-3.679-.517-6.23-4.003-5.698-7.786.532-3.784 3.945-6.432 7.623-5.915 3.679.517 6.23 4.003 5.698 7.787-.532 3.783-3.945 6.431-7.623 5.914zm51.804-22.343c-1.383-.195-2.335-1.554-2.127-3.036.208-1.483 1.498-2.527 2.881-2.333 1.383.195 2.335 1.554 2.127 3.036-.208 1.483-1.498 2.527-2.881 2.333zm83.244 95.424c-3.048-.428-5.163-3.308-4.724-6.432.44-3.124 3.266-5.309 6.314-4.88 3.048.428 5.163 3.308 4.724 6.431-.44 3.124-3.266 5.31-6.314 4.881zm-69.43-114.796c-1.62 1.012-3.584.791-4.387-.493-.803-1.285-.14-3.148 1.48-4.16s3.584-.791 4.386.494c.803 1.284.14 3.147-1.48 4.159zm21.844-5.469a3.459 3.459 0 1 1-3.666-5.866 3.459 3.459 0 0 1 3.666 5.866zm36.52 32.892a3.459 3.459 0 1 1-3.667-5.866 3.459 3.459 0 0 1 3.666 5.866zm-86.713-21.79a2.529 2.529 0 1 1-2.68-4.29 2.529 2.529 0 0 1 2.68 4.29zM719.268 11.105c-3.679-.517-6.23-4.003-5.698-7.786.532-3.784 3.945-6.432 7.623-5.915 3.679.517 6.23 4.003 5.698 7.787-.532 3.783-3.945 6.431-7.623 5.914zm165.42 53.974c-1.383-.195-2.335-1.554-2.127-3.036.209-1.483 1.499-2.527 2.882-2.333 1.383.195 2.335 1.554 2.127 3.036-.209 1.483-1.499 2.527-2.882 2.333zM950.6 16.827c-3.048-.428-5.163-3.308-4.724-6.432.44-3.124 3.266-5.309 6.314-4.88 3.048.428 5.163 3.308 4.724 6.431-.44 3.124-3.266 5.31-6.314 4.881zm-52.098 28.881c-1.62 1.012-3.584.791-4.387-.493-.803-1.285-.14-3.148 1.48-4.16s3.584-.791 4.387.494c.803 1.284.14 3.147-1.48 4.159zm21.845-5.469a3.459 3.459 0 1 1-3.666-5.866 3.459 3.459 0 0 1 3.666 5.866zm36.519 32.893a3.459 3.459 0 1 1-3.666-5.867 3.459 3.459 0 0 1 3.666 5.867zM870.153 51.34a2.529 2.529 0 1 1-2.68-4.289 2.529 2.529 0 0 1 2.68 4.29zm-9.033 146.225c-3.679-.517-6.23-4.004-5.698-7.787.532-3.784 3.945-6.432 7.623-5.915 3.679.517 6.23 4.003 5.698 7.787-.532 3.783-3.945 6.432-7.623 5.915zm54.333-75.2c-1.383-.195-2.335-1.555-2.127-3.037.208-1.483 1.498-2.527 2.881-2.333 1.383.195 2.335 1.554 2.127 3.037-.208 1.482-1.498 2.526-2.881 2.332zm40.734-10.16c-3.048-.428-5.163-3.307-4.724-6.431.44-3.124 3.266-5.31 6.314-4.881 3.048.428 5.163 3.308 4.724 6.432-.44 3.124-3.266 5.309-6.314 4.88zm-26.92-9.213c-1.62 1.013-3.584.792-4.387-.493-.803-1.285-.14-3.147 1.48-4.16 1.62-1.012 3.584-.791 4.386.494.803 1.285.14 3.147-1.48 4.16zm21.844-5.468a3.459 3.459 0 1 1-3.666-5.867 3.459 3.459 0 0 1 3.666 5.867zm36.52 32.892a3.459 3.459 0 1 1-3.667-5.867 3.459 3.459 0 0 1 3.666 5.867zm-86.713-21.792a2.529 2.529 0 1 1-2.68-4.288 2.529 2.529 0 0 1 2.68 4.288zM453.701 104.532c3.679-.517 6.23-4.003 5.698-7.787-.532-3.783-3.945-6.431-7.624-5.914-3.678.517-6.229 4.003-5.697 7.786.532 3.784 3.945 6.432 7.623 5.915zm30.18 83.586c1.382-.194 2.334-1.553 2.126-3.036-.208-1.482-1.498-2.526-2.881-2.332-1.383.194-2.336 1.554-2.127 3.036.208 1.483 1.498 2.527 2.881 2.332zm-40.735-10.158c3.048-.428 5.163-3.308 4.723-6.432-.439-3.124-3.265-5.31-6.313-4.88-3.048.428-5.163 3.307-4.724 6.431.44 3.124 3.266 5.31 6.314 4.881zm26.92-9.213c1.62 1.012 3.584.791 4.387-.494.803-1.285.14-3.147-1.48-4.16-1.62-1.011-3.584-.79-4.387.494-.803 1.285-.14 3.147 1.48 4.16zm-21.844-5.469a3.459 3.459 0 1 0 3.666-5.867 3.459 3.459 0 0 0-3.666 5.867zm-36.52 32.892a3.459 3.459 0 1 0 3.667-5.867 3.459 3.459 0 0 0-3.666 5.867zm86.713-21.791a2.529 2.529 0 1 0 2.68-4.289 2.529 2.529 0 0 0-2.68 4.289zm6.504 93.367c3.679-.517 6.23-4.003 5.698-7.786-.532-3.784-3.945-6.432-7.623-5.915-3.679.517-6.23 4.003-5.698 7.787.532 3.783 3.945 6.431 7.623 5.914zm-51.803-22.343c1.383-.195 2.335-1.554 2.126-3.036-.208-1.483-1.498-2.527-2.881-2.333-1.383.195-2.335 1.554-2.127 3.036.209 1.483 1.499 2.527 2.882 2.333zm-83.245 95.424c3.048-.428 5.163-3.308 4.724-6.432-.44-3.124-3.266-5.309-6.314-4.88-3.048.428-5.162 3.308-4.723 6.431.439 3.124 3.265 5.31 6.313 4.881zm69.43-114.796c1.62 1.012 3.585.791 4.388-.493.802-1.285.14-3.148-1.48-4.16s-3.584-.791-4.387.494c-.803 1.284-.14 3.147 1.48 4.159zm-21.844-5.469a3.459 3.459 0 1 0 3.666-5.866 3.459 3.459 0 0 0-3.666 5.866zm-36.519 32.892a3.459 3.459 0 1 0 3.666-5.866 3.459 3.459 0 0 0-3.666 5.866zm86.713-21.79a2.529 2.529 0 1 0 2.68-4.29 2.529 2.529 0 0 0-2.68 4.29zM983.809 31.105c3.678-.517 6.229-4.003 5.697-7.786-.532-3.784-3.945-6.432-7.623-5.915-3.678.517-6.23 4.003-5.698 7.787.532 3.783 3.945 6.431 7.624 5.914zM818.389 85.08c1.382-.195 2.334-1.554 2.126-3.036-.208-1.483-1.498-2.527-2.881-2.333-1.383.195-2.336 1.554-2.127 3.036.208 1.483 1.498 2.527 2.881 2.333zm-65.913-48.253c3.048-.428 5.163-3.308 4.724-6.432-.44-3.124-3.266-5.309-6.314-4.88-3.048.428-5.162 3.308-4.723 6.431.439 3.124 3.265 5.31 6.313 4.881zm52.098 28.881c1.62 1.012 3.584.791 4.387-.493.803-1.285.14-3.148-1.48-4.16s-3.584-.791-4.387.494c-.803 1.284-.14 3.147 1.48 4.159zm-21.844-5.469a3.459 3.459 0 1 0 3.666-5.866 3.459 3.459 0 0 0-3.666 5.866zm-36.52 32.893a3.459 3.459 0 1 0 3.667-5.867 3.459 3.459 0 0 0-3.666 5.867zm86.713-21.792a2.529 2.529 0 1 0 2.68-4.289 2.529 2.529 0 0 0-2.68 4.29zm9.033 146.225c3.679-.517 6.23-4.004 5.698-7.787-.532-3.784-3.945-6.432-7.623-5.915-3.679.517-6.23 4.003-5.698 7.787.532 3.783 3.945 6.432 7.623 5.915zm-54.332-75.2c1.382-.195 2.335-1.555 2.126-3.037-.208-1.483-1.498-2.527-2.881-2.333-1.383.195-2.335 1.554-2.127 3.037.209 1.482 1.499 2.526 2.882 2.332zm-40.735-10.16c3.048-.428 5.163-3.307 4.724-6.431-.44-3.124-3.266-5.31-6.314-4.881-3.047.428-5.162 3.308-4.723 6.432.439 3.124 3.265 5.309 6.313 4.88zm26.92-9.213c1.62 1.013 3.585.792 4.388-.493.802-1.285.14-3.147-1.48-4.16-1.62-1.012-3.584-.791-4.387.494-.803 1.285-.14 3.147 1.48 4.16zm-21.844-5.468a3.459 3.459 0 1 0 3.666-5.867 3.459 3.459 0 0 0-3.666 5.867zm-36.519 32.892a3.459 3.459 0 1 0 3.666-5.867 3.459 3.459 0 0 0-3.666 5.867zm86.713-21.792a2.529 2.529 0 1 0 2.68-4.288 2.529 2.529 0 0 0-2.68 4.288z"/>
    <g fill="#695942">
      <path d="M348.972 167.326c-4.142 0-7.5 3.109-7.5-1.033a7.5 7.5 0 0 1 15 0c0 4.142-3.358 1.033-7.5 1.033zm389.12 70.391c-4.143 0-7.5 3.109-7.5-1.033a7.5 7.5 0 1 1 15 0c0 4.142-3.359 1.033-7.5 1.033zm661.5 86.783c-4.143 0-7.5 3.108-7.5-1.034a7.5 7.5 0 1 1 15 0c0 4.142-3.359 1.034-7.5 1.034zm42-194.174c-4.143 0-7.5 3.109-7.5-1.033a7.5 7.5 0 1 1 15 0c0 4.142-3.359 1.033-7.5 1.033zm-159.783-37.653c-4.142 0-7.5 3.108-7.5-1.034a7.5 7.5 0 0 1 15 0c0 4.142-3.358 1.034-7.5 1.034zm-793.263 117.03c-1.21-3.961-5.165-6.263-1.204-7.474a7.5 7.5 0 1 1 4.386 14.344c-3.962 1.211-1.97-2.909-3.182-6.87zM3.476 135.774c-1.21-3.961-5.165-6.264-1.204-7.475a7.5 7.5 0 0 1 4.386 14.345c-3.961 1.211-1.97-2.909-3.181-6.87zm1324.937 47.686c-1.21-3.961-5.165-6.264-1.204-7.475a7.5 7.5 0 1 1 4.385 14.345c-3.96 1.211-1.97-2.909-3.18-6.87zm-905.058 183.5c-1.211-3.961-5.166-6.264-1.204-7.475a7.5 7.5 0 0 1 4.385 14.345c-3.961 1.211-1.97-2.909-3.181-6.87zm574-118.456c-1.211-3.96-5.166-6.263-1.204-7.474a7.5 7.5 0 1 1 4.385 14.344c-3.961 1.211-1.97-2.909-3.181-6.87zm142 157.956c-1.211-3.961-5.166-6.264-1.204-7.475a7.5 7.5 0 1 1 4.385 14.345c-3.961 1.211-1.97-2.909-3.181-6.87zm-448.5-303c-1.211-3.961-5.166-6.264-1.204-7.475a7.5 7.5 0 0 1 4.385 14.345c-3.961 1.211-1.97-2.909-3.181-6.87zM237.05 225.142c.719 4.08 4.363 6.847.284 7.566a7.5 7.5 0 0 1-2.605-14.772c4.08-.72 1.601 3.127 2.32 7.206zm639.747 103.231c.719 4.08 4.363 6.846.284 7.566a7.5 7.5 0 0 1-2.605-14.773c4.08-.719 1.602 3.128 2.32 7.207z"/>
      <path d="M1224.132 136.673c4.142 0 7.5 3.108 7.5-1.034a7.5 7.5 0 0 0-15 0c0 4.142 3.358 1.034 7.5 1.034zm-389.12 70.391c4.143 0 7.5 3.109 7.5-1.034a7.5 7.5 0 1 0-15 0c0 4.143 3.358 1.034 7.5 1.034zm-661.5 86.782c4.143 0 7.5 3.109 7.5-1.033a7.5 7.5 0 1 0-15 0c0 4.142 3.358 1.033 7.5 1.033zm-42-194.173c4.143 0 7.5 3.108 7.5-1.034a7.5 7.5 0 1 0-15 0c0 4.142 3.358 1.034 7.5 1.034zM291.296 62.02c4.142 0 7.5 3.108 7.5-1.034a7.5 7.5 0 1 0-15 0c0 4.142 3.358 1.034 7.5 1.034zm793.263 117.03c1.21-3.961 5.165-6.264 1.204-7.475a7.5 7.5 0 1 0-4.386 14.345c3.962 1.21 1.97-2.91 3.182-6.87zm485.07-73.93c1.21-3.96 5.165-6.263 1.204-7.474a7.5 7.5 0 0 0-4.386 14.345c3.961 1.21 1.97-2.91 3.181-6.87zM244.69 152.808c1.21-3.962 5.165-6.264 1.204-7.475a7.5 7.5 0 0 0-4.385 14.345c3.96 1.21 1.97-2.91 3.18-6.87zm905.058 183.5c1.211-3.962 5.166-6.264 1.204-7.475a7.5 7.5 0 0 0-4.385 14.345c3.961 1.21 1.97-2.91 3.181-6.87zm-574-118.456c1.211-3.961 5.166-6.263 1.204-7.475a7.5 7.5 0 1 0-4.385 14.345c3.961 1.211 1.97-2.909 3.181-6.87zm-142 157.956c1.211-3.962 5.166-6.264 1.204-7.475a7.5 7.5 0 1 0-4.385 14.345c3.961 1.21 1.97-2.91 3.181-6.87zm448.5-303c1.211-3.962 5.166-6.264 1.204-7.475a7.5 7.5 0 0 0-4.385 14.345c3.961 1.21 1.97-2.91 3.181-6.87zm453.804 121.682c-.719 4.08-4.363 6.846-.284 7.566a7.5 7.5 0 0 0 2.605-14.772c-4.08-.72-1.601 3.127-2.32 7.206zM696.306 297.72c-.72 4.08-4.363 6.847-.284 7.566a7.5 7.5 0 0 0 2.605-14.772c-4.08-.72-1.602 3.128-2.32 7.207z"/>
    </g>
  </g>
</svg>
