<svg xmlns="http://www.w3.org/2000/svg" viewBox="0 0 1600 556">
  <g fill="none" fill-rule="evenodd">
    <path fill="#424135" d="M0 0h1600v556H0z"/>
    <path fill="#36352C" d="M576.875 151.071c-3.678-.517-6.23-4.003-5.697-7.787.531-3.783 3.944-6.431 7.623-5.914 3.678.517 6.23 4.003 5.697 7.786-.531 3.784-3.944 6.432-7.623 5.915zm-30.179 83.587c-1.383-.195-2.335-1.554-2.127-3.037.209-1.482 1.499-2.526 2.882-2.332 1.383.194 2.335 1.554 2.127 3.036-.209 1.483-1.499 2.527-2.882 2.333zm40.734-10.159c-3.047-.428-5.162-3.308-4.723-6.432.439-3.124 3.266-5.309 6.313-4.88 3.048.428 5.163 3.307 4.724 6.431-.439 3.124-3.266 5.31-6.314 4.881zm-26.92-9.213c-1.62 1.012-3.584.791-4.387-.494-.803-1.284-.14-3.147 1.48-4.16 1.62-1.011 3.584-.79 4.387.494.803 1.285.14 3.147-1.48 4.16zm21.845-5.469a3.459 3.459 0 1 1-3.666-5.867 3.459 3.459 0 0 1 3.666 5.867zm36.519 32.892a3.459 3.459 0 1 1-3.666-5.866 3.459 3.459 0 0 1 3.666 5.866zm-86.713-21.791a2.529 2.529 0 1 1-2.68-4.289 2.529 2.529 0 0 1 2.68 4.289zm-6.504 93.367c-3.679-.517-6.23-4.003-5.698-7.786.532-3.784 3.945-6.432 7.623-5.915 3.679.517 6.23 4.003 5.698 7.787-.532 3.783-3.945 6.431-7.623 5.914zm51.804-22.343c-1.383-.195-2.335-1.554-2.127-3.036.208-1.483 1.498-2.527 2.881-2.333 1.383.195 2.335 1.554 2.127 3.036-.208 1.483-1.498 2.527-2.881 2.333zm83.244 95.424c-3.048-.428-5.163-3.308-4.724-6.432.44-3.124 3.266-5.309 6.314-4.88 3.048.428 5.163 3.308 4.724 6.432-.44 3.124-3.266 5.309-6.314 4.88zm-69.43-114.796c-1.62 1.012-3.584.791-4.387-.493-.803-1.285-.14-3.147 1.48-4.16 1.62-1.012 3.584-.791 4.386.494.803 1.284.14 3.147-1.48 4.159zm21.844-5.468a3.459 3.459 0 1 1-3.666-5.867 3.459 3.459 0 0 1 3.666 5.867zm36.52 32.892a3.459 3.459 0 1 1-3.667-5.867 3.459 3.459 0 0 1 3.666 5.867zm-86.713-21.792a2.529 2.529 0 1 1-2.68-4.289 2.529 2.529 0 0 1 2.68 4.29zM46.768 77.646c-3.679-.517-6.23-4.004-5.698-7.787.532-3.784 3.945-6.432 7.623-5.915 3.679.517 6.23 4.003 5.698 7.787-.532 3.783-3.945 6.431-7.623 5.915zm165.42 53.973c-1.383-.194-2.335-1.554-2.127-3.036.209-1.483 1.499-2.527 2.882-2.333 1.383.195 2.335 1.554 2.127 3.037-.209 1.482-1.499 2.526-2.882 2.332zM278.1 83.366c-3.048-.428-5.163-3.308-4.724-6.432.44-3.124 3.266-5.309 6.314-4.88 3.048.428 5.163 3.308 4.724 6.432-.44 3.124-3.266 5.309-6.314 4.88zm-52.098 28.881c-1.62 1.012-3.584.791-4.387-.493-.803-1.285-.14-3.147 1.48-4.16 1.62-1.012 3.584-.791 4.387.494.803 1.285.14 3.147-1.48 4.16zm21.845-5.468a3.459 3.459 0 1 1-3.666-5.867 3.459 3.459 0 0 1 3.666 5.867zm36.519 32.892a3.459 3.459 0 1 1-3.666-5.867 3.459 3.459 0 0 1 3.666 5.867zm-86.713-21.792a2.529 2.529 0 1 1-2.68-4.289 2.529 2.529 0 0 1 2.68 4.29zm-9.033 146.225c-3.679-.517-6.23-4.004-5.698-7.787.532-3.784 3.945-6.432 7.623-5.915 3.679.517 6.23 4.003 5.698 7.787s-3.945 6.432-7.623 5.915zm54.333-75.2c-1.383-.195-2.335-1.555-2.127-3.037.208-1.483 1.498-2.527 2.881-2.332 1.383.194 2.335 1.553 2.127 3.036-.208 1.482-1.498 2.527-2.881 2.332zm40.734-10.16c-3.048-.428-5.163-3.307-4.724-6.431.44-3.124 3.266-5.31 6.314-4.881 3.048.428 5.163 3.308 4.724 6.432-.44 3.124-3.266 5.309-6.314 4.88zm-26.92-9.213c-1.62 1.013-3.584.792-4.387-.493-.803-1.285-.14-3.147 1.48-4.16 1.62-1.012 3.584-.79 4.386.494.803 1.285.14 3.147-1.48 4.16zm21.844-5.468a3.459 3.459 0 1 1-3.666-5.867 3.459 3.459 0 0 1 3.666 5.867zm36.52 32.892a3.459 3.459 0 1 1-3.667-5.867 3.459 3.459 0 0 1 3.666 5.867zm-86.713-21.791a2.529 2.529 0 1 1-2.68-4.29 2.529 2.529 0 0 1 2.68 4.29zM692.875 250.423c-3.678-.517-6.23-4.003-5.697-7.787.531-3.783 3.944-6.431 7.623-5.914 3.678.517 6.23 4.003 5.697 7.786-.531 3.784-3.944 6.432-7.623 5.915zm-30.179 83.587c-1.383-.195-2.335-1.554-2.127-3.037.209-1.482 1.499-2.526 2.882-2.332 1.383.194 2.335 1.554 2.127 3.036-.209 1.483-1.499 2.527-2.882 2.333zm40.734-10.159c-3.047-.428-5.162-3.308-4.723-6.432.439-3.124 3.266-5.309 6.313-4.88 3.048.428 5.163 3.307 4.724 6.431-.439 3.124-3.266 5.31-6.314 4.881zm-26.92-9.213c-1.62 1.012-3.584.791-4.387-.494-.803-1.285-.14-3.147 1.48-4.16 1.62-1.011 3.584-.79 4.387.494.803 1.285.14 3.147-1.48 4.16zm21.845-5.469a3.459 3.459 0 1 1-3.666-5.867 3.459 3.459 0 0 1 3.666 5.867zm36.519 32.892a3.459 3.459 0 1 1-3.666-5.867 3.459 3.459 0 0 1 3.666 5.867zM648.16 320.27a2.529 2.529 0 1 1-2.68-4.289 2.529 2.529 0 0 1 2.68 4.289zm-6.504 93.367c-3.679-.517-6.23-4.003-5.698-7.786.532-3.784 3.945-6.432 7.623-5.915 3.679.517 6.23 4.003 5.698 7.787-.532 3.783-3.945 6.431-7.623 5.914zm51.804-22.343c-1.383-.195-2.335-1.554-2.127-3.036.208-1.483 1.498-2.527 2.881-2.333 1.383.195 2.335 1.554 2.127 3.036-.208 1.483-1.498 2.527-2.881 2.333zm83.244 95.424c-3.048-.428-5.163-3.308-4.724-6.432.44-3.124 3.266-5.309 6.314-4.88 3.048.428 5.163 3.308 4.724 6.432-.44 3.124-3.266 5.309-6.314 4.88zm-69.43-114.796c-1.62 1.012-3.584.791-4.387-.493-.803-1.285-.14-3.147 1.48-4.16 1.62-1.012 3.584-.791 4.386.494.803 1.284.14 3.147-1.48 4.159zm21.844-5.469a3.459 3.459 0 1 1-3.666-5.866 3.459 3.459 0 0 1 3.666 5.866zm36.52 32.893a3.459 3.459 0 1 1-3.667-5.867 3.459 3.459 0 0 1 3.666 5.867zm-86.713-21.792a2.529 2.529 0 1 1-2.68-4.289 2.529 2.529 0 0 1 2.68 4.29zM162.768 176.998c-3.679-.517-6.23-4.004-5.698-7.787.532-3.784 3.945-6.432 7.623-5.915 3.679.517 6.23 4.003 5.698 7.787-.532 3.783-3.945 6.431-7.623 5.915zm165.42 53.973c-1.383-.194-2.335-1.554-2.127-3.036.209-1.483 1.499-2.527 2.882-2.333 1.383.195 2.335 1.554 2.127 3.037-.209 1.482-1.499 2.526-2.882 2.332zm65.912-48.253c-3.048-.428-5.163-3.308-4.724-6.432.44-3.124 3.266-5.309 6.314-4.88 3.048.428 5.163 3.308 4.724 6.432-.44 3.124-3.266 5.309-6.314 4.88zM342.002 211.6c-1.62 1.012-3.584.791-4.387-.493-.803-1.285-.14-3.147 1.48-4.16 1.62-1.012 3.584-.791 4.387.494.803 1.285.14 3.147-1.48 4.16zm21.845-5.468a3.459 3.459 0 1 1-3.666-5.867 3.459 3.459 0 0 1 3.666 5.867zm36.519 32.892a3.459 3.459 0 1 1-3.666-5.867 3.459 3.459 0 0 1 3.666 5.867zm-86.713-21.792a2.529 2.529 0 1 1-2.68-4.289 2.529 2.529 0 0 1 2.68 4.29zm-9.033 146.225c-3.679-.517-6.23-4.004-5.698-7.787.532-3.784 3.945-6.432 7.623-5.915 3.679.517 6.23 4.003 5.698 7.787s-3.945 6.432-7.623 5.915zm54.333-75.2c-1.383-.195-2.335-1.555-2.127-3.037.208-1.483 1.498-2.527 2.881-2.332 1.383.194 2.335 1.553 2.127 3.036-.208 1.482-1.498 2.527-2.881 2.332zm40.734-10.16c-3.048-.428-5.163-3.307-4.724-6.431.44-3.124 3.266-5.31 6.314-4.881 3.048.428 5.163 3.308 4.724 6.432-.44 3.124-3.266 5.309-6.314 4.88zm-26.92-9.213c-1.62 1.013-3.584.792-4.387-.493-.803-1.285-.14-3.147 1.48-4.16 1.62-1.012 3.584-.79 4.386.494.803 1.285.14 3.147-1.48 4.16zm21.844-5.468a3.459 3.459 0 1 1-3.666-5.867 3.459 3.459 0 0 1 3.666 5.867zm36.52 32.892a3.459 3.459 0 1 1-3.667-5.867 3.459 3.459 0 0 1 3.666 5.867zm-86.713-21.791a2.529 2.529 0 1 1-2.68-4.29 2.529 2.529 0 0 1 2.68 4.29zM1427.798 163.191c-3.678-.517-6.23-4.003-5.698-7.786.532-3.784 3.945-6.432 7.624-5.915 3.678.517 6.229 4.003 5.697 7.787-.532 3.783-3.945 6.431-7.623 5.914zm-30.179 83.587c-1.383-.194-2.335-1.554-2.127-3.036.208-1.483 1.498-2.527 2.881-2.333 1.383.195 2.336 1.554 2.127 3.037-.208 1.482-1.498 2.526-2.881 2.332zm40.734-10.159c-3.048-.428-5.162-3.308-4.723-6.432.439-3.124 3.265-5.309 6.313-4.88 3.048.428 5.163 3.308 4.724 6.432-.44 3.124-3.266 5.309-6.314 4.88zm-26.92-9.213c-1.62 1.012-3.584.791-4.387-.493-.803-1.285-.14-3.147 1.48-4.16 1.62-1.012 3.584-.791 4.387.494.803 1.285.14 3.147-1.48 4.16zm21.844-5.468a3.459 3.459 0 1 1-3.666-5.867 3.459 3.459 0 0 1 3.666 5.867zm36.52 32.892a3.459 3.459 0 1 1-3.667-5.867 3.459 3.459 0 0 1 3.666 5.867zm-86.713-21.792a2.529 2.529 0 1 1-2.68-4.289 2.529 2.529 0 0 1 2.68 4.29zm-6.504 93.368c-3.679-.517-6.23-4.003-5.698-7.787s3.945-6.432 7.623-5.915c3.679.517 6.23 4.004 5.698 7.787-.532 3.784-3.945 6.432-7.623 5.915zm51.803-22.344c-1.382-.194-2.335-1.554-2.126-3.036.208-1.483 1.498-2.527 2.881-2.332 1.383.194 2.335 1.553 2.127 3.036-.209 1.482-1.499 2.527-2.882 2.332zm83.245 95.425c-3.048-.429-5.163-3.308-4.724-6.432.44-3.124 3.266-5.31 6.314-4.881 3.048.428 5.162 3.308 4.723 6.432-.439 3.124-3.265 5.309-6.313 4.88zm-69.43-114.797c-1.62 1.013-3.585.792-4.388-.493-.802-1.285-.14-3.147 1.48-4.16 1.62-1.012 3.584-.79 4.387.494.803 1.285.14 3.147-1.48 4.16zm21.844-5.468a3.459 3.459 0 1 1-3.666-5.867 3.459 3.459 0 0 1 3.666 5.867zm36.519 32.892a3.459 3.459 0 1 1-3.666-5.867 3.459 3.459 0 0 1 3.666 5.867zm-86.713-21.791a2.529 2.529 0 1 1-2.68-4.29 2.529 2.529 0 0 1 2.68 4.29zM897.69 89.766c-3.678-.517-6.229-4.003-5.697-7.787.532-3.783 3.945-6.431 7.623-5.915 3.678.517 6.23 4.004 5.698 7.787-.532 3.784-3.945 6.432-7.624 5.915zm165.421 53.973c-1.383-.194-2.335-1.554-2.127-3.036.209-1.483 1.499-2.527 2.881-2.332 1.383.194 2.336 1.553 2.127 3.036-.208 1.482-1.498 2.527-2.881 2.332zm65.912-48.252c-3.048-.429-5.163-3.308-4.724-6.432.44-3.124 3.266-5.31 6.314-4.881 3.048.428 5.162 3.308 4.723 6.432-.439 3.124-3.265 5.309-6.313 4.88zm-52.098 28.88c-1.62 1.013-3.584.792-4.387-.493-.803-1.285-.14-3.147 1.48-4.16 1.62-1.012 3.584-.79 4.387.494.803 1.285.14 3.147-1.48 4.16zm21.844-5.468a3.459 3.459 0 1 1-3.666-5.867 3.459 3.459 0 0 1 3.666 5.867zm36.52 32.892a3.459 3.459 0 1 1-3.667-5.867 3.459 3.459 0 0 1 3.666 5.867zM1048.575 130a2.529 2.529 0 1 1-2.68-4.29 2.529 2.529 0 0 1 2.68 4.29zm-9.033 146.224c-3.679-.517-6.23-4.003-5.698-7.787.532-3.783 3.945-6.431 7.623-5.914 3.679.517 6.23 4.003 5.698 7.786-.532 3.784-3.945 6.432-7.623 5.915zm54.333-75.2c-1.383-.195-2.336-1.554-2.127-3.037.208-1.482 1.498-2.527 2.881-2.332 1.383.194 2.335 1.554 2.127 3.036-.208 1.483-1.499 2.527-2.881 2.332zm40.734-10.159c-3.048-.428-5.163-3.308-4.724-6.432.44-3.124 3.266-5.31 6.314-4.88 3.048.428 5.162 3.307 4.723 6.431-.439 3.124-3.265 5.31-6.313 4.881zm-26.92-9.213c-1.62 1.012-3.585.791-4.388-.494-.802-1.285-.14-3.147 1.48-4.16 1.62-1.012 3.584-.79 4.387.494.803 1.285.14 3.147-1.48 4.16zm21.844-5.469a3.459 3.459 0 1 1-3.666-5.867 3.459 3.459 0 0 1 3.666 5.867zm36.519 32.892a3.459 3.459 0 1 1-3.666-5.867 3.459 3.459 0 0 1 3.666 5.867zm-86.713-21.791a2.529 2.529 0 1 1-2.68-4.29 2.529 2.529 0 0 1 2.68 4.29zM1273.875 192.412c-3.678-.517-6.23-4.004-5.697-7.787.531-3.784 3.944-6.432 7.623-5.915 3.678.517 6.23 4.003 5.697 7.787-.531 3.783-3.944 6.432-7.623 5.915zm-30.179 83.586c-1.383-.194-2.335-1.554-2.127-3.036.209-1.483 1.499-2.527 2.882-2.332 1.383.194 2.335 1.553 2.127 3.036-.209 1.482-1.499 2.527-2.882 2.332zm40.734-10.158c-3.047-.429-5.162-3.308-4.723-6.432.439-3.124 3.266-5.31 6.313-4.881 3.048.428 5.163 3.308 4.724 6.432-.439 3.124-3.266 5.31-6.314 4.88zm-26.92-9.214c-1.62 1.013-3.584.792-4.387-.493-.803-1.285-.14-3.147 1.48-4.16 1.62-1.012 3.584-.79 4.387.494.803 1.285.14 3.147-1.48 4.16zm21.845-5.468a3.459 3.459 0 1 1-3.666-5.867 3.459 3.459 0 0 1 3.666 5.867zm36.519 32.892a3.459 3.459 0 1 1-3.666-5.867 3.459 3.459 0 0 1 3.666 5.867zm-86.713-21.791a2.529 2.529 0 1 1-2.68-4.29 2.529 2.529 0 0 1 2.68 4.29zm-6.504 93.367c-3.679-.517-6.23-4.003-5.698-7.787.532-3.783 3.945-6.431 7.623-5.914 3.679.517 6.23 4.003 5.698 7.786-.532 3.784-3.945 6.432-7.623 5.915zm51.804-22.344c-1.383-.194-2.335-1.553-2.127-3.036.208-1.482 1.498-2.527 2.881-2.332 1.383.194 2.335 1.554 2.127 3.036-.208 1.483-1.498 2.527-2.881 2.332zm83.244 95.425c-3.048-.428-5.163-3.308-4.724-6.432.44-3.124 3.266-5.31 6.314-4.88 3.048.428 5.163 3.307 4.724 6.431-.44 3.124-3.266 5.31-6.314 4.881zm-69.43-114.796c-1.62 1.012-3.584.791-4.387-.494-.803-1.285-.14-3.147 1.48-4.16 1.62-1.012 3.584-.79 4.386.494.803 1.285.14 3.147-1.48 4.16zm21.844-5.469a3.459 3.459 0 1 1-3.666-5.867 3.459 3.459 0 0 1 3.666 5.867zm36.52 32.892a3.459 3.459 0 1 1-3.667-5.867 3.459 3.459 0 0 1 3.666 5.867zm-86.713-21.791a2.529 2.529 0 1 1-2.68-4.29 2.529 2.529 0 0 1 2.68 4.29zM743.768 118.986c-3.679-.517-6.23-4.003-5.698-7.787.532-3.783 3.945-6.431 7.623-5.914 3.679.517 6.23 4.003 5.698 7.787-.532 3.783-3.945 6.431-7.623 5.914zm165.42 53.974c-1.383-.195-2.335-1.554-2.127-3.037.209-1.482 1.499-2.526 2.882-2.332 1.383.194 2.335 1.554 2.127 3.036-.209 1.483-1.499 2.527-2.882 2.333zm65.912-48.253c-3.048-.428-5.163-3.308-4.724-6.432.44-3.124 3.266-5.31 6.314-4.88 3.048.428 5.163 3.307 4.724 6.431-.44 3.124-3.266 5.31-6.314 4.881zm-52.098 28.88c-1.62 1.013-3.584.792-4.387-.493-.803-1.285-.14-3.147 1.48-4.16 1.62-1.011 3.584-.79 4.387.494.803 1.285.14 3.147-1.48 4.16zm21.845-5.468a3.459 3.459 0 1 1-3.666-5.867 3.459 3.459 0 0 1 3.666 5.867zm36.519 32.892a3.459 3.459 0 1 1-3.666-5.867 3.459 3.459 0 0 1 3.666 5.867zm-86.713-21.791a2.529 2.529 0 1 1-2.68-4.289 2.529 2.529 0 0 1 2.68 4.289zm-9.033 146.224c-3.679-.517-6.23-4.003-5.698-7.786.532-3.784 3.945-6.432 7.623-5.915 3.679.517 6.23 4.003 5.698 7.787-.532 3.783-3.945 6.431-7.623 5.914zm54.333-75.2c-1.383-.195-2.335-1.554-2.127-3.036.208-1.483 1.498-2.527 2.881-2.333 1.383.195 2.335 1.554 2.127 3.036-.208 1.483-1.498 2.527-2.881 2.333zm40.734-10.159c-3.048-.428-5.163-3.308-4.724-6.432.44-3.124 3.266-5.309 6.314-4.88 3.048.428 5.163 3.308 4.724 6.431-.44 3.124-3.266 5.31-6.314 4.881zm-26.92-9.213c-1.62 1.012-3.584.791-4.387-.493-.803-1.285-.14-3.148 1.48-4.16s3.584-.791 4.386.494c.803 1.284.14 3.147-1.48 4.159zm21.844-5.469a3.459 3.459 0 1 1-3.666-5.866 3.459 3.459 0 0 1 3.666 5.866zm36.52 32.892a3.459 3.459 0 1 1-3.667-5.866 3.459 3.459 0 0 1 3.666 5.866zm-86.713-21.79a2.529 2.529 0 1 1-2.68-4.29 2.529 2.529 0 0 1 2.68 4.29zM478.201 212.412c3.679-.517 6.23-4.004 5.698-7.787-.532-3.784-3.945-6.432-7.624-5.915-3.678.517-6.229 4.003-5.697 7.787.532 3.783 3.945 6.432 7.623 5.915zm30.18 83.586c1.382-.194 2.334-1.554 2.126-3.036-.208-1.483-1.498-2.527-2.881-2.332-1.383.194-2.336 1.553-2.127 3.036.208 1.482 1.498 2.527 2.881 2.332zm-40.735-10.158c3.048-.429 5.163-3.308 4.723-6.432-.439-3.124-3.265-5.31-6.313-4.881-3.048.428-5.163 3.308-4.724 6.432.44 3.124 3.266 5.31 6.314 4.88zm26.92-9.214c1.62 1.013 3.584.792 4.387-.493.803-1.285.14-3.147-1.48-4.16-1.62-1.012-3.584-.79-4.387.494-.803 1.285-.14 3.147 1.48 4.16zm-21.844-5.468a3.459 3.459 0 1 0 3.666-5.867 3.459 3.459 0 0 0-3.666 5.867zm-36.52 32.892a3.459 3.459 0 1 0 3.667-5.867 3.459 3.459 0 0 0-3.666 5.867zm86.713-21.791a2.529 2.529 0 1 0 2.68-4.29 2.529 2.529 0 0 0-2.68 4.29zm6.504 93.367c3.679-.517 6.23-4.003 5.698-7.787-.532-3.783-3.945-6.431-7.623-5.914-3.679.517-6.23 4.003-5.698 7.786.532 3.784 3.945 6.432 7.623 5.915zm-51.803-22.344c1.383-.194 2.335-1.553 2.126-3.036-.208-1.482-1.498-2.527-2.881-2.332-1.383.194-2.335 1.554-2.127 3.036.209 1.483 1.499 2.527 2.882 2.332zm-83.245 95.425c3.048-.428 5.163-3.308 4.724-6.432-.44-3.124-3.266-5.31-6.314-4.88-3.048.428-5.162 3.307-4.723 6.431.439 3.124 3.265 5.31 6.313 4.881zm69.43-114.796c1.62 1.012 3.585.791 4.388-.494.802-1.285.14-3.147-1.48-4.16-1.62-1.012-3.584-.79-4.387.494-.803 1.285-.14 3.147 1.48 4.16zm-21.844-5.469a3.459 3.459 0 1 0 3.666-5.867 3.459 3.459 0 0 0-3.666 5.867zm-36.519 32.892a3.459 3.459 0 1 0 3.666-5.867 3.459 3.459 0 0 0-3.666 5.867zm86.713-21.791a2.529 2.529 0 1 0 2.68-4.29 2.529 2.529 0 0 0-2.68 4.29zm516.158-200.557c3.678-.517 6.229-4.003 5.697-7.787-.532-3.783-3.945-6.431-7.623-5.914-3.678.517-6.23 4.003-5.698 7.787.532 3.783 3.945 6.431 7.624 5.914zm-165.42 53.974c1.382-.195 2.334-1.554 2.126-3.037-.208-1.482-1.498-2.526-2.881-2.332-1.383.194-2.336 1.554-2.127 3.036.208 1.483 1.498 2.527 2.881 2.333zm-65.913-48.253c3.048-.428 5.163-3.308 4.724-6.432-.44-3.124-3.266-5.31-6.314-4.88-3.048.428-5.162 3.307-4.723 6.431.439 3.124 3.265 5.31 6.313 4.881zm52.098 28.88c1.62 1.013 3.584.792 4.387-.493.803-1.285.14-3.147-1.48-4.16-1.62-1.011-3.584-.79-4.387.494-.803 1.285-.14 3.147 1.48 4.16zm-21.844-5.468a3.459 3.459 0 1 0 3.666-5.867 3.459 3.459 0 0 0-3.666 5.867zm-36.52 32.892a3.459 3.459 0 1 0 3.667-5.867 3.459 3.459 0 0 0-3.666 5.867zm86.713-21.791a2.529 2.529 0 1 0 2.68-4.289 2.529 2.529 0 0 0-2.68 4.289zm9.033 146.224c3.679-.517 6.23-4.003 5.698-7.786-.532-3.784-3.945-6.432-7.623-5.915-3.679.517-6.23 4.003-5.698 7.787.532 3.783 3.945 6.431 7.623 5.914zm-54.332-75.2c1.382-.195 2.335-1.554 2.126-3.036-.208-1.483-1.498-2.527-2.881-2.333-1.383.195-2.335 1.554-2.127 3.036.209 1.483 1.499 2.527 2.882 2.333zm-40.735-10.159c3.048-.428 5.163-3.308 4.724-6.432-.44-3.124-3.266-5.309-6.314-4.88-3.047.428-5.162 3.308-4.723 6.431.439 3.124 3.265 5.31 6.313 4.881zm26.92-9.213c1.62 1.012 3.585.791 4.388-.493.802-1.285.14-3.148-1.48-4.16s-3.584-.791-4.387.494c-.803 1.284-.14 3.147 1.48 4.159zm-21.844-5.469a3.459 3.459 0 1 0 3.666-5.866 3.459 3.459 0 0 0-3.666 5.866zm-36.519 32.892a3.459 3.459 0 1 0 3.666-5.866 3.459 3.459 0 0 0-3.666 5.866zm86.713-21.79a2.529 2.529 0 1 0 2.68-4.29 2.529 2.529 0 0 0-2.68 4.29z"/>
    <path fill="#695942" d="M373.472 275.206c-4.142 0-7.5 3.108-7.5-1.034a7.5 7.5 0 0 1 15 0c0 4.142-3.358 1.034-7.5 1.034zm389.12 70.391c-4.143 0-7.5 3.109-7.5-1.034a7.5 7.5 0 1 1 15 0c0 4.143-3.359 1.034-7.5 1.034zm661.5 86.782c-4.143 0-7.5 3.109-7.5-1.033a7.5 7.5 0 1 1 15 0c0 4.142-3.359 1.033-7.5 1.033zm42-194.173c-4.143 0-7.5 3.108-7.5-1.034a7.5 7.5 0 1 1 15 0c0 4.142-3.359 1.034-7.5 1.034zm-159.783-37.653c-4.142 0-7.5 3.108-7.5-1.034a7.5 7.5 0 0 1 15 0c0 4.142-3.358 1.034-7.5 1.034zm-793.263 117.03c-1.21-3.961-5.165-6.264-1.204-7.475a7.5 7.5 0 1 1 4.386 14.345c-3.962 1.21-1.97-2.91-3.182-6.87zm-485.07-73.93c-1.21-3.96-5.165-6.263-1.204-7.474a7.5 7.5 0 0 1 4.386 14.345c-3.961 1.21-1.97-2.91-3.181-6.87zm1324.937 47.687c-1.21-3.962-5.165-6.264-1.204-7.475a7.5 7.5 0 1 1 4.385 14.345c-3.96 1.21-1.97-2.91-3.18-6.87zm-905.058 183.5c-1.211-3.962-5.166-6.264-1.204-7.475a7.5 7.5 0 0 1 4.385 14.345c-3.961 1.21-1.97-2.91-3.181-6.87zm574-118.456c-1.211-3.961-5.166-6.264-1.204-7.475a7.5 7.5 0 1 1 4.385 14.345c-3.961 1.211-1.97-2.909-3.181-6.87zm142 157.956c-1.211-3.962-5.166-6.264-1.204-7.475a7.5 7.5 0 1 1 4.385 14.345c-3.961 1.21-1.97-2.91-3.181-6.87zm-448.5-303c-1.211-3.962-5.166-6.264-1.204-7.475a7.5 7.5 0 0 1 4.385 14.345c-3.961 1.21-1.97-2.91-3.181-6.87zM261.55 333.022c.719 4.08 4.363 6.846.284 7.566a7.5 7.5 0 0 1-2.605-14.772c4.08-.72 1.601 3.127 2.32 7.206zm639.747 103.23c.719 4.08 4.363 6.847.284 7.566a7.5 7.5 0 0 1-2.605-14.772c4.08-.72 1.602 3.128 2.32 7.207z"/>
    <path fill="#8D795C" d="M1248.632 244.553c4.142 0 7.5 3.108 7.5-1.034a7.5 7.5 0 0 0-15 0c0 4.142 3.358 1.034 7.5 1.034zm-389.12 70.39c4.143 0 7.5 3.11 7.5-1.033a7.5 7.5 0 1 0-15 0c0 4.142 3.358 1.034 7.5 1.034zm-661.5 86.783c4.143 0 7.5 3.109 7.5-1.034a7.5 7.5 0 1 0-15 0c0 4.143 3.358 1.034 7.5 1.034zm-42-194.173c4.143 0 7.5 3.108 7.5-1.034a7.5 7.5 0 1 0-15 0c0 4.142 3.358 1.034 7.5 1.034zm159.783-37.654c4.142 0 7.5 3.109 7.5-1.033a7.5 7.5 0 1 0-15 0c0 4.142 3.358 1.033 7.5 1.033zm793.263 117.03c1.21-3.96 5.165-6.263 1.204-7.474a7.5 7.5 0 1 0-4.386 14.345c3.962 1.21 1.97-2.91 3.182-6.87zM1594.128 213c1.21-3.96 5.165-6.263 1.204-7.474a7.5 7.5 0 0 0-4.386 14.344c3.961 1.211 1.97-2.908 3.181-6.87zM269.19 260.686c1.21-3.96 5.165-6.263 1.204-7.474a7.5 7.5 0 0 0-4.385 14.344c3.96 1.211 1.97-2.909 3.18-6.87zm905.058 183.5c1.211-3.96 5.166-6.263 1.204-7.474a7.5 7.5 0 0 0-4.385 14.344c3.961 1.211 1.97-2.909 3.181-6.87zm-574-118.455c1.211-3.961 5.166-6.264 1.204-7.475a7.5 7.5 0 1 0-4.385 14.345c3.961 1.21 1.97-2.91 3.181-6.87zm-142 157.955c1.211-3.96 5.166-6.263 1.204-7.474a7.5 7.5 0 1 0-4.385 14.344c3.961 1.211 1.97-2.909 3.181-6.87zm448.5-303c1.211-3.96 5.166-6.263 1.204-7.474a7.5 7.5 0 0 0-4.385 14.344c3.961 1.211 1.97-2.909 3.181-6.87zm453.804 121.683c-.719 4.079-4.363 6.846-.284 7.565a7.5 7.5 0 0 0 2.605-14.772c-4.08-.719-1.601 3.128-2.32 7.207zm-639.747 103.23c-.72 4.08-4.363 6.847-.284 7.566a7.5 7.5 0 0 0 2.605-14.772c-4.08-.72-1.602 3.127-2.32 7.206z"/>
    <g fill-rule="nonzero">
      <path fill="#BAC68E" d="M1509.078 302.24v-58.866c-4.112 8.74-7.72 14.447-10.887 17.17-4.164 3.58-10.78 5.077-19.823 4.585l.136-2.496c8.459.46 14.469-.9 18.057-3.985 3.378-2.905 7.584-10.043 12.517-21.339v-26.69h-23.286c-15.628 0-22.948 12.314-21.927 37.688l-2.498.1c-1.071-26.61 7.06-40.289 24.425-40.289h23.286v-43.834c-4.112 8.74-7.72 14.448-10.887 17.17-4.164 3.58-10.78 5.077-19.823 4.585l.136-2.496c8.459.46 14.469-.9 18.057-3.985 3.378-2.904 7.584-10.042 12.517-21.338V95.77c-4.112 8.74-7.72 14.448-10.887 17.17-.234.202-.477.397-.727.586 1.049 26.553-7.083 40.2-24.43 40.2H1446v-2.5h27.035c15.316 0 22.653-11.829 21.979-36.187-4.082 2.054-9.635 2.869-16.646 2.487l.136-2.496c8.459.46 14.469-.9 18.057-3.985 3.378-2.905 7.584-10.043 12.517-21.338V31.073h5V89.39c5.34 11.047 9.888 18.29 13.575 21.683 3.852 3.544 9.46 4.886 16.914 3.964l.307 2.481c-8.128 1.005-14.463-.51-18.914-4.606-3.418-3.145-7.365-9.104-11.882-17.909v35.136h24.535c17.366 0 25.496 13.678 24.426 40.29l-2.498-.1c1.02-25.375-6.3-37.69-21.928-37.69h-24.535v25.265c5.34 11.046 9.888 18.29 13.575 21.682 3.852 3.545 9.46 4.886 16.914 3.965l.307 2.48c-8.128 1.005-14.463-.51-18.914-4.605-3.418-3.146-7.365-9.105-11.882-17.91v15.457l.092.004c-.053 1.31-.083 2.584-.092 3.824v1.369c.149 21.863 7.498 32.496 22.02 32.496h27.034v2.5h-15.903c-.23 11.554 3.239 16.995 10.376 16.995h13.517v2.5h-13.517c-8.823 0-13.104-6.723-12.876-19.495h-8.632c-11.13 0-18.467-5.62-22.019-16.662v34.49c5.34 11.046 9.888 18.29 13.575 21.682 3.852 3.544 9.46 4.886 16.914 3.964l.307 2.481c-8.128 1.005-14.463-.51-18.914-4.606-3.418-3.145-7.365-9.104-11.882-17.909v21.612l.092.004c-.053 1.31-.083 2.584-.092 3.824v1.37c.149 21.862 7.498 32.495 22.02 32.495h27.034v2.5h-27.035c-11.13 0-18.467-5.62-22.019-16.662v25.208l.045.002a57.59 57.59 0 0 0-.045 1.771v.97c.102 10.497 3.573 15.453 10.384 15.453h13.518v2.5h-13.518c-4.808 0-8.268-1.997-10.384-5.883v19.409h-5v-36.625c-3.89 8.854-10.812 13.352-20.77 13.352h-27.035v-2.5h27.035c11.176 0 18.104-6.298 20.77-19.166zM94.078 299.813v-58.866c-4.112 8.74-7.72 14.448-10.887 17.17-4.164 3.58-10.78 5.078-19.823 4.585l.136-2.496c8.459.46 14.469-.9 18.057-3.985 3.378-2.904 7.584-10.042 12.517-21.338v-26.691H70.792c-15.628 0-22.948 12.315-21.927 37.689l-2.498.1c-1.071-26.611 7.06-40.29 24.425-40.29h23.286v-43.833c-4.112 8.74-7.72 14.447-10.887 17.17-4.164 3.58-10.78 5.077-19.823 4.585l.136-2.496c8.459.46 14.469-.9 18.057-3.985 3.378-2.905 7.584-10.043 12.517-21.338v-62.45c-4.112 8.74-7.72 14.448-10.887 17.17-.234.202-.477.397-.727.585 1.049 26.553-7.083 40.2-24.43 40.2H31v-2.5h27.035c15.316 0 22.653-11.828 21.979-36.186-4.082 2.054-9.635 2.868-16.646 2.487l.136-2.497c8.459.46 14.469-.9 18.057-3.985 3.378-2.904 7.584-10.042 12.517-21.338V28.647h5v58.317c5.34 11.046 9.888 18.29 13.575 21.682 3.852 3.545 9.46 4.886 16.914 3.965l.307 2.48c-8.128 1.006-14.463-.51-18.914-4.605-3.418-3.145-7.365-9.105-11.882-17.91v35.137h24.535c17.366 0 25.496 13.678 24.426 40.29l-2.498-.1c1.02-25.375-6.3-37.69-21.928-37.69H99.078v25.264c5.34 11.047 9.888 18.29 13.575 21.683 3.852 3.544 9.46 4.886 16.914 3.964l.307 2.481c-8.128 1.005-14.463-.51-18.914-4.606-3.418-3.145-7.365-9.104-11.882-17.909v15.457l.092.003c-.053 1.31-.083 2.584-.092 3.824v1.37c.149 21.862 7.498 32.495 22.02 32.495h27.034v2.5H132.23c-.23 11.555 3.239 16.995 10.376 16.995h13.517v2.5h-13.517c-8.823 0-13.104-6.723-12.876-19.495h-8.632c-11.13 0-18.467-5.619-22.019-16.662v34.49c5.34 11.046 9.888 18.29 13.575 21.682 3.852 3.545 9.46 4.886 16.914 3.965l.307 2.48c-8.128 1.005-14.463-.51-18.914-4.605-3.418-3.146-7.365-9.105-11.882-17.91v21.613l.092.003c-.053 1.31-.083 2.585-.092 3.825v1.369c.149 21.863 7.498 32.496 22.02 32.496h27.034v2.5h-27.035c-11.13 0-18.467-5.62-22.019-16.663v25.208l.045.002c-.024.606-.04 1.197-.045 1.772v.97c.102 10.497 3.573 15.453 10.384 15.453h13.518v2.5h-13.518c-4.808 0-8.268-1.998-10.384-5.883v19.409h-5v-36.626c-3.89 8.855-10.812 13.352-20.77 13.352H46.273v-2.5h27.035c11.176 0 18.104-6.298 20.77-19.166zM819.15 104.112c2.793 2.816 4.778 6.497 6.077 10.822 1.559 5.193 1.968 10.565 1.754 15.13-.018.367-.036.633-.049.785l-4.565-.39c.008-.096.022-.303.036-.611.192-4.091-.18-8.983-1.565-13.596-.56-1.866-1.26-3.568-2.107-5.086-7.213 6.866-11.736 12.99-13.579 18.334-2.066 5.991-3.18 13.891-3.33 23.689l-2.291-.035c.153-10.021 1.3-18.152 3.455-24.401 2.01-5.827 6.843-12.332 14.489-19.553a15.554 15.554 0 0 0-3.252-3.317c-3.163-2.36-6.73-4.029-13.808-6.76-.344-.134-.752-.29-1.506-.581-2.757-1.062-5.145-2.032-7.223-2.965 1.42 6.598 1.548 18.211.553 35.144l-2.287-.134c1.092-18.6.717-30.839-.863-36.24-2.732-1.373-4.823-2.719-6.477-4.23-7.633 5.496-12.746 9.829-15.286 12.917-1 1.216-1.95 2.491-2.858 3.826-2.286 3.358-4.176 6.873-6.046 10.986-.04.088-2.85 6.564-3.444 7.604-2.62 4.592-4.078 17.343-4.15 37.782l-4.582-.016c.063-17.779 1.124-29.907 3.317-36.66-6.621.472-12.138 2.161-16.562 5.056-5.275 3.452-9.429 8.828-12.46 16.16l-2.117-.875c3.198-7.737 7.637-13.481 13.322-17.202 5.013-3.28 11.26-5.105 18.725-5.49.17-.366.346-.708.527-1.025.448-.786 3.085-6.863 3.253-7.231 1.97-4.332 3.977-8.065 6.428-11.667.427-.628.863-1.244 1.31-1.85-7.468-.51-15.936-.414-25.402.29-10.638.79-18.925 6.17-24.953 16.23l-1.965-1.178c6.4-10.682 15.347-16.49 26.748-17.337 10.217-.76 19.302-.819 27.257-.176l.113-.137c2.819-3.428 8.099-7.916 15.891-13.541a18.788 18.788 0 0 1-.915-1.672c-3.68-7.582-5.022-25.428-4.21-53.992l4.581.13c-.79 27.769.522 45.207 3.752 51.861 2.197 4.527 6.55 7.07 17.67 11.356l1.51.581c5.993 2.314 9.642 3.924 12.715 5.863 7.904 1.777 14.99 3.897 21.26 6.36 7.668 3.012 13.983 12.663 19.105 28.89l-2.185.69c-4.933-15.628-10.906-24.756-17.757-27.447-4.844-1.903-10.196-3.6-16.054-5.091zM1415.726 97.202a10.164 10.164 0 0 0-2.125-2.168c-2.066-1.541-4.397-2.632-9.023-4.417l-.984-.38c-5.315-2.048-8.53-3.57-10.65-5.505-4.987 3.591-8.328 6.423-9.988 8.441a34.379 34.379 0 0 0-1.868 2.5c-1.493 2.194-2.728 4.491-3.95 7.179-.027.057-1.863 4.29-2.251 4.969-1.712 3-2.665 11.333-2.712 24.689l-2.994-.01c.04-11.618.734-19.543 2.167-23.956-4.327.308-7.931 1.412-10.823 3.304-3.446 2.255-6.161 5.768-8.141 10.56l-1.384-.572c2.09-5.056 4.99-8.81 8.706-11.24 3.276-2.145 7.358-3.337 12.236-3.588.11-.24.226-.463.344-.67.293-.514 2.016-4.485 2.125-4.726 1.288-2.83 2.6-5.27 4.201-7.624a37.363 37.363 0 0 1 2.03-2.717c1.843-2.24 5.293-5.173 10.385-8.849-.214-.346-.412-.71-.598-1.092-2.404-4.954-3.281-16.617-2.75-35.282l2.993.085c-.516 18.146.341 29.541 2.451 33.89 1.436 2.958 4.28 4.62 11.548 7.42l.986.38c4.877 1.882 7.378 3.053 9.735 4.811a13.14 13.14 0 0 1 2.748 2.792l-.055-.566c5.502-.54 11.873-.54 19.114-.001 7.45.553 13.297 4.349 17.48 11.33l-1.285.769c-3.736-6.236-8.802-9.72-15.246-10.503 1.87 3.084 2.262 11.59 1.419 25.953l-1.495-.088c.926-15.773.237-24.546-1.69-25.637l.208-.367c-6.734-.48-12.686-.484-17.855-.013.862 1.372 1.542 2.932 2.057 4.646 1.019 3.394 1.286 6.904 1.146 9.886-.011.24-.023.414-.031.514l-2.984-.255c.005-.062.014-.198.024-.4.125-2.673-.118-5.87-1.023-8.884-.366-1.22-.823-2.331-1.377-3.323-4.713 4.486-7.669 8.488-8.873 11.98-1.35 3.916-2.079 9.078-2.177 15.48l-1.497-.023c.1-6.548.85-11.86 2.258-15.945 1.314-3.808 4.472-8.058 9.468-12.777zM1284.387 89.464a10.164 10.164 0 0 1 2.125-2.168c2.067-1.542 4.397-2.632 9.023-4.418l.984-.379c4.167-1.605 7.043-2.887 9.112-4.299l-.198.528c5.654 7.594 9.41 13.537 11.225 17.707a81.24 81.24 0 0 1 1.936 4.894c1.547 4.297 2.827 8.794 4.094 14.055.027.113 1.93 8.399 2.332 9.73 1.773 5.874 2.761 22.187 2.81 48.335l3.103-.02c-.017-9.097-.142-17.038-.381-23.845 4.342.304 7.958 1.41 10.857 3.306 3.447 2.256 6.161 5.769 8.142 10.56l1.383-.572c-2.09-5.056-4.99-8.81-8.705-11.24-3.163-2.07-7.077-3.253-11.733-3.558-.492-12.745-1.405-21.315-2.78-25.872-.304-1.005-2.09-8.78-2.204-9.25-1.333-5.542-2.693-10.318-4.353-14.927a88.299 88.299 0 0 0-2.104-5.32c-1.89-4.341-5.413-10.012-10.603-17.108.472-.613.876-1.277 1.232-2.011 2.405-4.955 3.282-16.617 2.75-35.282l-2.993.085c.517 18.146-.34 29.54-2.45 33.89-1.437 2.958-4.28 4.62-11.548 7.42l-.986.38c-4.877 1.882-7.378 3.053-9.735 4.81a13.14 13.14 0 0 0-2.749 2.793l.056-.566c-5.503-.54-11.874-.54-19.115-.002-7.45.554-13.296 4.35-17.479 11.33l1.284.77c3.737-6.236 8.802-9.72 15.247-10.503-1.87 3.084-2.262 11.59-1.42 25.953l1.496-.088c-.927-15.773-.237-24.546 1.69-25.637l-.208-.368c6.734-.48 12.686-.484 17.855-.013-.863 1.373-1.543 2.932-2.057 4.647-1.02 3.393-1.287 6.904-1.146 9.886.01.24.023.414.031.514l2.984-.255a11.876 11.876 0 0 1-.024-.4c-.126-2.673.118-5.87 1.023-8.884.366-1.22.823-2.332 1.376-3.323 4.714 4.486 7.67 8.488 8.874 11.98 1.35 3.915 2.078 9.077 2.176 15.48l1.497-.023c-.1-6.548-.85-11.861-2.258-15.945-1.313-3.808-4.471-8.058-9.468-12.777zM520.064 131.695l33.748 23.873-1.073 1.518-32.675-23.113v60.048h-5.553v-20.303c-3.789.38-6.47 1.569-8.079 3.53-2.017 2.46-2.814 5.407-2.392 8.904l-1.846.223c-.48-3.988.454-7.444 2.8-10.305 1.986-2.421 5.171-3.814 9.517-4.219V144.04c-5.29.628-9.7 2.153-13.24 4.568-4.039 2.755-6.811 8.629-8.238 17.664l-1.836-.29c1.498-9.492 4.48-15.809 9.026-18.91 3.852-2.627 8.618-4.26 14.288-4.904V122.45c-4.542.206-7.689 1.435-9.491 3.632-2.017 2.459-2.814 5.406-2.393 8.903l-1.845.223c-.48-3.988.453-7.444 2.8-10.305 2.195-2.676 5.855-4.096 10.929-4.314V94.324l-30.86 21.83-1.075-1.518 31.935-22.59V27.422h5.553v32.524l33.748 25.35-1.116 1.486-32.632-24.51v46.263c5.49.54 10.082 2.061 13.764 4.573 4.176 2.849 6.916 8.652 8.292 17.372l-1.687.266c-1.31-8.3-3.857-13.697-7.567-16.227-3.394-2.315-7.658-3.74-12.802-4.267v21.444zm26.09 49.431l-1.836.29c-1.426-9.034-4.199-14.909-8.237-17.664-4.143-2.825-9.477-4.433-16.017-4.81l.107-1.856c6.858.395 12.515 2.1 16.957 5.13 4.547 3.102 7.528 9.419 9.027 18.91zM641.336 126.426l30.91 21.865-.983 1.39-29.927-21.17v55h-5.086v-18.596c-3.47.348-5.926 1.437-7.4 3.234-1.847 2.252-2.577 4.952-2.191 8.155l-1.69.203c-.44-3.652.415-6.817 2.565-9.438 1.818-2.217 4.735-3.493 8.716-3.864v-25.474c-4.845.575-8.884 1.973-12.127 4.184-3.699 2.524-6.239 7.904-7.545 16.179l-1.682-.266c1.372-8.693 4.103-14.479 8.267-17.32 3.529-2.406 7.894-3.9 13.087-4.49v-32.392c-4.16.19-7.043 1.314-8.693 3.327-1.848 2.252-2.578 4.951-2.192 8.154l-1.69.204c-.44-3.653.415-6.817 2.565-9.438 2.01-2.451 5.362-3.752 10.01-3.951V65.226L607.984 85.22 607 83.83l29.25-20.69V30.92h5.086v20.988c7.777.708 14.266 2.823 19.45 6.36 5.772 3.937 9.558 11.957 11.46 24.008l-2.331.368c-1.81-11.47-5.331-18.929-10.459-22.426-4.784-3.264-10.819-5.248-18.12-5.94v29.26l31.556 23.703-1.023 1.362-30.533-22.935v40.758zm23.897 45.274l-1.682.266c-1.307-8.275-3.846-13.655-7.545-16.179-3.795-2.588-8.68-4.06-14.67-4.406l.098-1.7c6.28.362 11.463 1.924 15.531 4.7 4.164 2.84 6.895 8.626 8.268 17.32zM377.633 118.485a27.547 27.547 0 0 0-1.692 2.058c-4.814 6.506-7.856 18.173-8.982 34.937l-4.478-.3c1.18-17.545 4.415-29.958 9.853-37.306 1.455-1.966 3.35-3.98 5.69-6.043-17.912-1.796-29.439-.602-34.45 3.427-5.339 4.291-8.086 8.768-8.334 13.445l-2.24-.119c.285-5.386 3.37-10.415 9.168-15.075 5.833-4.69 18.534-5.858 38.246-3.682 5.684-4.542 13.45-9.325 23.308-14.382-4.19-7.332-6.049-25.423-5.809-54.78l4.487.037c-.233 28.606 1.6 46.307 5.259 52.587 2.29 3.93 7.493 7.31 17.516 12.068 1.06.503 4.865 2.285 5.645 2.654 1.333.63 2.467 1.18 3.49 1.69 12.952-.615 22.423 2.78 28.315 10.246 6.438 8.158 10.925 16.759 13.45 25.796l-2.16.604c-2.444-8.743-6.792-17.079-13.052-25.01-4.788-6.068-12.255-9.232-22.468-9.452 2.264 1.316 3.983 2.551 5.265 3.833 5.184 5.187 7.539 13.337 7.21 24.341l-4.484-.133c.263-8.84-1.323-15.355-4.653-19.623-8.19 7.875-13.016 14.418-14.484 19.552-1.581 5.53-2.047 13.34-1.378 23.409l-2.238.148c-.685-10.304-.205-18.354 1.459-24.174 1.603-5.608 6.65-12.45 15.134-20.599-1.304-1.217-3.33-2.526-6.187-4.033-1.427-.753-3.018-1.536-5.14-2.54-.767-.363-4.575-2.145-5.648-2.655-2.568-1.22-4.845-2.355-6.864-3.445v30.994H411.9v-33.62c-2.206-1.42-3.981-2.812-5.409-4.271-12.017 6.118-20.813 11.773-26.36 16.902-1.584 14.455.21 23.982 5.23 28.585 6.276 5.752 9.306 14.624 9.139 26.538l-2.244-.032c.16-11.324-2.66-19.582-8.41-24.852-5.32-4.876-7.35-14.118-6.213-27.725zM977.512 96.667V36.793h2.755V92.06c2.623-.01 5.648.989 9.083 2.974 2.82 1.63 4.283 3.757 5.895 7.663a103.724 103.724 0 0 1 .43 1.056c1.215 2.993 1.937 4.325 3.22 5.534 1.573 1.484 4.378 2.088 8.332 2.03 1.422-.02 2.82-.115 4.835-.3 3.469-.318 3.358-.31 4.194-.31 2.88 0 5.569 2.998 8.216 8.866l-1.256.567c-2.441-5.412-4.811-8.055-6.96-8.055-.77 0-.688-.006-4.068.304-2.047.188-3.475.284-4.941.306-4.284.062-7.39-.607-9.298-2.406-1.473-1.388-2.263-2.846-3.55-6.018l-.213-.525-.214-.523c-1.507-3.65-2.816-5.553-5.312-6.996-3.247-1.878-6.047-2.8-8.393-2.79v18.14c3.482.772 6.293 2.086 8.415 3.961 2.464 2.177 4.143 6.988 5.231 14.53l-2.727.393c-1-6.93-2.507-11.249-4.329-12.858-1.63-1.44-3.823-2.51-6.59-3.196v40.061h-2.755v-23.394c-1.941 2.862-3.84 4.563-5.737 5.091-2.427.677-4.961.677-7.591.004l.341-1.335c2.401.614 4.69.614 6.88.004 1.861-.518 3.919-2.628 6.107-6.35V99.426c-7.982.38-12.616 2.204-14.022 5.215-4.386 9.392-7.368 13.568-12.7 14.998-4.063 1.09-10.155 1.09-18.334.036l.352-2.733c7.853 1.012 13.628 1.012 17.268.035 4.207-1.128 6.9-4.897 10.917-13.502 1.968-4.215 7.515-6.397 16.519-6.807zM895.332 78.614V25.21h2.458v49.294c2.34-.01 5.038.882 8.101 2.653 2.515 1.454 3.82 3.35 5.258 6.835.06.143.12.292.194.472l.19.469c1.083 2.67 1.727 3.858 2.871 4.936 1.404 1.323 3.905 1.862 7.432 1.81 1.268-.018 2.516-.102 4.313-.267 3.094-.284 2.994-.276 3.74-.276 2.57 0 4.967 2.673 7.328 7.908l-1.12.505c-2.177-4.827-4.291-7.184-6.208-7.184-.687 0-.613-.006-3.628.27-1.825.168-3.1.254-4.407.273-3.821.056-6.591-.54-8.293-2.145-1.314-1.239-2.019-2.539-3.167-5.368l-.19-.468a91.262 91.262 0 0 0-.19-.467c-1.344-3.256-2.512-4.953-4.738-6.24-2.897-1.674-5.394-2.497-7.486-2.487v16.179c3.105.688 5.612 1.86 7.505 3.532 2.198 1.942 3.696 6.233 4.666 12.96l-2.432.35c-.892-6.181-2.237-10.033-3.861-11.468-1.454-1.285-3.41-2.24-5.878-2.85v35.731h-2.458v-20.865c-1.73 2.552-3.425 4.069-5.117 4.54-2.164.604-4.425.604-6.77.004l.304-1.19c2.142.547 4.184.547 6.137.003 1.66-.463 3.495-2.345 5.446-5.663V81.074c-7.118.339-11.252 1.965-12.506 4.651-3.912 8.377-6.572 12.102-11.327 13.377-3.624.972-9.058.972-16.353.032l.314-2.438c7.004.903 12.155.903 15.402.032 3.752-1.006 6.154-4.368 9.737-12.043 1.756-3.76 6.703-5.706 14.733-6.071z"/>
      <path fill="#BAC68E" d="M1198.046 218.984c-10.184-.1-17.08 1.31-20.639 4.172-5.258 4.226-7.963 8.636-8.207 13.242l-.058 1.103-2.207-.117.058-1.103c.28-5.305 3.32-10.258 9.03-14.848 5.566-4.475 17.483-5.694 35.877-3.816v-63.078c-4.225 3.116-7.361 6.06-9.404 8.82-4.742 6.408-7.738 17.9-8.847 34.41l-.148 2.205-4.41-.296.149-2.205c1.16-17.28 4.348-29.505 9.703-36.743 5.229-7.065 16.243-14.747 33.106-23.202l.306-.153c-.385-3.904-.536-8.195-.458-12.875l.038-78 4.418.074-.037 78c-.227 13.514 1.533 23.42 5.18 29.676 2.256 3.872 7.38 7.2 17.251 11.887 1.044.496 4.792 2.25 5.56 2.613 2.141 1.014 3.76 1.81 5.232 2.587 3.369 1.776 5.76 3.35 7.414 5.005a19.659 19.659 0 0 1 1.784 2.053c14.56-1.428 25.063 1.825 31.383 9.834 6.342 8.035 10.76 16.506 13.249 25.407l.297 1.064-2.128.595-.298-1.064c-2.407-8.612-6.69-16.822-12.854-24.633-5.627-7.13-15.008-10.19-28.258-9.11 1.029 1.764 1.855 3.742 2.48 5.927.771 2.697 1.24 7.248 1.447 13.764l.07 2.21-4.417.14-.07-2.21c-.196-6.173-.636-10.44-1.279-12.688-.976-3.412-2.49-6.122-4.531-8.165-1.27-1.27-3.342-2.633-6.35-4.22-1.406-.741-2.973-1.512-5.062-2.501-.756-.358-4.506-2.114-5.564-2.616-7.606-3.61-12.621-6.482-15.922-9.611-2.212 16.082-.57 26.558 4.746 31.43 6.18 5.665 9.165 14.403 9 26.137l-.015 1.105-2.21-.03.016-1.106c.122-8.735-1.555-15.618-5.008-20.685-8.602 8.132-13.648 14.858-15.146 20.095-1.557 5.447-2.016 13.14-1.357 23.056l.074 1.103-2.205.146-.073-1.102c-.675-10.149-.202-18.078 1.437-23.81 1.642-5.745 6.954-12.804 15.928-21.26a21.48 21.48 0 0 0-1.934-2.02c-6.206-5.688-7.865-17.409-5.182-35.16a16.76 16.76 0 0 1-1.324-1.942c-2.21-3.793-3.78-8.609-4.724-14.453-6.49 3.29-12.035 6.446-16.633 9.456v108.376c8.33 8.009 13.288 14.734 14.865 20.248 1.638 5.732 2.111 13.661 1.437 23.81l-.073 1.102-2.205-.146.073-1.103c.659-9.916.2-17.609-1.357-23.055-1.352-4.73-5.597-10.672-12.74-17.767v13.538h-4.42v-56.643c-4.227-.436-8.099-.705-11.613-.809 2.567 17.447.879 28.986-5.263 34.616-5.663 5.19-8.44 13.324-8.284 24.478l.015 1.104-2.21.031-.015-1.104c-.164-11.735 2.82-20.473 9-26.138 5.49-5.032 7.063-16.042 4.516-33.032zM1047.111 181.518c-10.184-.1-17.08 1.31-20.64 4.171-5.257 4.227-7.963 8.637-8.206 13.242l-.058 1.104-2.207-.117.058-1.103c.28-5.305 3.32-10.258 9.03-14.848 5.566-4.475 17.482-5.695 35.877-3.816v-63.078c-4.225 3.115-7.362 6.06-9.404 8.82-4.742 6.408-7.738 17.9-8.847 34.41l-.148 2.205-4.41-.297.149-2.204c1.16-17.28 4.348-29.506 9.703-36.743 5.229-7.065 16.243-14.747 33.106-23.202l.306-.153c-.385-3.904-.536-8.195-.458-12.875l.038-78 4.418.074-.037 78c-.227 13.514 1.533 23.42 5.18 29.676 2.256 3.872 7.38 7.2 17.251 11.887 1.044.495 4.792 2.25 5.56 2.613 2.141 1.014 3.76 1.81 5.232 2.587 3.369 1.776 5.76 3.35 7.414 5.005a19.659 19.659 0 0 1 1.784 2.052c14.56-1.427 25.063 1.826 31.383 9.834 6.342 8.036 10.76 16.507 13.248 25.408l.298 1.064-2.128.595-.298-1.064c-2.407-8.612-6.69-16.822-12.854-24.634-5.627-7.13-15.008-10.189-28.258-9.11 1.029 1.765 1.855 3.742 2.48 5.928.771 2.696 1.24 7.248 1.447 13.764l.07 2.209-4.417.14-.07-2.209c-.196-6.173-.636-10.44-1.28-12.688-.975-3.413-2.488-6.122-4.53-8.165-1.27-1.27-3.342-2.634-6.35-4.22-1.406-.741-2.973-1.513-5.062-2.501-.756-.358-4.507-2.114-5.564-2.616-7.606-3.611-12.621-6.482-15.922-9.611-2.213 16.081-.57 26.558 4.746 31.43 6.18 5.665 9.164 14.403 9 26.137l-.016 1.105-2.21-.031.016-1.105c.123-8.735-1.554-15.618-5.007-20.685-8.602 8.132-13.648 14.857-15.146 20.095-1.557 5.447-2.016 13.14-1.357 23.056l.074 1.102-2.205.147-.074-1.103c-.674-10.148-.201-18.077 1.438-23.81 1.642-5.745 6.954-12.803 15.928-21.26a21.477 21.477 0 0 0-1.934-2.02c-6.206-5.687-7.866-17.408-5.182-35.16a16.76 16.76 0 0 1-1.324-1.94c-2.21-3.794-3.78-8.61-4.724-14.454-6.49 3.29-12.035 6.446-16.633 9.455v108.377c8.33 8.009 13.288 14.733 14.865 20.248 1.638 5.732 2.111 13.661 1.437 23.81l-.073 1.102-2.205-.146.073-1.103c.659-9.916.2-17.61-1.357-23.056-1.352-4.729-5.597-10.67-12.74-17.766v13.538h-4.42v-56.643c-4.227-.436-8.099-.705-11.613-.81 2.567 17.448.879 28.987-5.264 34.617-5.662 5.19-8.44 13.324-8.283 24.477l.015 1.105-2.21.031-.015-1.105c-.164-11.734 2.82-20.472 9-26.137 5.49-5.032 7.063-16.042 4.516-33.032z"/>
      <path fill="#B7C38C" d="M253.524 364.048c-1.602 13.107-.105 21.7 4.349 25.782 5.389 4.94 7.99 12.559 7.847 22.79l-1.926-.027c.102-7.282-1.23-13.088-3.98-17.445-7.307 6.956-11.602 12.72-12.889 17.222-1.358 4.749-1.758 11.456-1.183 20.103l-1.923.128c-.588-8.85-.175-15.763 1.254-20.76 1.416-4.953 5.959-11.025 13.623-18.287a18.776 18.776 0 0 0-2.125-2.303c-4.915-4.506-6.56-13.351-5.066-26.535-5.682 1.524-14.202 1.524-25.64.05l.493-3.822c10.982 1.415 19.059 1.415 24.15.05.538-.145 1.058-.32 1.564-.528l.059-.382.59.092c4.69-2.259 8.172-7.61 13.054-18.065 2.595-5.556 9.634-8.587 20.977-9.397V83.028c-4.576 2.418-8.548 4.749-11.914 6.986v103.942h-3.853V92.732c-3.397 2.56-5.94 4.984-7.628 7.264-4.134 5.587-6.747 15.607-7.714 30.003l-3.845-.258c1.013-15.066 3.792-25.727 8.461-32.037 4.309-5.823 13.125-12.126 26.493-19.023V31.757h3.854v48.67l.246.492-.246.123v22.178c14.245 7.21 23.579 13.774 28.053 19.82 4.67 6.311 7.449 16.971 8.461 32.037l-3.845.259c-.967-14.396-3.58-24.416-7.713-30.003-3.858-5.214-12.192-11.18-24.956-17.785v72.385c7.415 7.089 11.82 13.032 13.211 17.895 1.43 4.998 1.841 11.911 1.253 20.76l-1.922-.128c.574-8.646.175-15.353-1.183-20.102-1.195-4.179-4.98-9.443-11.36-15.74v97.914c3.938-.366 8.57 1.016 13.908 4.103 3.944 2.28 5.99 5.254 8.245 10.717.093.224.188.458.303.74l.298.735c1.698 4.186 2.708 6.05 4.502 7.74 2.2 2.075 6.123 2.92 11.653 2.839 1.989-.03 3.945-.16 6.762-.42 4.851-.445 4.695-.432 5.865-.432 4.029 0 7.788 4.192 11.49 12.399l-1.757.792c-3.413-7.568-6.728-11.264-9.733-11.264-1.077 0-.962-.01-5.689.424-2.862.263-4.86.397-6.91.428-5.991.087-10.335-.848-13.003-3.364-2.06-1.942-3.165-3.981-4.965-8.417l-.298-.734c-.114-.28-.208-.51-.3-.731-2.106-5.105-3.937-7.766-7.427-9.784-5.112-2.956-9.43-4.218-12.943-3.834v44.304c3.937-.366 8.569 1.016 13.907 4.103 3.944 2.28 5.99 5.254 8.245 10.717.093.224.188.458.303.74l.298.735c1.698 4.186 2.708 6.05 4.502 7.74 2.2 2.075 6.123 2.92 11.653 2.84 1.989-.03 3.945-.161 6.762-.42 4.851-.446 4.695-.433 5.865-.433 4.029 0 7.788 4.192 11.49 12.399l-1.757.792c-3.413-7.568-6.728-11.264-9.733-11.264-1.077 0-.962-.01-5.689.424-2.862.263-4.86.397-6.91.428-5.991.088-10.335-.848-13.003-3.364-2.06-1.942-3.165-3.981-4.965-8.417l-.298-.734c-.114-.28-.208-.51-.3-.731-2.106-5.105-3.937-7.766-7.427-9.784-5.112-2.956-9.43-4.218-12.943-3.834v3.818l.148-.004.098 3.853a94.38 94.38 0 0 0-.246.006v18.603c5.037 1.067 9.09 2.93 12.13 5.618 3.446 3.044 5.795 9.772 7.317 20.319l-3.814.55c-1.399-9.692-3.507-15.731-6.054-17.982-2.351-2.077-5.537-3.603-9.58-4.557v16.528l.24.13-.24.437v40.62c11.99-.915 20.69 1.963 26.002 8.693 5.529 7.007 9.381 14.392 11.55 22.154l-1.855.518c-2.099-7.509-5.833-14.667-11.208-21.478-4.885-6.19-13.015-8.861-24.488-7.955v54.353h-3.854v-90.907c-2.259 2.91-4.483 4.68-6.705 5.298-3.394.946-6.938.946-10.615.006l.477-1.867c3.357.859 6.559.859 9.621.005 2.226-.62 4.652-2.867 7.222-6.76v-42.131c-9.864.741-15.647 3.226-17.485 7.163-5.558 11.902-9.504 17.814-15.743 20.307z"/>
      <path fill="#B7C38C" d="M212.357 207.943c11.548-.881 19.928 1.891 25.044 8.374 5.326 6.748 9.036 13.862 11.126 21.337l-1.787.5c-2.022-7.232-5.618-14.127-10.796-20.688-4.705-5.961-12.536-8.534-23.587-7.662v66.7l.237.475-.237.119v95.25c7.142 6.829 11.386 12.553 12.725 17.237 1.377 4.814 1.774 11.473 1.207 19.996l-1.851-.123c.553-8.328.168-14.788-1.14-19.363-1.15-4.024-4.796-9.095-10.941-15.16v63.732l.105-.21c14.163 7.1 23.413 13.551 27.804 19.485 4.497 6.078 7.174 16.346 8.15 30.857l-3.704.25c-.931-13.867-3.448-23.518-7.43-28.9-3.804-5.141-12.128-11.042-24.925-17.586v28.425h-3.712V279.01c-4.407 2.33-8.233 4.574-11.475 6.729v100.117h-3.712v-46.731c-3.509-.344-6.718-.547-9.625-.612 1.968 14.152.504 23.545-4.549 28.176-4.755 4.359-7.088 11.19-6.956 20.556l-1.856.026c-.138-9.854 2.368-17.193 7.558-21.95 4.512-4.136 5.873-13.078 3.926-26.83-8.148-.01-13.69 1.174-16.593 3.507-4.416 3.55-6.688 7.253-6.893 11.121l-1.853-.098c.235-4.455 2.788-8.615 7.583-12.469 4.586-3.687 14.305-4.743 29.258-3.292v-48.903c-3.271 2.465-5.722 4.8-7.347 6.997-3.982 5.382-6.498 15.032-7.43 28.898l-3.703-.248c.975-14.512 3.652-24.78 8.15-30.858 4.15-5.608 12.64-11.68 25.517-18.323V174.596c-2.175 2.803-4.318 4.507-6.458 5.103-3.269.91-6.683.91-10.225.005l.46-1.798c3.234.827 6.318.827 9.267.005 2.144-.597 4.481-2.762 6.956-6.51v-40.582c-9.5.714-15.071 3.108-16.842 6.9-5.352 11.463-9.154 17.158-15.163 19.56-1.543 12.623-.1 20.9 4.189 24.833 5.19 4.757 7.696 12.096 7.558 21.95l-1.855-.026c.098-7.014-1.185-12.606-3.833-16.802-7.039 6.7-11.175 12.251-12.415 16.588-1.308 4.574-1.693 11.034-1.14 19.363l-1.851.123c-.567-8.523-.17-15.183 1.207-19.996 1.364-4.77 5.74-10.62 13.121-17.614a18.085 18.085 0 0 0-2.046-2.218c-4.734-4.34-6.318-12.86-4.88-25.558-5.473 1.467-13.679 1.467-24.695.047l.474-3.68c10.578 1.362 18.358 1.362 23.26.047.519-.139 1.02-.307 1.507-.508l.057-.368.569.088c4.516-2.175 7.87-7.328 12.573-17.4 2.5-5.351 9.28-8.27 20.205-9.05v-81.05h3.712v75.327c3.792-.352 8.254.98 13.395 3.952 3.799 2.196 5.77 5.06 7.942 10.322.09.217.181.442.292.714l.287.708c1.636 4.031 2.609 5.826 4.336 7.455 2.12 1.998 5.898 2.812 11.224 2.734 1.916-.028 3.8-.155 6.514-.404 4.672-.429 4.522-.417 5.649-.417 3.88 0 7.5 4.038 11.066 11.943l-1.691.763c-3.288-7.29-6.481-10.85-9.375-10.85-1.038 0-.927-.009-5.48.41-2.757.253-4.681.382-6.656.41-5.77.085-9.954-.816-12.524-3.239-1.985-1.87-3.05-3.835-4.783-8.108l-.286-.706c-.11-.27-.2-.492-.289-.705-2.03-4.917-3.793-7.48-7.154-9.423-4.924-2.847-9.083-4.063-12.467-3.693v3.678l.143-.004.094 3.71-.237.007v17.918c4.852 1.027 8.755 2.823 11.685 5.41 3.318 2.933 5.58 9.413 7.047 19.572l-3.674.53c-1.347-9.336-3.378-15.152-5.83-17.32-2.266-2-5.335-3.47-9.228-4.39v15.92l.23.125a67.38 67.38 0 0 1-.23.421v39.125z"/>
    </g>
    <g stroke="#C5816B" stroke-linecap="round" stroke-width="6">
      <path d="M416.909 187c3.076 2.433 4.437 5.24 4.082 8.421-.533 4.773-11.709 4.605-9.764 12.622 1.944 8.016 7.287 5.21 13.272 7.684 3.99 1.648 3.835 6.903-.465 15.765M848.052 175.343c3.952-4.644 8.249-6.554 12.89-5.73 5.417.96 4.215 7.808 9.566 11.036 2.11 1.272 6.624 1.861 13.544 1.768M133 392.916c-3.952-4.643-8.249-6.553-12.89-5.73-5.417.96-4.215 7.808-9.566 11.036-2.11 1.272-6.624 1.862-13.544 1.768M1422 189.51c-3.952 4.644-8.249 6.554-12.89 5.73-5.417-.96-4.215-7.808-9.566-11.036-2.11-1.272-6.624-1.861-13.544-1.768"/>
    </g>
  </g>
</svg>
