<svg xmlns="http://www.w3.org/2000/svg" xmlnsXlink="http://www.w3.org/1999/xlink" viewBox="0 0 360 214">
  <defs>
    <path id="roots-scene-a" d="M0 0h360v215H0z" />
  </defs>
  <g fill="none" fillRule="evenodd">
    <mask id="roots-scene-b" fill="#fff">
      <use xlinkHref="#roots-scene-a" />
    </mask>
    <g mask="url(#roots-scene-b)">
      <path fill="#424135" d="M-166 .242h612.322v212.782H-166z" />
      <path fill="#36352C" d="M54.77 58.057c-1.407-.198-2.383-1.532-2.18-2.98.204-1.448 1.51-2.462 2.918-2.264 1.408.198 2.384 1.532 2.18 2.98-.203 1.448-1.51 2.462-2.917 2.264zM43.222 90.045c-.529-.074-.893-.594-.814-1.161.08-.568.574-.967 1.103-.893.53.074.894.595.814 1.162-.08.567-.573.967-1.103.892zm15.59-3.887c-1.167-.164-1.976-1.266-1.808-2.462.168-1.195 1.25-2.032 2.416-1.868 1.166.164 1.976 1.266 1.808 2.462-.168 1.195-1.25 2.032-2.417 1.868zm-10.303-3.526c-.62.387-1.372.303-1.679-.189-.307-.492-.054-1.204.566-1.592.62-.387 1.372-.303 1.68.19.307.49.053 1.203-.567 1.59zm8.36-2.093a1.324 1.324 0 1 1-1.403-2.245 1.324 1.324 0 0 1 1.403 2.245zm13.976 12.588a1.324 1.324 0 1 1-1.403-2.245 1.324 1.324 0 0 1 1.403 2.245zm-33.185-8.34a.968.968 0 1 1-1.026-1.641.968.968 0 0 1 1.026 1.641zm-2.49 35.732c-1.407-.198-2.383-1.532-2.18-2.98.204-1.448 1.51-2.461 2.918-2.263 1.407.197 2.383 1.532 2.18 2.98-.204 1.448-1.51 2.461-2.917 2.263zm19.826-8.55c-.53-.075-.894-.595-.814-1.163.08-.567.574-.967 1.103-.892.529.074.893.594.814 1.162-.08.567-.574.967-1.103.892zm31.858 36.518c-1.167-.164-1.976-1.266-1.808-2.461.168-1.196 1.25-2.032 2.416-1.868 1.167.164 1.976 1.266 1.808 2.461-.168 1.196-1.25 2.032-2.416 1.868zm-26.571-43.932c-.62.387-1.372.303-1.68-.19-.307-.49-.053-1.204.567-1.591s1.372-.303 1.679.189c.307.492.054 1.204-.566 1.592zm8.36-2.093a1.324 1.324 0 1 1-1.403-2.245 1.324 1.324 0 0 1 1.403 2.245zm13.975 12.588a1.324 1.324 0 1 1-1.403-2.246 1.324 1.324 0 0 1 1.403 2.246zm-33.185-8.34a.968.968 0 1 1-1.025-1.641.968.968 0 0 1 1.025 1.641zm-197.534-76.753c-1.408-.198-2.384-1.532-2.18-2.98.203-1.448 1.51-2.462 2.917-2.264 1.408.198 2.384 1.532 2.18 2.98-.203 1.448-1.51 2.462-2.917 2.264zm63.307 20.655c-.53-.074-.894-.594-.814-1.162.08-.567.573-.967 1.102-.892.53.074.894.594.814 1.162-.08.567-.573.967-1.102.892zm25.224-18.466c-1.166-.164-1.975-1.266-1.807-2.461.168-1.196 1.25-2.032 2.416-1.868 1.166.164 1.976 1.266 1.807 2.461-.168 1.196-1.25 2.032-2.416 1.868zM-79.509 43.2c-.62.387-1.371.303-1.679-.189-.307-.492-.053-1.204.567-1.592.62-.387 1.371-.303 1.679.189.307.492.053 1.204-.567 1.592zm8.36-2.093a1.324 1.324 0 1 1-1.403-2.245 1.324 1.324 0 0 1 1.403 2.245zm13.976 12.588a1.324 1.324 0 1 1-1.403-2.245 1.324 1.324 0 0 1 1.403 2.245zm-33.185-8.34a.968.968 0 1 1-1.026-1.641.968.968 0 0 1 1.026 1.641zm-3.457 55.96c-1.408-.197-2.384-1.532-2.18-2.98.203-1.447 1.51-2.46 2.917-2.263 1.408.198 2.384 1.532 2.18 2.98-.203 1.448-1.51 2.461-2.917 2.264zm20.793-28.779c-.529-.074-.893-.594-.814-1.162.08-.567.574-.967 1.103-.892.53.074.894.594.814 1.162-.08.567-.573.967-1.103.892zm15.59-3.887c-1.167-.164-1.976-1.266-1.808-2.462.168-1.196 1.25-2.032 2.416-1.868 1.166.164 1.976 1.266 1.808 2.462-.168 1.195-1.25 2.031-2.417 1.868zm-10.303-3.526c-.62.387-1.372.302-1.679-.19-.307-.491-.054-1.204.566-1.591s1.372-.303 1.68.189c.307.491.053 1.204-.567 1.592zm8.36-2.093a1.324 1.324 0 1 1-1.403-2.245 1.324 1.324 0 0 1 1.403 2.245zM-45.4 75.617a1.324 1.324 0 1 1-1.403-2.246 1.324 1.324 0 0 1 1.403 2.246zm-33.185-8.34a.968.968 0 1 1-1.026-1.641.968.968 0 0 1 1.026 1.641zM99.164 96.079c-1.407-.198-2.384-1.532-2.18-2.98.203-1.448 1.51-2.461 2.917-2.264 1.408.198 2.384 1.532 2.18 2.98-.203 1.448-1.509 2.462-2.917 2.264zm-11.55 31.989c-.529-.075-.893-.595-.813-1.162.08-.568.573-.967 1.103-.893.529.074.893.595.813 1.162-.08.567-.573.967-1.102.893zm15.59-3.888c-1.167-.164-1.976-1.266-1.808-2.462.168-1.195 1.25-2.031 2.416-1.867 1.167.163 1.976 1.266 1.808 2.461-.168 1.196-1.25 2.032-2.416 1.868zM92.9 120.654c-.62.387-1.371.303-1.679-.189-.307-.492-.053-1.204.567-1.592.62-.387 1.371-.303 1.679.19.307.49.053 1.204-.567 1.591zm8.36-2.093a1.324 1.324 0 1 1-1.403-2.245 1.324 1.324 0 0 1 1.403 2.245zm13.976 12.588a1.324 1.324 0 1 1-1.403-2.245 1.324 1.324 0 0 1 1.403 2.245zm-33.185-8.34a.968.968 0 1 1-1.026-1.64.968.968 0 0 1 1.026 1.64zm-2.489 35.732c-1.408-.198-2.384-1.532-2.18-2.98.203-1.448 1.51-2.461 2.917-2.263 1.408.198 2.384 1.532 2.18 2.98-.203 1.448-1.51 2.461-2.917 2.263zm19.825-8.55c-.529-.075-.893-.595-.814-1.163.08-.567.574-.967 1.103-.892.53.074.894.594.814 1.162-.08.567-.573.967-1.103.892zm31.858 36.518c-1.166-.163-1.976-1.265-1.808-2.461.168-1.196 1.25-2.032 2.417-1.868 1.166.164 1.975 1.266 1.807 2.462-.168 1.195-1.25 2.031-2.416 1.867zm-26.571-43.932c-.62.387-1.372.303-1.679-.19-.307-.49-.054-1.203.566-1.59.62-.388 1.372-.304 1.68.188.307.492.053 1.204-.567 1.592zm8.36-2.093a1.324 1.324 0 1 1-1.403-2.245 1.324 1.324 0 0 1 1.403 2.245zm13.976 12.588a1.324 1.324 0 1 1-1.403-2.245 1.324 1.324 0 0 1 1.403 2.245zm-33.185-8.34a.968.968 0 1 1-1.026-1.641.968.968 0 0 1 1.026 1.641zM-103.71 67.98c-1.407-.198-2.384-1.532-2.18-2.98.203-1.448 1.51-2.461 2.917-2.264 1.408.198 2.384 1.532 2.18 2.98-.203 1.448-1.509 2.462-2.917 2.264zm63.307 20.656c-.53-.075-.894-.595-.814-1.162.08-.568.574-.967 1.103-.893.53.074.894.595.814 1.162-.08.567-.574.967-1.103.893zm25.225-18.467c-1.167-.164-1.976-1.266-1.808-2.461.168-1.196 1.25-2.032 2.416-1.868 1.167.164 1.976 1.266 1.808 2.461-.168 1.196-1.25 2.032-2.416 1.868zm-19.938 11.053c-.62.387-1.372.303-1.68-.189-.306-.492-.053-1.204.567-1.592.62-.387 1.372-.303 1.679.19.307.49.054 1.204-.566 1.591zm8.36-2.093a1.324 1.324 0 1 1-1.403-2.245 1.324 1.324 0 0 1 1.403 2.245zm13.975 12.588a1.324 1.324 0 1 1-1.403-2.245 1.324 1.324 0 0 1 1.403 2.245zm-33.185-8.34a.968.968 0 1 1-1.025-1.641.968.968 0 0 1 1.025 1.641zm-3.457 55.96c-1.407-.197-2.384-1.531-2.18-2.98.203-1.447 1.51-2.46 2.917-2.263 1.408.198 2.384 1.532 2.18 2.98-.203 1.448-1.509 2.462-2.917 2.264zm20.794-28.779c-.53-.074-.894-.594-.814-1.162.08-.567.573-.967 1.102-.892.53.074.894.594.814 1.162-.08.567-.573.967-1.102.892zm15.589-3.887c-1.167-.164-1.976-1.266-1.808-2.462.168-1.195 1.25-2.032 2.416-1.868 1.167.164 1.976 1.266 1.808 2.462-.168 1.195-1.25 2.032-2.416 1.868zm-10.303-3.526c-.62.387-1.371.303-1.679-.19-.307-.49-.053-1.204.567-1.59.62-.388 1.371-.304 1.679.188.307.492.053 1.204-.567 1.592zm8.36-2.093a1.324 1.324 0 1 1-1.403-2.245 1.324 1.324 0 0 1 1.403 2.245zm13.976 12.588a1.324 1.324 0 1 1-1.403-2.245 1.324 1.324 0 0 1 1.403 2.245zm-33.185-8.34a.968.968 0 1 1-1.026-1.641.968.968 0 0 1 1.026 1.641zM380.42 62.695c-1.407-.198-2.384-1.532-2.18-2.98.203-1.448 1.51-2.461 2.917-2.263 1.408.198 2.384 1.532 2.18 2.98-.203 1.448-1.509 2.461-2.917 2.263zm-11.55 31.989c-.529-.074-.893-.595-.813-1.162.08-.567.573-.967 1.102-.893.53.075.894.595.814 1.162-.08.568-.573.967-1.102.893zm15.59-3.888c-1.167-.164-1.976-1.266-1.808-2.461.168-1.196 1.25-2.032 2.416-1.868 1.167.164 1.976 1.266 1.808 2.461-.168 1.196-1.25 2.032-2.416 1.868zm-10.303-3.526c-.62.388-1.371.303-1.679-.189-.307-.491-.053-1.204.567-1.591.62-.388 1.371-.303 1.679.189.307.491.053 1.204-.567 1.591zm8.36-2.093a1.324 1.324 0 1 1-1.403-2.245 1.324 1.324 0 0 1 1.403 2.245zm13.976 12.588a1.324 1.324 0 1 1-1.403-2.245 1.324 1.324 0 0 1 1.403 2.245zm-33.185-8.34a.968.968 0 1 1-1.026-1.64.968.968 0 0 1 1.026 1.64zm-2.49 35.733c-1.407-.198-2.383-1.532-2.18-2.98.204-1.448 1.51-2.462 2.918-2.264 1.408.198 2.384 1.532 2.18 2.98-.203 1.448-1.51 2.461-2.917 2.264zm19.826-8.551c-.529-.075-.893-.595-.814-1.162.08-.568.574-.967 1.103-.893.53.075.894.595.814 1.162-.08.567-.573.967-1.103.893zm31.858 36.519c-1.166-.164-1.976-1.266-1.808-2.462.168-1.195 1.25-2.032 2.417-1.868 1.166.164 1.975 1.266 1.807 2.462-.168 1.195-1.25 2.032-2.416 1.868zm-26.571-43.933c-.62.388-1.372.303-1.679-.189-.307-.491-.054-1.204.566-1.592.62-.387 1.372-.302 1.68.19.307.491.053 1.204-.567 1.591zm8.36-2.093a1.324 1.324 0 1 1-1.403-2.245 1.324 1.324 0 0 1 1.403 2.245zm13.976 12.588a1.324 1.324 0 1 1-1.403-2.245 1.324 1.324 0 0 1 1.403 2.245zm-33.185-8.34a.968.968 0 1 1-1.026-1.64.968.968 0 0 1 1.026 1.64zM177.547 34.596c-1.407-.198-2.384-1.532-2.18-2.98.203-1.448 1.51-2.461 2.917-2.263 1.408.198 2.384 1.532 2.18 2.98-.203 1.448-1.509 2.461-2.917 2.263zm63.307 20.656c-.53-.075-.894-.595-.814-1.162.08-.567.574-.967 1.103-.893.53.075.893.595.814 1.162-.08.568-.574.967-1.103.893zm25.225-18.466c-1.167-.164-1.976-1.266-1.808-2.462.168-1.195 1.25-2.032 2.416-1.868 1.166.164 1.976 1.266 1.808 2.462-.168 1.195-1.25 2.032-2.416 1.868zM246.14 47.837c-.62.388-1.372.303-1.68-.189-.306-.491-.053-1.204.567-1.591.62-.388 1.372-.303 1.679.188.307.492.054 1.205-.566 1.592zm8.36-2.093a1.324 1.324 0 1 1-1.403-2.245 1.324 1.324 0 0 1 1.403 2.245zm13.975 12.588a1.324 1.324 0 1 1-1.403-2.245 1.324 1.324 0 0 1 1.403 2.245zm-33.185-8.34a.968.968 0 1 1-1.025-1.64.968.968 0 0 1 1.025 1.64zm-3.457 55.961c-1.407-.198-2.384-1.532-2.18-2.98.203-1.448 1.51-2.461 2.917-2.264 1.408.198 2.384 1.532 2.18 2.98-.203 1.448-1.509 2.462-2.917 2.264zm20.794-28.78c-.53-.074-.894-.594-.814-1.161.08-.568.573-.967 1.102-.893.53.074.894.595.814 1.162-.08.567-.573.967-1.102.893zm15.589-3.887c-1.167-.164-1.976-1.266-1.808-2.462.168-1.195 1.25-2.031 2.416-1.867 1.167.163 1.976 1.266 1.808 2.461-.168 1.196-1.25 2.032-2.416 1.868zm-10.303-3.526c-.62.387-1.371.303-1.679-.189-.307-.492-.053-1.204.567-1.592.62-.387 1.371-.302 1.679.19.307.49.053 1.204-.567 1.591zm8.36-2.093a1.324 1.324 0 1 1-1.403-2.245 1.324 1.324 0 0 1 1.403 2.245zm13.976 12.588a1.324 1.324 0 1 1-1.403-2.245 1.324 1.324 0 0 1 1.403 2.245zm-33.185-8.34a.968.968 0 1 1-1.026-1.64.968.968 0 0 1 1.026 1.64zM321.514 73.878c-1.408-.198-2.384-1.532-2.18-2.98.203-1.448 1.509-2.461 2.917-2.264 1.407.198 2.384 1.532 2.18 2.98-.203 1.448-1.51 2.462-2.917 2.264zm-11.55 31.989c-.529-.075-.893-.595-.814-1.162.08-.568.574-.967 1.103-.893.53.074.894.595.814 1.162-.08.567-.573.967-1.103.893zm15.59-3.888c-1.167-.164-1.976-1.266-1.808-2.462.168-1.195 1.25-2.031 2.416-1.867 1.166.163 1.976 1.265 1.808 2.461-.169 1.196-1.25 2.032-2.417 1.868zm-10.303-3.526c-.62.387-1.372.303-1.679-.189-.307-.492-.054-1.204.566-1.592.62-.387 1.372-.303 1.68.19.306.49.053 1.204-.567 1.591zm8.36-2.093a1.324 1.324 0 1 1-1.403-2.245 1.324 1.324 0 0 1 1.403 2.245zm13.976 12.588a1.324 1.324 0 1 1-1.403-2.245 1.324 1.324 0 0 1 1.403 2.245zm-33.185-8.34a.968.968 0 1 1-1.026-1.64.968.968 0 0 1 1.026 1.64zm-2.49 35.732c-1.407-.198-2.384-1.532-2.18-2.98.203-1.448 1.51-2.461 2.917-2.263 1.408.198 2.384 1.532 2.18 2.98-.203 1.448-1.509 2.461-2.917 2.263zm19.826-8.55c-.53-.075-.894-.595-.814-1.163.08-.567.573-.967 1.103-.892.529.074.893.594.814 1.162-.08.567-.574.967-1.103.892zm31.858 36.518c-1.167-.163-1.976-1.266-1.808-2.461.168-1.196 1.25-2.032 2.416-1.868 1.166.164 1.976 1.266 1.808 2.462-.168 1.195-1.25 2.031-2.416 1.867zm-26.571-43.932c-.62.387-1.372.303-1.68-.19-.307-.49-.053-1.203.567-1.59.62-.388 1.372-.304 1.679.188.307.492.054 1.204-.566 1.592zm8.36-2.093a1.324 1.324 0 1 1-1.404-2.245 1.324 1.324 0 0 1 1.403 2.245zm13.975 12.588a1.324 1.324 0 1 1-1.403-2.245 1.324 1.324 0 0 1 1.403 2.245zm-33.185-8.34a.968.968 0 1 1-1.025-1.641.968.968 0 0 1 1.025 1.641zM118.641 45.778c-1.408-.198-2.384-1.532-2.18-2.98.203-1.448 1.51-2.462 2.917-2.264 1.408.198 2.384 1.532 2.18 2.98-.203 1.448-1.51 2.462-2.917 2.264zm63.307 20.656c-.53-.075-.894-.595-.814-1.162.08-.568.573-.967 1.102-.893.53.074.894.595.814 1.162-.08.567-.573.967-1.102.893zm25.224-18.467c-1.166-.164-1.976-1.266-1.808-2.461.168-1.196 1.25-2.032 2.417-1.868 1.166.164 1.975 1.266 1.807 2.461-.168 1.196-1.25 2.032-2.416 1.868zM187.234 59.02c-.62.387-1.371.303-1.679-.189-.307-.492-.053-1.204.567-1.592.62-.387 1.371-.303 1.679.19.307.49.053 1.203-.567 1.59zm8.36-2.093a1.324 1.324 0 1 1-1.403-2.245 1.324 1.324 0 0 1 1.403 2.245zm13.976 12.588a1.324 1.324 0 1 1-1.403-2.245 1.324 1.324 0 0 1 1.403 2.245zm-33.185-8.34a.968.968 0 1 1-1.026-1.641.968.968 0 0 1 1.026 1.641zm-3.457 55.96c-1.408-.197-2.384-1.531-2.18-2.98.203-1.447 1.51-2.46 2.917-2.263 1.408.198 2.384 1.532 2.18 2.98-.203 1.448-1.51 2.461-2.917 2.264zm20.793-28.779c-.529-.074-.893-.594-.814-1.162.08-.567.574-.967 1.103-.892.53.074.894.594.814 1.162-.08.567-.574.967-1.103.892zm15.59-3.887c-1.167-.164-1.976-1.266-1.808-2.462.168-1.195 1.25-2.032 2.416-1.868 1.166.164 1.976 1.266 1.807 2.462-.168 1.195-1.25 2.032-2.416 1.868zm-10.303-3.526c-.62.387-1.372.303-1.68-.19-.306-.49-.053-1.204.567-1.591s1.372-.303 1.68.189c.306.492.053 1.204-.567 1.592zm8.36-2.093a1.324 1.324 0 1 1-1.403-2.245 1.324 1.324 0 0 1 1.403 2.245zm13.976 12.588a1.324 1.324 0 1 1-1.403-2.246 1.324 1.324 0 0 1 1.403 2.246zm-33.185-8.34a.968.968 0 1 1-1.026-1.641.968.968 0 0 1 1.026 1.641zM17.008 81.532c1.408-.198 2.384-1.532 2.18-2.98-.203-1.448-1.509-2.461-2.917-2.264-1.407.198-2.384 1.532-2.18 2.98.203 1.448 1.51 2.462 2.917 2.264zm11.55 31.989c.529-.075.893-.595.814-1.162-.08-.568-.574-.967-1.103-.893-.53.074-.894.595-.814 1.162.08.567.574.967 1.103.893zm-15.59-3.888c1.167-.164 1.976-1.266 1.808-2.462-.168-1.195-1.25-2.031-2.416-1.867-1.166.163-1.976 1.266-1.807 2.461.168 1.196 1.25 2.032 2.416 1.868zm10.303-3.526c.62.387 1.372.303 1.68-.189.306-.492.053-1.204-.567-1.592-.62-.387-1.372-.303-1.68.19-.306.49-.053 1.204.567 1.591zm-8.36-2.093a1.324 1.324 0 1 0 1.403-2.245 1.324 1.324 0 0 0-1.403 2.245zM.935 116.602a1.324 1.324 0 1 0 1.403-2.245 1.324 1.324 0 0 0-1.403 2.245zm33.185-8.34a.968.968 0 1 0 1.026-1.64.968.968 0 0 0-1.026 1.64zm2.49 35.732c1.407-.198 2.384-1.532 2.18-2.98-.203-1.448-1.51-2.461-2.917-2.263-1.408.198-2.384 1.532-2.18 2.98.203 1.448 1.509 2.461 2.917 2.263zm-19.826-8.55c.53-.075.894-.595.814-1.163-.08-.567-.573-.967-1.103-.892-.529.074-.893.594-.814 1.162.08.567.574.967 1.103.892zm-31.858 36.518c1.167-.163 1.976-1.266 1.808-2.461-.168-1.196-1.25-2.032-2.416-1.868-1.166.164-1.976 1.266-1.808 2.462.168 1.195 1.25 2.031 2.416 1.867zm26.571-43.932c.62.387 1.372.303 1.68-.19.307-.49.053-1.203-.567-1.59-.62-.388-1.372-.304-1.679.188-.307.492-.054 1.204.566 1.592zm-8.36-2.093a1.324 1.324 0 1 0 1.404-2.245 1.324 1.324 0 0 0-1.403 2.245zm-13.975 12.588a1.324 1.324 0 1 0 1.403-2.245 1.324 1.324 0 0 0-1.403 2.245zm33.185-8.34a.968.968 0 1 0 1.025-1.641.968.968 0 0 0-1.025 1.641zM219.88 53.432c1.408-.198 2.384-1.532 2.18-2.98-.203-1.448-1.51-2.461-2.917-2.264-1.408.198-2.384 1.532-2.18 2.98.203 1.448 1.51 2.462 2.917 2.264zm-63.307 20.656c.53-.075.894-.595.814-1.162-.08-.568-.573-.967-1.102-.893-.53.074-.894.595-.814 1.162.08.567.573.967 1.102.893zM131.35 55.62c1.166-.164 1.976-1.266 1.808-2.461-.168-1.196-1.25-2.032-2.417-1.868-1.166.164-1.975 1.266-1.807 2.461.168 1.196 1.25 2.032 2.416 1.868zm19.938 11.053c.62.387 1.371.303 1.679-.189.307-.492.053-1.204-.567-1.592-.62-.387-1.371-.303-1.679.19-.307.49-.053 1.204.567 1.59zm-8.36-2.093a1.324 1.324 0 1 0 1.403-2.245 1.324 1.324 0 0 0-1.403 2.245zM128.952 77.17a1.324 1.324 0 1 0 1.403-2.245 1.324 1.324 0 0 0-1.403 2.245zm33.185-8.34a.968.968 0 1 0 1.026-1.641.968.968 0 0 0-1.026 1.641zm3.457 55.96c1.408-.197 2.384-1.531 2.18-2.98-.203-1.447-1.51-2.46-2.917-2.263-1.408.198-2.384 1.532-2.18 2.98.203 1.448 1.51 2.462 2.917 2.264zM144.801 96.01c.53-.074.893-.594.814-1.162-.08-.567-.574-.967-1.103-.892-.53.074-.894.594-.814 1.162.08.567.574.967 1.103.892zm-15.59-3.887c1.167-.164 1.977-1.266 1.808-2.462-.168-1.195-1.25-2.032-2.416-1.868-1.166.164-1.975 1.266-1.807 2.462.168 1.195 1.25 2.032 2.416 1.868zm10.303-3.526c.62.387 1.372.303 1.68-.19.306-.49.053-1.204-.567-1.59-.62-.388-1.372-.304-1.68.188-.306.492-.053 1.204.567 1.592zm-8.36-2.093a1.324 1.324 0 1 0 1.403-2.245 1.324 1.324 0 0 0-1.403 2.245zm-13.976 12.588a1.324 1.324 0 1 0 1.403-2.245 1.324 1.324 0 0 0-1.403 2.245zm33.185-8.34a.968.968 0 1 0 1.026-1.641.968.968 0 0 0-1.026 1.641z" />
      <path fill="#695942" d="M-23.072 105.563c-1.585 0-2.87 1.19-2.87-.395a2.87 2.87 0 1 1 5.74 0c0 1.585-1.284.395-2.87.395zm148.917 26.94c-1.585 0-2.87 1.189-2.87-.396a2.87 2.87 0 1 1 5.74 0c0 1.585-1.285.395-2.87.395zm253.157 33.21c-1.585 0-2.87 1.19-2.87-.395a2.87 2.87 0 0 1 5.74 0c0 1.585-1.285.396-2.87.396zm16.073-74.31c-1.585 0-2.87 1.19-2.87-.395a2.87 2.87 0 1 1 5.74 0c0 1.585-1.285.395-2.87.395zm-61.149-14.41c-1.585 0-2.87 1.19-2.87-.395a2.87 2.87 0 0 1 5.74 0c0 1.585-1.284.395-2.87.395zM30.344 121.781c-.464-1.516-1.977-2.397-.461-2.86a2.87 2.87 0 1 1 1.678 5.49c-1.516.463-.754-1.114-1.217-2.63zm-185.637-28.293c-.464-1.516-1.977-2.397-.461-2.86a2.87 2.87 0 0 1 1.678 5.49c-1.516.463-.754-1.114-1.217-2.63zm507.055 18.25c-.464-1.516-1.977-2.397-.461-2.86a2.87 2.87 0 0 1 1.678 5.489c-1.516.463-.754-1.113-1.217-2.63zM5.395 181.963c-.464-1.515-1.977-2.397-.461-2.86a2.87 2.87 0 1 1 1.678 5.49c-1.516.463-.754-1.114-1.217-2.63zm219.67-45.333c-.463-1.516-1.977-2.397-.46-2.86a2.87 2.87 0 0 1 1.678 5.49c-1.516.463-.754-1.114-1.218-2.63zm54.344 60.45c-.464-1.516-1.977-2.397-.461-2.86a2.87 2.87 0 0 1 1.678 5.49c-1.516.463-.754-1.114-1.217-2.63zM107.767 81.122c-.463-1.516-1.977-2.397-.46-2.86a2.87 2.87 0 1 1 1.678 5.489c-1.516.463-.754-1.113-1.218-2.63zM-65.904 127.69c.275 1.56 1.67 2.62.109 2.895a2.87 2.87 0 1 1-.997-5.653c1.56-.276.613 1.197.888 2.758zm244.832 39.506c.275 1.561 1.67 2.62.109 2.896a2.87 2.87 0 0 1-.997-5.654c1.561-.275.613 1.197.888 2.758z" />
      <path fill="#8D795C" d="M311.853 93.832c1.585 0 2.87 1.19 2.87-.395a2.87 2.87 0 1 0-5.74 0c0 1.585 1.285.395 2.87.395zm-148.916 26.94c1.585 0 2.87 1.189 2.87-.396a2.87 2.87 0 1 0-5.74 0c0 1.585 1.284.395 2.87.395zm-253.157 33.21c1.585 0 2.87 1.19 2.87-.395a2.87 2.87 0 1 0-5.74 0c0 1.585 1.284.396 2.87.396zm-16.074-74.31c1.585 0 2.87 1.19 2.87-.395a2.87 2.87 0 1 0-5.74 0c0 1.585 1.285.395 2.87.395zm61.149-14.41c1.585 0 2.87 1.19 2.87-.395a2.87 2.87 0 1 0-5.74 0c0 1.585 1.285.395 2.87.395zm303.583 44.788c.463-1.516 1.977-2.397.46-2.86a2.87 2.87 0 1 0-1.678 5.49c1.516.463.754-1.114 1.218-2.63zm185.637-28.293c.463-1.516 1.977-2.397.46-2.86a2.87 2.87 0 1 0-1.678 5.49c1.516.463.754-1.114 1.218-2.63zm-507.055 18.25c.463-1.516 1.977-2.397.46-2.86a2.87 2.87 0 1 0-1.678 5.489c1.516.463.754-1.113 1.218-2.63zm346.367 70.225c.463-1.516 1.977-2.397.46-2.86a2.87 2.87 0 0 0-1.678 5.49c1.516.463.754-1.114 1.218-2.63zM63.717 124.9c.463-1.516 1.976-2.397.46-2.86a2.87 2.87 0 1 0-1.678 5.49c1.516.463.754-1.114 1.217-2.63zM9.372 185.35c.463-1.516 1.976-2.397.46-2.86a2.87 2.87 0 1 0-1.678 5.49c1.516.463.754-1.114 1.218-2.63zM181.014 69.391c.464-1.516 1.977-2.397.461-2.86a2.87 2.87 0 1 0-1.678 5.489c1.516.463.754-1.113 1.217-2.63zm173.672 46.568c-.276 1.56-1.67 2.62-.11 2.895a2.87 2.87 0 1 0 .998-5.653c-1.561-.276-.613 1.197-.888 2.758zm-244.832 39.506c-.276 1.561-1.67 2.62-.11 2.896a2.87 2.87 0 1 0 .998-5.654c-1.562-.275-.613 1.197-.888 2.758z" />
      <g fill="#BAC68E" fillRule="nonzero">
        <path d="M147.49 40.085c1.069 1.078 1.828 2.487 2.325 4.142.597 1.988.754 4.043.672 5.79-.007.14-.014.242-.019.3l-1.747-.149c.003-.036.008-.115.014-.233.073-1.566-.07-3.438-.6-5.204a9.73 9.73 0 0 0-.806-1.946c-2.76 2.628-4.49 4.971-5.196 7.017-.79 2.292-1.218 5.316-1.275 9.065l-.877-.013c.059-3.835.498-6.947 1.323-9.338.769-2.23 2.619-4.72 5.545-7.483a5.952 5.952 0 0 0-1.245-1.27c-1.21-.903-2.575-1.541-5.284-2.587l-.576-.222a55.97 55.97 0 0 1-2.765-1.135c.544 2.525.593 6.97.212 13.45l-.875-.052c.418-7.118.274-11.802-.33-13.869-1.046-.525-1.846-1.04-2.48-1.619-2.92 2.104-4.877 3.762-5.85 4.944-.382.465-.746.953-1.093 1.464-.875 1.285-1.598 2.63-2.314 4.204-.015.034-1.09 2.513-1.318 2.91-1.002 1.758-1.56 6.638-1.588 14.46l-1.754-.006c.024-6.804.43-11.446 1.27-14.03-2.534.18-4.645.827-6.339 1.935-2.018 1.32-3.608 3.378-4.768 6.184l-.81-.335c1.224-2.96 2.923-5.159 5.098-6.583 1.919-1.255 4.31-1.954 7.166-2.1.065-.141.133-.272.202-.393.171-.301 1.18-2.627 1.245-2.768.754-1.657 1.522-3.086 2.46-4.464.163-.24.33-.477.501-.708-2.858-.196-6.099-.159-9.721.11-4.071.303-7.243 2.362-9.55 6.212l-.752-.451c2.45-4.088 5.874-6.31 10.237-6.635 3.91-.29 7.387-.313 10.431-.067l.043-.053c1.08-1.312 3.1-3.03 6.082-5.182a7.19 7.19 0 0 1-.35-.64c-1.409-2.901-1.922-9.731-1.611-20.663l1.753.05c-.302 10.627.2 17.3 1.435 19.848.841 1.732 2.507 2.706 6.763 4.345l.577.223c2.294.885 3.69 1.502 4.867 2.243 3.025.68 5.737 1.492 8.136 2.435 2.935 1.152 5.351 4.846 7.312 11.056l-.837.264c-1.888-5.981-4.173-9.474-6.795-10.504-1.854-.728-3.902-1.378-6.144-1.949zM375.8 37.441a3.89 3.89 0 0 0-.813-.83c-.79-.59-1.683-1.007-3.453-1.69l-.377-.145c-2.034-.784-3.264-1.367-4.075-2.107-1.909 1.374-3.188 2.458-3.823 3.23-.25.304-.488.623-.715.957-.571.84-1.044 1.719-1.512 2.747-.01.022-.713 1.642-.86 1.902-.656 1.148-1.02 4.337-1.039 9.448l-1.146-.004c.016-4.446.282-7.479.83-9.167-1.656.117-3.036.54-4.142 1.264-1.32.863-2.358 2.208-3.116 4.041l-.53-.219c.8-1.934 1.91-3.371 3.332-4.301 1.254-.82 2.816-1.277 4.683-1.373.043-.092.086-.178.132-.257.112-.196.771-1.716.813-1.808.493-1.083.995-2.017 1.608-2.918a14.3 14.3 0 0 1 .777-1.04c.705-.857 2.025-1.98 3.974-3.386a4.699 4.699 0 0 1-.229-.418c-.92-1.896-1.256-6.36-1.052-13.503l1.145.033c-.197 6.944.13 11.305.938 12.97.55 1.132 1.638 1.768 4.42 2.84l.377.145c1.866.72 2.823 1.168 3.725 1.84.403.301.752.66 1.052 1.07l-.021-.217c2.106-.207 4.544-.207 7.315 0 2.851.211 5.089 1.664 6.69 4.335l-.492.295c-1.43-2.387-3.368-3.72-5.835-4.02.716 1.18.866 4.436.543 9.932l-.572-.033c.355-6.037.09-9.394-.647-9.812l.08-.14c-2.577-.184-4.855-.185-6.833-.005.33.525.59 1.122.787 1.778.39 1.299.492 2.642.439 3.784a5.555 5.555 0 0 1-.012.196l-1.142-.097.009-.153c.048-1.023-.045-2.247-.392-3.4a6.358 6.358 0 0 0-.526-1.272c-1.804 1.717-2.935 3.248-3.396 4.585-.517 1.498-.796 3.474-.833 5.924l-.573-.009c.038-2.506.325-4.54.864-6.102.503-1.457 1.711-3.084 3.623-4.89zM325.537 34.48c.236-.323.506-.601.813-.83.791-.59 1.683-1.007 3.453-1.69l.377-.146c1.594-.614 2.695-1.105 3.487-1.645l-.076.202c2.164 2.906 3.601 5.18 4.296 6.777.259.595.505 1.22.74 1.873.593 1.644 1.083 3.365 1.567 5.378.01.044.74 3.214.893 3.724.679 2.248 1.057 8.491 1.075 18.498l1.188-.008c-.007-3.481-.055-6.52-.146-9.125 1.662.116 3.046.539 4.155 1.265 1.32.863 2.358 2.208 3.116 4.041l.53-.219c-.8-1.934-1.91-3.371-3.332-4.302-1.21-.792-2.708-1.244-4.49-1.361-.188-4.877-.538-8.157-1.065-9.901-.116-.385-.8-3.36-.843-3.54-.51-2.121-1.03-3.949-1.665-5.713a33.792 33.792 0 0 0-.806-2.035c-.723-1.662-2.071-3.832-4.058-6.548.181-.235.335-.488.472-.77.92-1.896 1.256-6.359 1.053-13.502l-1.146.032c.198 6.945-.13 11.306-.938 12.97-.55 1.132-1.638 1.768-4.42 2.84l-.377.145c-1.866.72-2.823 1.169-3.725 1.841-.403.3-.752.66-1.052 1.069l.021-.217c-2.106-.206-4.544-.206-7.315 0-2.851.212-5.088 1.664-6.69 4.336l.492.294c1.43-2.386 3.369-3.72 5.835-4.02-.715 1.18-.866 4.436-.543 9.933l.572-.034c-.354-6.036-.09-9.394.647-9.811l-.08-.14c2.577-.184 4.855-.186 6.833-.006a7.243 7.243 0 0 0-.787 1.779c-.39 1.298-.492 2.642-.438 3.783.004.092.008.159.012.197l1.141-.098a4.552 4.552 0 0 1-.009-.153c-.048-1.023.045-2.246.392-3.4.14-.466.315-.892.527-1.272 1.803 1.717 2.935 3.249 3.395 4.585.517 1.499.796 3.474.833 5.924l.573-.008c-.038-2.506-.325-4.54-.864-6.103-.502-1.457-1.711-3.083-3.623-4.89zM33.03 50.642l12.915 9.136-.411.58-12.505-8.845v22.981h-2.125v-7.77c-1.45.145-2.476.6-3.092 1.351-.772.941-1.077 2.07-.915 3.407l-.707.086c-.184-1.527.174-2.85 1.072-3.944.76-.927 1.979-1.46 3.642-1.615V55.366c-2.024.24-3.712.824-5.067 1.748-1.545 1.054-2.607 3.302-3.152 6.76l-.703-.111c.573-3.633 1.714-6.05 3.454-7.237 1.474-1.006 3.298-1.63 5.468-1.877v-7.546c-1.738.08-2.943.55-3.632 1.39-.772.941-1.077 2.069-.916 3.407l-.706.085c-.184-1.526.173-2.848 1.072-3.943.84-1.024 2.24-1.568 4.182-1.651V36.34l-11.81 8.354-.411-.58 12.221-8.646V10.736h2.125v12.447l12.916 9.7-.428.57-12.488-9.38v17.705c2.101.206 3.858.789 5.268 1.75 1.598 1.09 2.646 3.311 3.173 6.648l-.646.102c-.5-3.176-1.476-5.242-2.896-6.21-1.298-.886-2.93-1.432-4.899-1.633v8.207zm9.984 18.917l-.703.111c-.545-3.458-1.607-5.706-3.152-6.76-1.586-1.081-3.627-1.697-6.13-1.841l.041-.71c2.625.15 4.79.804 6.49 1.963 1.74 1.187 2.88 3.604 3.454 7.237zM79.44 48.625l11.83 8.368-.377.532-11.453-8.102v21.049h-1.946v-7.117c-1.328.133-2.268.55-2.832 1.238-.707.861-.986 1.895-.839 3.12l-.647.078c-.168-1.398.16-2.609.982-3.612.696-.848 1.812-1.337 3.336-1.478v-9.75c-1.854.22-3.4.755-4.641 1.602-1.416.966-2.388 3.025-2.888 6.191l-.643-.101c.525-3.327 1.57-5.541 3.164-6.628 1.35-.921 3.02-1.493 5.008-1.72V39.9c-1.592.072-2.696.502-3.327 1.273-.707.862-.987 1.895-.839 3.12l-.647.078c-.168-1.397.16-2.609.982-3.612.77-.938 2.052-1.435 3.83-1.512V25.204l-10.817 7.652-.376-.532 11.194-7.919v-12.33h1.946v8.032c2.977.27 5.46 1.08 7.444 2.434 2.209 1.507 3.658 4.576 4.386 9.188l-.893.14c-.693-4.39-2.04-7.243-4.002-8.582-1.831-1.249-4.14-2.008-6.935-2.273v11.198l12.077 9.071-.392.521-11.685-8.777v15.598zm9.145 17.327l-.643.101c-.5-3.167-1.472-5.226-2.888-6.191-1.452-.99-3.321-1.554-5.614-1.686l.038-.651c2.403.138 4.386.736 5.944 1.798 1.593 1.087 2.638 3.302 3.163 6.629zM-21.48 45.586c-.24.267-.456.53-.647.788-1.842 2.49-3.006 6.955-3.437 13.37l-1.714-.115c.451-6.714 1.69-11.465 3.77-14.277.557-.752 1.283-1.523 2.178-2.312-6.855-.688-11.266-.23-13.184 1.311-2.043 1.642-3.094 3.356-3.189 5.145l-.857-.045c.109-2.061 1.29-3.986 3.508-5.77 2.232-1.794 7.093-2.241 14.637-1.408 2.175-1.739 5.147-3.57 8.92-5.505-1.604-2.805-2.315-9.729-2.223-20.964l1.717.014c-.09 10.948.612 17.722 2.013 20.125.876 1.505 2.867 2.798 6.703 4.62.406.192 1.862.873 2.16 1.015.51.241.945.45 1.336.647 4.957-.236 8.581 1.064 10.836 3.92 2.464 3.123 4.181 6.414 5.148 9.873l-.827.231c-.935-3.346-2.6-6.536-4.995-9.572-1.833-2.322-4.69-3.533-8.599-3.617.867.504 1.525.976 2.015 1.467 1.984 1.985 2.885 5.104 2.76 9.316l-1.717-.051c.101-3.384-.506-5.877-1.78-7.51-3.135 3.014-4.981 5.517-5.543 7.482-.605 2.117-.783 5.106-.527 8.959l-.857.057c-.262-3.944-.079-7.025.558-9.252.614-2.146 2.545-4.764 5.792-7.883-.5-.466-1.274-.967-2.368-1.543a50.692 50.692 0 0 0-1.966-.972c-.294-.14-1.752-.822-2.162-1.017a57.243 57.243 0 0 1-2.627-1.318v11.861h-1.717V39.79c-.845-.543-1.524-1.076-2.07-1.635-4.6 2.342-7.965 4.506-10.088 6.469-.607 5.532.08 9.178 2.001 10.94 2.402 2.2 3.562 5.596 3.498 10.156l-.859-.013c.06-4.333-1.018-7.494-3.219-9.51-2.036-1.867-2.812-5.404-2.377-10.611zM208.06 37.238V14.323h1.09v21.15c1.003-.004 2.161.379 3.476 1.138 1.079.624 1.639 1.438 2.256 2.933l.083.203.081.201c.465 1.145.741 1.655 1.232 2.118.602.568 1.676.8 3.19.777.543-.008 1.079-.044 1.85-.115 1.327-.122 1.284-.118 1.605-.118 1.102 0 2.13 1.147 3.144 3.393l-.48.216c-.935-2.07-1.842-3.082-2.664-3.082-.295 0-.264-.003-1.557.116a23.81 23.81 0 0 1-1.891.117c-1.64.024-2.828-.232-3.558-.92-.564-.532-.867-1.09-1.36-2.304l-.08-.2-.083-.2c-.576-1.398-1.077-2.126-2.032-2.678-1.243-.719-2.315-1.072-3.212-1.068v6.942c1.332.296 2.408.799 3.22 1.516.943.833 1.586 2.674 2.002 5.56l-1.044.151c-.382-2.652-.96-4.305-1.656-4.92-.624-.552-1.463-.961-2.522-1.224v15.332h-1.09v-8.901c-.73 1.064-1.446 1.697-2.16 1.896-.93.26-1.9.26-2.905.002l.13-.511c.919.235 1.795.235 2.633.001.702-.195 1.478-.983 2.302-2.37v-11.18c-3.033.149-4.795.846-5.331 1.994-1.678 3.594-2.82 5.192-4.86 5.74-1.555.416-3.887.416-7.017.013l.135-1.046c3.005.387 5.215.387 6.608.014 1.61-.432 2.64-1.875 4.178-5.168.751-1.607 2.862-2.442 6.287-2.603zM176.496 30.335V9.89h1.09v18.865c.895-.004 1.927.337 3.1 1.015.962.557 1.462 1.282 2.012 2.616a35.389 35.389 0 0 1 .147.36c.414 1.022.661 1.476 1.099 1.889.537.506 1.494.713 2.844.693.485-.007.963-.04 1.65-.102 1.184-.11 1.146-.106 1.432-.106.983 0 1.9 1.023 2.804 3.026l-.428.194c-.834-1.848-1.643-2.75-2.376-2.75-.263 0-.235-.002-1.389.104-.698.064-1.186.097-1.686.104-1.463.022-2.523-.207-3.174-.82-.503-.475-.773-.972-1.212-2.055l-.073-.18-.073-.178c-.514-1.246-.96-1.895-1.813-2.388-1.108-.64-2.064-.956-2.865-.952v6.192c1.189.263 2.148.712 2.873 1.352.84.743 1.414 2.385 1.785 4.96l-.93.133c-.342-2.365-.856-3.84-1.478-4.388-.557-.492-1.305-.857-2.25-1.091v13.674h-1.09v-7.771c-.61.848-1.21 1.357-1.808 1.524-.829.23-1.694.23-2.591.001l.116-.456c.82.21 1.601.21 2.348.002.593-.165 1.244-.804 1.936-1.92v-10.16c-2.633.145-4.166.763-4.637 1.772-1.497 3.206-2.515 4.631-4.335 5.12-1.387.371-3.467.371-6.258.011l.12-.932c2.68.345 4.652.345 5.894.012 1.436-.385 2.355-1.672 3.727-4.61.66-1.415 2.503-2.158 5.489-2.315z" />
        <path d="M292.494 84.047c-3.897-.038-6.536.502-7.899 1.597-2.012 1.617-3.047 3.305-3.14 5.067l-.023.423-.844-.045.022-.422c.107-2.03 1.27-3.926 3.455-5.682 2.13-1.713 6.691-2.18 13.731-1.461v-24.14c-1.617 1.192-2.817 2.32-3.6 3.376-1.814 2.452-2.96 6.85-3.385 13.168l-.056.844-1.688-.113.057-.844c.444-6.613 1.664-11.292 3.713-14.062 2.001-2.704 6.217-5.644 12.67-8.879l.117-.059a43.076 43.076 0 0 1-.175-4.927l.014-29.85 1.691.028-.014 29.85c-.087 5.172.587 8.963 1.982 11.358.863 1.481 2.824 2.755 6.602 4.549.4.19 1.834.86 2.128 1 .82.388 1.44.692 2.002.99 1.29.68 2.205 1.282 2.838 1.915.244.244.471.506.683.786 5.572-.547 9.591.698 12.01 3.763 2.427 3.075 4.118 6.317 5.07 9.723l.114.408-.815.227-.113-.407c-.922-3.296-2.56-6.437-4.92-9.427-2.153-2.729-5.743-3.9-10.814-3.486a9.88 9.88 0 0 1 .949 2.268c.295 1.032.475 2.774.554 5.268l.027.845-1.69.054-.028-.846c-.075-2.362-.243-3.995-.49-4.856-.373-1.306-.952-2.343-1.733-3.124-.486-.486-1.28-1.008-2.43-1.615a49.926 49.926 0 0 0-1.938-.958c-.289-.137-1.724-.808-2.129-1-2.91-1.383-4.83-2.481-6.093-3.679-.847 6.155-.218 10.164 1.816 12.028 2.365 2.169 3.507 5.513 3.444 10.003l-.006.423-.845-.012.006-.423c.047-3.343-.595-5.977-1.917-7.916-3.292 3.112-5.223 5.686-5.796 7.69-.596 2.085-.771 5.029-.52 8.824l.029.422-.844.056-.028-.422c-.258-3.884-.077-6.918.55-9.112.629-2.199 2.661-4.9 6.096-8.136a8.22 8.22 0 0 0-.74-.773c-2.375-2.177-3.01-6.662-1.984-13.456a6.414 6.414 0 0 1-.506-.743c-.846-1.452-1.447-3.295-1.808-5.531-2.484 1.26-4.606 2.467-6.366 3.618v41.476c3.189 3.065 5.086 5.639 5.69 7.75.626 2.193.807 5.227.55 9.111l-.029.422-.844-.056.028-.422c.252-3.795.077-6.739-.519-8.823-.517-1.81-2.142-4.084-4.876-6.8v5.181h-1.691V84.374c-1.618-.167-3.1-.27-4.445-.31.983 6.677.337 11.093-2.014 13.248-2.167 1.986-3.23 5.1-3.17 9.368l.006.422-.846.012-.006-.423c-.063-4.49 1.08-7.834 3.445-10.002 2.1-1.926 2.703-6.14 1.728-12.642zM234.73 69.709c-3.897-.038-6.535.501-7.898 1.596-2.012 1.618-3.047 3.305-3.14 5.068l-.023.422-.844-.044.022-.423c.107-2.03 1.27-3.925 3.455-5.682 2.13-1.712 6.691-2.18 13.73-1.46v-24.14c-1.616 1.192-2.816 2.319-3.598 3.375-1.815 2.452-2.961 6.85-3.386 13.169l-.057.844-1.687-.114.057-.844c.444-6.612 1.664-11.291 3.713-14.06 2.001-2.705 6.216-5.645 12.67-8.88l.117-.059a43.076 43.076 0 0 1-.175-4.927l.014-29.851 1.691.028-.014 29.851c-.087 5.172.587 8.963 1.982 11.357.863 1.482 2.824 2.755 6.602 4.55.4.189 1.834.86 2.128 1 .82.387 1.439.692 2.002.99 1.29.679 2.205 1.282 2.838 1.915.244.244.471.506.682.785 5.573-.546 9.592.699 12.01 3.764 2.428 3.075 4.119 6.317 5.07 9.723l.115.407-.815.228-.114-.407c-.92-3.296-2.56-6.438-4.92-9.427-2.152-2.729-5.742-3.9-10.813-3.487a9.88 9.88 0 0 1 .949 2.269c.295 1.032.475 2.773.554 5.267l.027.846-1.691.053-.027-.845c-.075-2.363-.243-3.995-.49-4.856-.373-1.306-.952-2.343-1.733-3.125-.486-.486-1.28-1.008-2.43-1.615a49.926 49.926 0 0 0-1.938-.957c-.289-.137-1.724-.809-2.13-1-2.91-1.383-4.83-2.482-6.092-3.68-.847 6.155-.218 10.165 1.816 12.03 2.365 2.167 3.507 5.511 3.444 10.002l-.006.423-.845-.012.006-.423c.046-3.343-.595-5.977-1.917-7.916-3.292 3.112-5.223 5.686-5.796 7.69-.596 2.085-.772 5.029-.52 8.824l.029.422-.844.056-.028-.422c-.258-3.884-.077-6.919.55-9.112.628-2.199 2.661-4.9 6.096-8.137a8.22 8.22 0 0 0-.74-.773c-2.376-2.176-3.01-6.662-1.984-13.455a6.414 6.414 0 0 1-.506-.743c-.846-1.452-1.447-3.295-1.808-5.532-2.484 1.26-4.606 2.467-6.366 3.619V85.35c3.189 3.065 5.086 5.638 5.689 7.749.627 2.193.808 5.228.55 9.112l-.028.422-.844-.056.028-.422c.252-3.795.077-6.74-.52-8.824-.517-1.81-2.141-4.084-4.875-6.799v5.181h-1.691V70.036c-1.618-.167-3.1-.27-4.445-.31.983 6.677.337 11.093-2.014 13.248-2.167 1.986-3.23 5.099-3.17 9.367l.006.423-.846.012-.006-.423c-.063-4.49 1.08-7.835 3.445-10.003 2.1-1.925 2.702-6.14 1.728-12.641z" />
      </g>
      <g>
        <path fill="#C5816B" fillRule="nonzero" d="M159.796 68.405a1.635 1.635 0 0 1-2.49-2.119c1.863-2.19 4.065-3.168 6.463-2.743 1.561.277 2.287 1.1 3.042 2.717.142.308.206.445.273.58.298.605.543.918.905 1.136.46.277 1.966.474 4.317.442a1.635 1.635 0 0 1 .044 3.27c-2.946.04-4.894-.215-6.05-.912-.99-.598-1.599-1.375-2.148-2.49a28.221 28.221 0 0 1-.304-.642c-.344-.738-.438-.844-.65-.882-1.154-.205-2.241.279-3.402 1.643z" />
      </g>
    </g>
  </g>
</svg>
