<svg xmlns="http://www.w3.org/2000/svg" viewBox="0 0 1600 556">
  <g fill="none" fill-rule="evenodd">
    <path fill="#424135" d="M.434 0h1600v556H.434z"/>
    <path fill="#36352C" d="M577.309 151.071c-3.679-.517-6.23-4.003-5.698-7.787.532-3.783 3.945-6.431 7.623-5.914 3.679.517 6.23 4.003 5.698 7.786-.532 3.784-3.945 6.432-7.623 5.915zm-30.18 83.587c-1.382-.195-2.334-1.554-2.126-3.037.208-1.482 1.498-2.526 2.881-2.332 1.383.194 2.335 1.554 2.127 3.036-.208 1.483-1.498 2.527-2.881 2.333zm40.735-10.159c-3.048-.428-5.163-3.308-4.724-6.432.44-3.124 3.266-5.309 6.314-4.88 3.048.428 5.163 3.307 4.724 6.431-.44 3.124-3.266 5.31-6.314 4.881zm-26.92-9.213c-1.62 1.012-3.584.791-4.387-.494-.803-1.284-.14-3.147 1.48-4.16 1.62-1.011 3.584-.79 4.387.494.802 1.285.14 3.147-1.48 4.16zm21.844-5.469a3.459 3.459 0 1 1-3.666-5.867 3.459 3.459 0 0 1 3.666 5.867zm36.52 32.892a3.459 3.459 0 1 1-3.667-5.866 3.459 3.459 0 0 1 3.666 5.866zm-86.713-21.791a2.529 2.529 0 1 1-2.68-4.289 2.529 2.529 0 0 1 2.68 4.289zm-6.505 93.367c-3.678-.517-6.229-4.003-5.697-7.786.532-3.784 3.945-6.432 7.623-5.915 3.678.517 6.23 4.003 5.698 7.787-.532 3.783-3.945 6.431-7.624 5.914zm51.804-22.343c-1.383-.195-2.335-1.554-2.127-3.036.209-1.483 1.499-2.527 2.882-2.333 1.383.195 2.335 1.554 2.127 3.036-.209 1.483-1.499 2.527-2.882 2.333zm83.245 95.424c-3.048-.428-5.163-3.308-4.724-6.432.439-3.124 3.266-5.309 6.314-4.88 3.047.428 5.162 3.308 4.723 6.432-.439 3.124-3.266 5.309-6.313 4.88zm-69.43-114.796c-1.62 1.012-3.585.791-4.388-.493-.803-1.285-.14-3.147 1.48-4.16 1.62-1.012 3.584-.791 4.387.494.803 1.284.14 3.147-1.48 4.159zm21.844-5.468a3.459 3.459 0 1 1-3.666-5.867 3.459 3.459 0 0 1 3.666 5.867zm36.519 32.892a3.459 3.459 0 1 1-3.666-5.867 3.459 3.459 0 0 1 3.666 5.867zm-86.713-21.792a2.529 2.529 0 1 1-2.68-4.289 2.529 2.529 0 0 1 2.68 4.29zM47.201 77.646c-3.678-.517-6.229-4.004-5.697-7.787.531-3.784 3.944-6.432 7.623-5.915 3.678.517 6.23 4.003 5.697 7.787-.531 3.783-3.944 6.431-7.623 5.915zm165.42 53.973c-1.382-.194-2.334-1.554-2.126-3.036.208-1.483 1.498-2.527 2.881-2.333 1.383.195 2.336 1.554 2.127 3.037-.208 1.482-1.498 2.526-2.881 2.332zm65.913-48.253c-3.048-.428-5.163-3.308-4.724-6.432.44-3.124 3.266-5.309 6.314-4.88 3.047.428 5.162 3.308 4.723 6.432-.439 3.124-3.265 5.309-6.313 4.88zm-52.098 28.881c-1.62 1.012-3.584.791-4.387-.493-.803-1.285-.14-3.147 1.48-4.16 1.62-1.012 3.584-.791 4.387.494.802 1.285.14 3.147-1.48 4.16zm21.844-5.468a3.459 3.459 0 1 1-3.666-5.867 3.459 3.459 0 0 1 3.666 5.867zm36.52 32.892a3.459 3.459 0 1 1-3.667-5.867 3.459 3.459 0 0 1 3.666 5.867zm-86.713-21.792a2.529 2.529 0 1 1-2.68-4.289 2.529 2.529 0 0 1 2.68 4.29zm-9.034 146.225c-3.678-.517-6.229-4.004-5.697-7.787.532-3.784 3.945-6.432 7.623-5.915 3.678.517 6.23 4.003 5.698 7.787s-3.945 6.432-7.624 5.915zm54.333-75.2c-1.383-.195-2.335-1.555-2.126-3.037.208-1.483 1.498-2.527 2.88-2.332 1.384.194 2.336 1.553 2.128 3.036-.209 1.482-1.499 2.527-2.882 2.332zm40.735-10.16c-3.048-.428-5.163-3.307-4.724-6.431.439-3.124 3.266-5.31 6.314-4.881 3.047.428 5.162 3.308 4.723 6.432-.439 3.124-3.266 5.309-6.313 4.88zm-26.92-9.213c-1.62 1.013-3.585.792-4.388-.493-.803-1.285-.14-3.147 1.48-4.16 1.62-1.012 3.584-.79 4.387.494.803 1.285.14 3.147-1.48 4.16zm21.844-5.468a3.459 3.459 0 1 1-3.666-5.867 3.459 3.459 0 0 1 3.666 5.867zm36.519 32.892a3.459 3.459 0 1 1-3.666-5.867 3.459 3.459 0 0 1 3.666 5.867zm-86.713-21.791a2.529 2.529 0 1 1-2.68-4.29 2.529 2.529 0 0 1 2.68 4.29zM693.309 250.423c-3.679-.517-6.23-4.003-5.698-7.787.532-3.783 3.945-6.431 7.623-5.914 3.679.517 6.23 4.003 5.698 7.786-.532 3.784-3.945 6.432-7.623 5.915zm-30.18 83.587c-1.382-.195-2.334-1.554-2.126-3.037.208-1.482 1.498-2.526 2.881-2.332 1.383.194 2.335 1.554 2.127 3.036-.208 1.483-1.498 2.527-2.881 2.333zm40.735-10.159c-3.048-.428-5.163-3.308-4.724-6.432.44-3.124 3.266-5.309 6.314-4.88 3.048.428 5.163 3.307 4.724 6.431-.44 3.124-3.266 5.31-6.314 4.881zm-26.92-9.213c-1.62 1.012-3.584.791-4.387-.494-.803-1.285-.14-3.147 1.48-4.16 1.62-1.011 3.584-.79 4.387.494.802 1.285.14 3.147-1.48 4.16zm21.844-5.469a3.459 3.459 0 1 1-3.666-5.867 3.459 3.459 0 0 1 3.666 5.867zm36.52 32.892a3.459 3.459 0 1 1-3.667-5.867 3.459 3.459 0 0 1 3.666 5.867zm-86.713-21.791a2.529 2.529 0 1 1-2.68-4.289 2.529 2.529 0 0 1 2.68 4.289zm-6.505 93.367c-3.678-.517-6.229-4.003-5.697-7.786.532-3.784 3.945-6.432 7.623-5.915 3.678.517 6.23 4.003 5.698 7.787-.532 3.783-3.945 6.431-7.624 5.914zm51.804-22.343c-1.383-.195-2.335-1.554-2.127-3.036.209-1.483 1.499-2.527 2.882-2.333 1.383.195 2.335 1.554 2.127 3.036-.209 1.483-1.499 2.527-2.882 2.333zm83.245 95.424c-3.048-.428-5.163-3.308-4.724-6.432.439-3.124 3.266-5.309 6.314-4.88 3.047.428 5.162 3.308 4.723 6.432-.439 3.124-3.266 5.309-6.313 4.88zm-69.43-114.796c-1.62 1.012-3.585.791-4.388-.493-.803-1.285-.14-3.147 1.48-4.16 1.62-1.012 3.584-.791 4.387.494.803 1.284.14 3.147-1.48 4.159zm21.844-5.469a3.459 3.459 0 1 1-3.666-5.866 3.459 3.459 0 0 1 3.666 5.866zm36.519 32.893a3.459 3.459 0 1 1-3.666-5.867 3.459 3.459 0 0 1 3.666 5.867zm-86.713-21.792a2.529 2.529 0 1 1-2.68-4.289 2.529 2.529 0 0 1 2.68 4.29zM163.201 176.998c-3.678-.517-6.229-4.004-5.697-7.787.531-3.784 3.944-6.432 7.623-5.915 3.678.517 6.23 4.003 5.697 7.787-.531 3.783-3.944 6.431-7.623 5.915zm165.42 53.973c-1.382-.194-2.334-1.554-2.126-3.036.208-1.483 1.498-2.527 2.881-2.333 1.383.195 2.336 1.554 2.127 3.037-.208 1.482-1.498 2.526-2.881 2.332zm65.913-48.253c-3.048-.428-5.163-3.308-4.724-6.432.44-3.124 3.266-5.309 6.314-4.88 3.047.428 5.162 3.308 4.723 6.432-.439 3.124-3.265 5.309-6.313 4.88zM342.436 211.6c-1.62 1.012-3.584.791-4.387-.493-.803-1.285-.14-3.147 1.48-4.16 1.62-1.012 3.584-.791 4.387.494.802 1.285.14 3.147-1.48 4.16zm21.844-5.468a3.459 3.459 0 1 1-3.666-5.867 3.459 3.459 0 0 1 3.666 5.867zm36.52 32.892a3.459 3.459 0 1 1-3.667-5.867 3.459 3.459 0 0 1 3.666 5.867zm-86.713-21.792a2.529 2.529 0 1 1-2.68-4.289 2.529 2.529 0 0 1 2.68 4.29zm-9.034 146.225c-3.678-.517-6.229-4.004-5.697-7.787.532-3.784 3.945-6.432 7.623-5.915 3.678.517 6.23 4.003 5.698 7.787s-3.945 6.432-7.624 5.915zm54.333-75.2c-1.383-.195-2.335-1.555-2.126-3.037.208-1.483 1.498-2.527 2.88-2.332 1.384.194 2.336 1.553 2.128 3.036-.209 1.482-1.499 2.527-2.882 2.332zm40.735-10.16c-3.048-.428-5.163-3.307-4.724-6.431.439-3.124 3.266-5.31 6.314-4.881 3.047.428 5.162 3.308 4.723 6.432-.439 3.124-3.266 5.309-6.313 4.88zm-26.92-9.213c-1.62 1.013-3.585.792-4.388-.493-.803-1.285-.14-3.147 1.48-4.16 1.62-1.012 3.584-.79 4.387.494.803 1.285.14 3.147-1.48 4.16zm21.844-5.468a3.459 3.459 0 1 1-3.666-5.867 3.459 3.459 0 0 1 3.666 5.867zm36.519 32.892a3.459 3.459 0 1 1-3.666-5.867 3.459 3.459 0 0 1 3.666 5.867zm-86.713-21.791a2.529 2.529 0 1 1-2.68-4.29 2.529 2.529 0 0 1 2.68 4.29zM1428.232 163.191c-3.679-.517-6.23-4.003-5.698-7.786.532-3.784 3.945-6.432 7.623-5.915 3.679.517 6.23 4.003 5.698 7.787-.532 3.783-3.945 6.431-7.623 5.914zm-30.18 83.587c-1.382-.194-2.335-1.554-2.126-3.036.208-1.483 1.498-2.527 2.881-2.333 1.383.195 2.335 1.554 2.127 3.037-.208 1.482-1.498 2.526-2.881 2.332zm40.735-10.159c-3.048-.428-5.163-3.308-4.724-6.432.44-3.124 3.266-5.309 6.314-4.88 3.048.428 5.162 3.308 4.723 6.432-.439 3.124-3.265 5.309-6.313 4.88zm-26.92-9.213c-1.62 1.012-3.585.791-4.387-.493-.803-1.285-.14-3.147 1.48-4.16 1.62-1.012 3.583-.791 4.386.494.803 1.285.14 3.147-1.48 4.16zm21.844-5.468a3.459 3.459 0 1 1-3.666-5.867 3.459 3.459 0 0 1 3.666 5.867zm36.519 32.892a3.459 3.459 0 1 1-3.666-5.867 3.459 3.459 0 0 1 3.666 5.867zm-86.713-21.792a2.529 2.529 0 1 1-2.68-4.289 2.529 2.529 0 0 1 2.68 4.29zm-6.504 93.368c-3.678-.517-6.23-4.003-5.697-7.787.531-3.784 3.944-6.432 7.623-5.915 3.678.517 6.23 4.004 5.697 7.787-.531 3.784-3.944 6.432-7.623 5.915zm51.804-22.344c-1.383-.194-2.335-1.554-2.127-3.036.209-1.483 1.499-2.527 2.882-2.332 1.383.194 2.335 1.553 2.126 3.036-.208 1.482-1.498 2.527-2.88 2.332zm83.244 95.425c-3.047-.429-5.162-3.308-4.723-6.432.439-3.124 3.265-5.31 6.313-4.881 3.048.428 5.163 3.308 4.724 6.432-.44 3.124-3.266 5.309-6.314 4.88zm-69.43-114.797c-1.62 1.013-3.584.792-4.387-.493-.803-1.285-.14-3.147 1.48-4.16 1.62-1.012 3.584-.79 4.387.494.803 1.285.14 3.147-1.48 4.16zm21.845-5.468a3.459 3.459 0 1 1-3.666-5.867 3.459 3.459 0 0 1 3.666 5.867zm36.518 32.892a3.459 3.459 0 1 1-3.666-5.867 3.459 3.459 0 0 1 3.666 5.867zm-86.712-21.791a2.529 2.529 0 1 1-2.68-4.29 2.529 2.529 0 0 1 2.68 4.29zM898.124 89.766c-3.678-.517-6.23-4.003-5.698-7.787.532-3.783 3.945-6.431 7.624-5.915 3.678.517 6.229 4.004 5.697 7.787-.532 3.784-3.945 6.432-7.623 5.915zm165.42 53.973c-1.382-.194-2.335-1.554-2.126-3.036.208-1.483 1.498-2.527 2.881-2.332 1.383.194 2.335 1.553 2.127 3.036-.208 1.482-1.498 2.527-2.881 2.332zm65.912-48.252c-3.047-.429-5.162-3.308-4.723-6.432.439-3.124 3.266-5.31 6.313-4.881 3.048.428 5.163 3.308 4.724 6.432-.44 3.124-3.266 5.309-6.314 4.88zm-52.097 28.88c-1.62 1.013-3.585.792-4.387-.493-.803-1.285-.14-3.147 1.48-4.16 1.62-1.012 3.583-.79 4.386.494.803 1.285.14 3.147-1.48 4.16zm21.844-5.468a3.459 3.459 0 1 1-3.666-5.867 3.459 3.459 0 0 1 3.666 5.867zm36.519 32.892a3.459 3.459 0 1 1-3.666-5.867 3.459 3.459 0 0 1 3.666 5.867zM1049.009 130a2.529 2.529 0 1 1-2.68-4.29 2.529 2.529 0 0 1 2.68 4.29zm-9.033 146.224c-3.678-.517-6.23-4.003-5.697-7.787.531-3.783 3.944-6.431 7.623-5.914 3.678.517 6.23 4.003 5.697 7.786-.531 3.784-3.944 6.432-7.623 5.915zm54.333-75.2c-1.383-.195-2.335-1.554-2.127-3.037.209-1.482 1.499-2.527 2.882-2.332 1.383.194 2.335 1.554 2.126 3.036-.208 1.483-1.498 2.527-2.88 2.332zm40.734-10.159c-3.047-.428-5.162-3.308-4.723-6.432.439-3.124 3.265-5.31 6.313-4.88 3.048.428 5.163 3.307 4.724 6.431-.44 3.124-3.266 5.31-6.314 4.881zm-26.92-9.213c-1.62 1.012-3.584.791-4.387-.494-.803-1.285-.14-3.147 1.48-4.16 1.62-1.012 3.584-.79 4.387.494.803 1.285.14 3.147-1.48 4.16zm21.845-5.469a3.459 3.459 0 1 1-3.666-5.867 3.459 3.459 0 0 1 3.666 5.867zm36.518 32.892a3.459 3.459 0 1 1-3.666-5.867 3.459 3.459 0 0 1 3.666 5.867zm-86.712-21.791a2.529 2.529 0 1 1-2.68-4.29 2.529 2.529 0 0 1 2.68 4.29zM1274.309 192.412c-3.679-.517-6.23-4.004-5.698-7.787.532-3.784 3.945-6.432 7.623-5.915 3.679.517 6.23 4.003 5.698 7.787-.532 3.783-3.945 6.432-7.623 5.915zm-30.18 83.586c-1.382-.194-2.334-1.554-2.126-3.036.208-1.483 1.498-2.527 2.881-2.332 1.383.194 2.335 1.553 2.127 3.036-.208 1.482-1.498 2.527-2.881 2.332zm40.735-10.158c-3.048-.429-5.163-3.308-4.724-6.432.44-3.124 3.266-5.31 6.314-4.881 3.048.428 5.163 3.308 4.724 6.432-.44 3.124-3.266 5.31-6.314 4.88zm-26.92-9.214c-1.62 1.013-3.584.792-4.387-.493-.803-1.285-.14-3.147 1.48-4.16 1.62-1.012 3.584-.79 4.387.494.802 1.285.14 3.147-1.48 4.16zm21.844-5.468a3.459 3.459 0 1 1-3.666-5.867 3.459 3.459 0 0 1 3.666 5.867zm36.52 32.892a3.459 3.459 0 1 1-3.667-5.867 3.459 3.459 0 0 1 3.666 5.867zm-86.713-21.791a2.529 2.529 0 1 1-2.68-4.29 2.529 2.529 0 0 1 2.68 4.29zm-6.505 93.367c-3.678-.517-6.229-4.003-5.697-7.787.532-3.783 3.945-6.431 7.623-5.914 3.678.517 6.23 4.003 5.698 7.786-.532 3.784-3.945 6.432-7.624 5.915zm51.804-22.344c-1.383-.194-2.335-1.553-2.127-3.036.209-1.482 1.499-2.527 2.882-2.332 1.383.194 2.335 1.554 2.127 3.036-.209 1.483-1.499 2.527-2.882 2.332zm83.245 95.425c-3.048-.428-5.163-3.308-4.724-6.432.439-3.124 3.266-5.31 6.314-4.88 3.047.428 5.162 3.307 4.723 6.431-.439 3.124-3.266 5.31-6.313 4.881zm-69.43-114.796c-1.62 1.012-3.585.791-4.388-.494-.803-1.285-.14-3.147 1.48-4.16 1.62-1.012 3.584-.79 4.387.494.803 1.285.14 3.147-1.48 4.16zm21.844-5.469a3.459 3.459 0 1 1-3.666-5.867 3.459 3.459 0 0 1 3.666 5.867zm36.519 32.892a3.459 3.459 0 1 1-3.666-5.867 3.459 3.459 0 0 1 3.666 5.867zm-86.713-21.791a2.529 2.529 0 1 1-2.68-4.29 2.529 2.529 0 0 1 2.68 4.29zM744.201 118.986c-3.678-.517-6.229-4.003-5.697-7.787.531-3.783 3.944-6.431 7.623-5.914 3.678.517 6.23 4.003 5.697 7.787-.531 3.783-3.944 6.431-7.623 5.914zm165.42 53.974c-1.382-.195-2.334-1.554-2.126-3.037.208-1.482 1.498-2.526 2.881-2.332 1.383.194 2.336 1.554 2.127 3.036-.208 1.483-1.498 2.527-2.881 2.333zm65.913-48.253c-3.048-.428-5.163-3.308-4.724-6.432.44-3.124 3.266-5.31 6.314-4.88 3.047.428 5.162 3.307 4.723 6.431-.439 3.124-3.265 5.31-6.313 4.881zm-52.098 28.88c-1.62 1.013-3.584.792-4.387-.493-.803-1.285-.14-3.147 1.48-4.16 1.62-1.011 3.584-.79 4.387.494.802 1.285.14 3.147-1.48 4.16zm21.844-5.468a3.459 3.459 0 1 1-3.666-5.867 3.459 3.459 0 0 1 3.666 5.867zm36.52 32.892a3.459 3.459 0 1 1-3.667-5.867 3.459 3.459 0 0 1 3.666 5.867zm-86.713-21.791a2.529 2.529 0 1 1-2.68-4.289 2.529 2.529 0 0 1 2.68 4.289zm-9.034 146.224c-3.678-.517-6.229-4.003-5.697-7.786.532-3.784 3.945-6.432 7.623-5.915 3.678.517 6.23 4.003 5.698 7.787-.532 3.783-3.945 6.431-7.624 5.914zm54.333-75.2c-1.383-.195-2.335-1.554-2.126-3.036.208-1.483 1.498-2.527 2.88-2.333 1.384.195 2.336 1.554 2.128 3.036-.209 1.483-1.499 2.527-2.882 2.333zm40.735-10.159c-3.048-.428-5.163-3.308-4.724-6.432.439-3.124 3.266-5.309 6.314-4.88 3.047.428 5.162 3.308 4.723 6.431-.439 3.124-3.266 5.31-6.313 4.881zm-26.92-9.213c-1.62 1.012-3.585.791-4.388-.493-.803-1.285-.14-3.148 1.48-4.16s3.584-.791 4.387.494c.803 1.284.14 3.147-1.48 4.159zm21.844-5.469a3.459 3.459 0 1 1-3.666-5.866 3.459 3.459 0 0 1 3.666 5.866zm36.519 32.892a3.459 3.459 0 1 1-3.666-5.866 3.459 3.459 0 0 1 3.666 5.866zm-86.713-21.79a2.529 2.529 0 1 1-2.68-4.29 2.529 2.529 0 0 1 2.68 4.29zM478.635 212.412c3.678-.517 6.229-4.004 5.697-7.787-.531-3.784-3.944-6.432-7.623-5.915-3.678.517-6.23 4.003-5.697 7.787.531 3.783 3.944 6.432 7.623 5.915zm30.179 83.586c1.383-.194 2.335-1.554 2.127-3.036-.209-1.483-1.499-2.527-2.882-2.332-1.383.194-2.335 1.553-2.127 3.036.209 1.482 1.499 2.527 2.882 2.332zm-40.735-10.158c3.048-.429 5.163-3.308 4.724-6.432-.439-3.124-3.266-5.31-6.313-4.881-3.048.428-5.163 3.308-4.724 6.432.439 3.124 3.266 5.31 6.313 4.88zm26.92-9.214c1.62 1.013 3.585.792 4.388-.493.803-1.285.14-3.147-1.48-4.16-1.62-1.012-3.584-.79-4.387.494-.803 1.285-.14 3.147 1.48 4.16zm-21.844-5.468a3.459 3.459 0 1 0 3.666-5.867 3.459 3.459 0 0 0-3.666 5.867zm-36.519 32.892a3.459 3.459 0 1 0 3.666-5.867 3.459 3.459 0 0 0-3.666 5.867zm86.713-21.791a2.529 2.529 0 1 0 2.68-4.29 2.529 2.529 0 0 0-2.68 4.29zm6.504 93.367c3.678-.517 6.23-4.003 5.698-7.787-.532-3.783-3.945-6.431-7.624-5.914-3.678.517-6.229 4.003-5.697 7.786.532 3.784 3.945 6.432 7.623 5.915zm-51.804-22.344c1.383-.194 2.335-1.553 2.127-3.036-.208-1.482-1.498-2.527-2.881-2.332-1.383.194-2.336 1.554-2.127 3.036.208 1.483 1.498 2.527 2.881 2.332zm-83.244 95.425c3.048-.428 5.163-3.308 4.723-6.432-.439-3.124-3.265-5.31-6.313-4.88-3.048.428-5.163 3.307-4.724 6.431.44 3.124 3.266 5.31 6.314 4.881zm69.43-114.796c1.62 1.012 3.584.791 4.387-.494.803-1.285.14-3.147-1.48-4.16-1.62-1.012-3.584-.79-4.387.494-.802 1.285-.14 3.147 1.48 4.16zm-21.844-5.469a3.459 3.459 0 1 0 3.666-5.867 3.459 3.459 0 0 0-3.666 5.867zm-36.52 32.892a3.459 3.459 0 1 0 3.667-5.867 3.459 3.459 0 0 0-3.666 5.867zm86.713-21.791a2.529 2.529 0 1 0 2.68-4.29 2.529 2.529 0 0 0-2.68 4.29zm516.158-200.557c3.679-.517 6.23-4.003 5.698-7.787-.532-3.783-3.945-6.431-7.623-5.914-3.679.517-6.23 4.003-5.698 7.787.532 3.783 3.945 6.431 7.623 5.914zm-165.42 53.974c1.383-.195 2.335-1.554 2.126-3.037-.208-1.482-1.498-2.526-2.88-2.332-1.384.194-2.336 1.554-2.128 3.036.209 1.483 1.499 2.527 2.882 2.333zm-65.912-48.253c3.048-.428 5.162-3.308 4.723-6.432-.439-3.124-3.265-5.31-6.313-4.88-3.048.428-5.163 3.307-4.724 6.431.44 3.124 3.266 5.31 6.314 4.881zm52.098 28.88c1.62 1.013 3.584.792 4.387-.493.803-1.285.14-3.147-1.48-4.16-1.62-1.011-3.584-.79-4.387.494-.803 1.285-.14 3.147 1.48 4.16zm-21.845-5.468a3.459 3.459 0 1 0 3.666-5.867 3.459 3.459 0 0 0-3.666 5.867zm-36.519 32.892a3.459 3.459 0 1 0 3.666-5.867 3.459 3.459 0 0 0-3.666 5.867zm86.713-21.791a2.529 2.529 0 1 0 2.68-4.289 2.529 2.529 0 0 0-2.68 4.289zm9.033 146.224c3.678-.517 6.23-4.003 5.698-7.786-.532-3.784-3.945-6.432-7.624-5.915-3.678.517-6.229 4.003-5.697 7.787.532 3.783 3.945 6.431 7.623 5.914zm-54.333-75.2c1.383-.195 2.335-1.554 2.127-3.036-.208-1.483-1.498-2.527-2.881-2.333-1.383.195-2.336 1.554-2.127 3.036.208 1.483 1.498 2.527 2.881 2.333zm-40.734-10.159c3.048-.428 5.163-3.308 4.724-6.432-.44-3.124-3.266-5.309-6.314-4.88-3.048.428-5.163 3.308-4.724 6.431.44 3.124 3.266 5.31 6.314 4.881zm26.92-9.213c1.62 1.012 3.584.791 4.387-.493.803-1.285.14-3.148-1.48-4.16s-3.584-.791-4.387.494c-.802 1.284-.14 3.147 1.48 4.159zm-21.844-5.469a3.459 3.459 0 1 0 3.666-5.866 3.459 3.459 0 0 0-3.666 5.866zm-36.52 32.892a3.459 3.459 0 1 0 3.667-5.866 3.459 3.459 0 0 0-3.666 5.866zm86.713-21.79a2.529 2.529 0 1 0 2.68-4.29 2.529 2.529 0 0 0-2.68 4.29z"/>
    <path fill="#695942" d="M373.906 275.206c-4.142 0-7.5 3.108-7.5-1.034a7.5 7.5 0 0 1 15 0c0 4.142-3.358 1.034-7.5 1.034zm389.119 70.391c-4.142 0-7.5 3.109-7.5-1.034a7.5 7.5 0 1 1 15 0c0 4.143-3.358 1.034-7.5 1.034zm661.5 86.782c-4.142 0-7.5 3.109-7.5-1.033a7.5 7.5 0 1 1 15 0c0 4.142-3.358 1.033-7.5 1.033zm42-194.173c-4.142 0-7.5 3.108-7.5-1.034a7.5 7.5 0 1 1 15 0c0 4.142-3.358 1.034-7.5 1.034zm-159.782-37.653c-4.142 0-7.5 3.108-7.5-1.034a7.5 7.5 0 0 1 15 0c0 4.142-3.358 1.034-7.5 1.034zM513.48 317.583c-1.211-3.961-5.166-6.264-1.204-7.475a7.5 7.5 0 1 1 4.385 14.345c-3.961 1.21-1.97-2.91-3.181-6.87zm-485.07-73.93c-1.21-3.96-5.165-6.263-1.204-7.474a7.5 7.5 0 0 1 4.385 14.345c-3.96 1.21-1.97-2.91-3.18-6.87zm1324.937 47.687c-1.211-3.962-5.166-6.264-1.205-7.475a7.5 7.5 0 1 1 4.386 14.345c-3.961 1.21-1.97-2.91-3.181-6.87zm-905.059 183.5c-1.21-3.962-5.165-6.264-1.204-7.475a7.5 7.5 0 0 1 4.386 14.345c-3.961 1.21-1.97-2.91-3.182-6.87zm574-118.456c-1.21-3.961-5.165-6.264-1.204-7.475a7.5 7.5 0 1 1 4.386 14.345c-3.961 1.211-1.97-2.909-3.182-6.87zm142 157.956c-1.21-3.962-5.165-6.264-1.204-7.475a7.5 7.5 0 1 1 4.386 14.345c-3.961 1.21-1.97-2.91-3.182-6.87zm-448.5-303c-1.21-3.962-5.165-6.264-1.204-7.475a7.5 7.5 0 0 1 4.386 14.345c-3.961 1.21-1.97-2.91-3.182-6.87zM261.984 333.022c.72 4.08 4.364 6.846.285 7.566a7.5 7.5 0 0 1-2.605-14.772c4.08-.72 1.6 3.127 2.32 7.206zm639.747 103.23c.72 4.08 4.364 6.847.285 7.566a7.5 7.5 0 0 1-2.605-14.772c4.08-.72 1.601 3.128 2.32 7.207z"/>
    <path fill="#8D795C" d="M1249.065 244.553c4.142 0 7.5 3.108 7.5-1.034a7.5 7.5 0 0 0-15 0c0 4.142 3.358 1.034 7.5 1.034zm-389.119 70.39c4.142 0 7.5 3.11 7.5-1.033a7.5 7.5 0 1 0-15 0c0 4.142 3.358 1.034 7.5 1.034zm-661.5 86.783c4.142 0 7.5 3.109 7.5-1.034a7.5 7.5 0 1 0-15 0c0 4.143 3.358 1.034 7.5 1.034zm-42-194.173c4.142 0 7.5 3.108 7.5-1.034a7.5 7.5 0 1 0-15 0c0 4.142 3.358 1.034 7.5 1.034zm159.782-37.654c4.142 0 7.5 3.109 7.5-1.033a7.5 7.5 0 1 0-15 0c0 4.142 3.358 1.033 7.5 1.033zm793.263 117.03c1.211-3.96 5.166-6.263 1.205-7.474a7.5 7.5 0 1 0-4.386 14.345c3.961 1.21 1.97-2.91 3.181-6.87zM1594.561 213c1.211-3.96 5.165-6.263 1.204-7.474a7.5 7.5 0 0 0-4.385 14.344c3.96 1.211 1.97-2.908 3.181-6.87zM269.624 260.686c1.211-3.96 5.166-6.263 1.205-7.474a7.5 7.5 0 0 0-4.386 14.344c3.961 1.211 1.97-2.909 3.181-6.87zm905.059 183.5c1.21-3.96 5.165-6.263 1.204-7.474a7.5 7.5 0 0 0-4.386 14.344c3.962 1.211 1.97-2.909 3.182-6.87zm-574-118.455c1.21-3.961 5.165-6.264 1.204-7.475a7.5 7.5 0 1 0-4.386 14.345c3.962 1.21 1.97-2.91 3.182-6.87zm-142 157.955c1.21-3.96 5.165-6.263 1.204-7.474a7.5 7.5 0 1 0-4.386 14.344c3.962 1.211 1.97-2.909 3.182-6.87zm448.5-303c1.21-3.96 5.165-6.263 1.204-7.474a7.5 7.5 0 0 0-4.386 14.344c3.962 1.211 1.97-2.909 3.182-6.87zm453.804 121.683c-.72 4.079-4.364 6.846-.284 7.565a7.5 7.5 0 0 0 2.604-14.772c-4.079-.719-1.6 3.128-2.32 7.207zM721.24 405.599c-.72 4.08-4.364 6.847-.285 7.566a7.5 7.5 0 0 0 2.605-14.772c-4.08-.72-1.601 3.127-2.32 7.206z"/>
    <g fill-rule="nonzero">
      <path fill="#BAC68E" d="M1509.512 302.24v-58.866c-4.112 8.74-7.72 14.447-10.887 17.17-4.164 3.58-10.781 5.077-19.824 4.585l.136-2.496c8.46.46 14.47-.9 18.058-3.985 3.378-2.905 7.584-10.043 12.517-21.339v-26.69h-23.286c-15.628 0-22.949 12.314-21.928 37.688l-2.498.1c-1.07-26.61 7.06-40.289 24.426-40.289h23.286v-43.834c-4.112 8.74-7.72 14.448-10.887 17.17-4.164 3.58-10.781 5.077-19.824 4.585l.136-2.496c8.46.46 14.47-.9 18.058-3.985 3.378-2.904 7.584-10.042 12.517-21.338V95.77c-4.112 8.74-7.72 14.448-10.887 17.17-.235.202-.477.397-.727.586 1.049 26.553-7.083 40.2-24.43 40.2h-27.034v-2.5h27.035c15.316 0 22.653-11.829 21.978-36.187-4.082 2.054-9.635 2.869-16.646 2.487l.136-2.496c8.46.46 14.47-.9 18.058-3.985 3.378-2.905 7.584-10.043 12.517-21.338V31.073h5V89.39c5.34 11.047 9.888 18.29 13.575 21.683 3.852 3.544 9.46 4.886 16.914 3.964l.307 2.481c-8.128 1.005-14.464-.51-18.914-4.606-3.419-3.145-7.365-9.104-11.882-17.909v35.136h24.535c17.365 0 25.496 13.678 24.425 40.29l-2.498-.1c1.021-25.375-6.3-37.69-21.927-37.69h-24.535v25.265c5.34 11.046 9.888 18.29 13.575 21.682 3.852 3.545 9.46 4.886 16.914 3.965l.307 2.48c-8.128 1.005-14.464-.51-18.914-4.605-3.419-3.146-7.365-9.105-11.882-17.91v15.457l.091.004c-.052 1.31-.083 2.584-.091 3.824v1.369c.149 21.863 7.497 32.496 22.019 32.496h27.035v2.5h-15.903c-.23 11.554 3.238 16.995 10.375 16.995h13.518v2.5h-13.518c-8.822 0-13.104-6.723-12.875-19.495h-8.632c-11.131 0-18.468-5.62-22.02-16.662v34.49c5.342 11.046 9.889 18.29 13.576 21.682 3.852 3.544 9.46 4.886 16.914 3.964l.307 2.481c-8.128 1.005-14.464-.51-18.914-4.606-3.419-3.145-7.365-9.104-11.882-17.909v21.612l.091.004c-.052 1.31-.083 2.584-.091 3.824v1.37c.149 21.862 7.497 32.495 22.019 32.495h27.035v2.5h-27.035c-11.131 0-18.468-5.62-22.02-16.662v25.208l.046.002a57.59 57.59 0 0 0-.045 1.771v.97c.102 10.497 3.572 15.453 10.384 15.453h13.517v2.5H1524.896c-4.809 0-8.269-1.997-10.384-5.883v19.409h-5v-36.625c-3.891 8.854-10.812 13.352-20.77 13.352h-27.035v-2.5h27.035c11.176 0 18.103-6.298 20.77-19.166zM94.512 299.813v-58.866c-4.112 8.74-7.72 14.448-10.887 17.17-4.164 3.58-10.781 5.078-19.824 4.585l.136-2.496c8.46.46 14.47-.9 18.058-3.985 3.378-2.904 7.584-10.042 12.517-21.338v-26.691H71.226c-15.628 0-22.949 12.315-21.928 37.689l-2.498.1c-1.07-26.611 7.06-40.29 24.426-40.29h23.286v-43.833c-4.112 8.74-7.72 14.447-10.887 17.17-4.164 3.58-10.781 5.077-19.824 4.585l.136-2.496c8.46.46 14.47-.9 18.058-3.985 3.378-2.905 7.584-10.043 12.517-21.338v-62.45c-4.112 8.74-7.72 14.448-10.887 17.17-.235.202-.477.397-.727.585 1.049 26.553-7.083 40.2-24.43 40.2H31.435v-2.5h27.035c15.316 0 22.653-11.828 21.978-36.186-4.082 2.054-9.635 2.868-16.646 2.487l.136-2.497c8.46.46 14.47-.9 18.058-3.985 3.378-2.904 7.584-10.042 12.517-21.338V28.647h5v58.317c5.34 11.046 9.888 18.29 13.575 21.682 3.852 3.545 9.46 4.886 16.914 3.965l.307 2.48c-8.128 1.006-14.464-.51-18.914-4.605-3.419-3.145-7.365-9.105-11.882-17.91v35.137h24.535c17.365 0 25.496 13.678 24.425 40.29l-2.498-.1c1.021-25.375-6.3-37.69-21.927-37.69H99.512v25.264c5.34 11.047 9.888 18.29 13.575 21.683 3.852 3.544 9.46 4.886 16.914 3.964l.307 2.481c-8.128 1.005-14.464-.51-18.914-4.606-3.419-3.145-7.365-9.104-11.882-17.909v15.457l.091.003c-.052 1.31-.083 2.584-.091 3.824v1.37c.149 21.862 7.497 32.495 22.019 32.495h27.035v2.5h-15.903c-.23 11.555 3.238 16.995 10.375 16.995h13.518v2.5h-13.518c-8.822 0-13.104-6.723-12.875-19.495h-8.632c-11.131 0-18.468-5.619-22.02-16.662v34.49c5.342 11.046 9.889 18.29 13.576 21.682 3.852 3.545 9.46 4.886 16.914 3.965l.307 2.48c-8.128 1.005-14.464-.51-18.914-4.605-3.419-3.146-7.365-9.105-11.882-17.91v21.613l.091.003c-.052 1.31-.083 2.585-.091 3.825v1.369c.149 21.863 7.497 32.496 22.019 32.496h27.035v2.5H121.53c-11.131 0-18.468-5.62-22.02-16.663v25.208l.046.002c-.025.606-.04 1.197-.045 1.772v.97c.102 10.497 3.572 15.453 10.384 15.453h13.517v2.5H109.896c-4.809 0-8.269-1.998-10.384-5.883v19.409h-5v-36.626c-3.891 8.855-10.812 13.352-20.77 13.352H46.707v-2.5h27.035c11.176 0 18.103-6.298 20.77-19.166zM819.584 104.112c2.792 2.816 4.778 6.497 6.076 10.822 1.56 5.193 1.969 10.565 1.754 15.13-.017.367-.035.633-.048.785l-4.566-.39c.008-.096.022-.303.037-.611.192-4.091-.18-8.983-1.566-13.596-.56-1.866-1.26-3.568-2.106-5.086-7.213 6.866-11.736 12.99-13.58 18.334-2.066 5.991-3.18 13.891-3.33 23.689l-2.29-.035c.152-10.021 1.3-18.152 3.455-24.401 2.01-5.827 6.842-12.332 14.488-19.553a15.554 15.554 0 0 0-3.252-3.317c-3.162-2.36-6.729-4.029-13.807-6.76-.344-.134-.753-.29-1.506-.581-2.757-1.062-5.145-2.032-7.223-2.965 1.419 6.598 1.547 18.211.553 35.144l-2.287-.134c1.092-18.6.716-30.839-.863-36.24-2.732-1.373-4.823-2.719-6.477-4.23-7.633 5.496-12.746 9.829-15.286 12.917-1 1.216-1.95 2.491-2.859 3.826-2.285 3.358-4.175 6.873-6.045 10.986-.04.088-2.85 6.564-3.444 7.604-2.62 4.592-4.078 17.343-4.15 37.782l-4.582-.016c.062-17.779 1.124-29.907 3.317-36.66-6.622.472-12.138 2.161-16.563 5.056-5.274 3.452-9.428 8.828-12.459 16.16l-2.117-.875c3.197-7.737 7.637-13.481 13.322-17.202 5.013-3.28 11.26-5.105 18.725-5.49.17-.366.345-.708.526-1.025.449-.786 3.086-6.863 3.253-7.231 1.97-4.332 3.977-8.065 6.428-11.667.428-.628.864-1.244 1.31-1.85-7.468-.51-15.936-.414-25.402.29-10.637.79-18.925 6.17-24.952 16.23l-1.966-1.178c6.401-10.682 15.347-16.49 26.748-17.337 10.217-.76 19.302-.819 27.258-.176l.112-.137c2.82-3.428 8.1-7.916 15.892-13.541a18.788 18.788 0 0 1-.915-1.672c-3.68-7.582-5.022-25.428-4.21-53.992l4.581.13c-.79 27.769.522 45.207 3.751 51.861 2.197 4.527 6.55 7.07 17.671 11.356l1.509.581c5.994 2.314 9.642 3.924 12.715 5.863 7.904 1.777 14.991 3.897 21.262 6.36 7.667 3.012 13.981 12.663 19.104 28.89l-2.185.69c-4.933-15.628-10.906-24.756-17.757-27.447-4.844-1.903-10.196-3.6-16.054-5.091zM1416.16 97.202a10.164 10.164 0 0 0-2.125-2.168c-2.067-1.541-4.397-2.632-9.023-4.417l-.984-.38c-5.316-2.048-8.531-3.57-10.65-5.505-4.987 3.591-8.329 6.423-9.989 8.441a34.379 34.379 0 0 0-1.868 2.5c-1.493 2.194-2.728 4.491-3.95 7.179-.026.057-1.863 4.29-2.25 4.969-1.712 3-2.665 11.333-2.712 24.689l-2.995-.01c.041-11.618.735-19.543 2.168-23.956-4.327.308-7.932 1.412-10.823 3.304-3.447 2.255-6.161 5.768-8.142 10.56l-1.383-.572c2.09-5.056 4.99-8.81 8.705-11.24 3.276-2.145 7.358-3.337 12.236-3.588.111-.24.226-.463.344-.67.293-.514 2.017-4.485 2.126-4.726 1.287-2.83 2.6-5.27 4.2-7.624a37.363 37.363 0 0 1 2.032-2.717c1.842-2.24 5.292-5.173 10.384-8.849-.214-.346-.412-.71-.598-1.092-2.404-4.954-3.281-16.617-2.75-35.282l2.993.085c-.516 18.146.34 29.541 2.451 33.89 1.436 2.958 4.28 4.62 11.547 7.42l.986.38c4.877 1.882 7.378 3.053 9.735 4.811a13.14 13.14 0 0 1 2.749 2.792l-.056-.566c5.503-.54 11.874-.54 19.115-.001 7.45.553 13.296 4.349 17.48 11.33l-1.285.769c-3.737-6.236-8.802-9.72-15.246-10.503 1.869 3.084 2.262 11.59 1.418 25.953l-1.494-.088c.926-15.773.237-24.546-1.69-25.637l.207-.367c-6.734-.48-12.686-.484-17.855-.013.863 1.372 1.543 2.932 2.058 4.646 1.018 3.394 1.286 6.904 1.146 9.886-.012.24-.023.414-.032.514l-2.983-.255c.005-.062.014-.198.023-.4.126-2.673-.117-5.87-1.022-8.884-.367-1.22-.824-2.331-1.377-3.323-4.714 4.486-7.67 8.488-8.874 11.98-1.35 3.916-2.078 9.078-2.176 15.48l-1.497-.023c.1-6.548.85-11.86 2.258-15.945 1.313-3.808 4.472-8.058 9.468-12.777zM1284.82 89.464a10.164 10.164 0 0 1 2.126-2.168c2.067-1.542 4.397-2.632 9.023-4.418l.984-.379c4.167-1.605 7.043-2.887 9.112-4.299l-.199.528c5.654 7.594 9.41 13.537 11.226 17.707a81.24 81.24 0 0 1 1.935 4.894c1.548 4.297 2.828 8.794 4.094 14.055.027.113 1.93 8.399 2.332 9.73 1.774 5.874 2.762 22.187 2.81 48.335l3.103-.02c-.017-9.097-.142-17.038-.38-23.845 4.342.304 7.958 1.41 10.857 3.306 3.446 2.256 6.161 5.769 8.141 10.56l1.384-.572c-2.09-5.056-4.99-8.81-8.706-11.24-3.162-2.07-7.076-3.253-11.732-3.558-.492-12.745-1.406-21.315-2.781-25.872-.304-1.005-2.09-8.78-2.203-9.25-1.334-5.542-2.693-10.318-4.353-14.927a88.299 88.299 0 0 0-2.105-5.32c-1.89-4.341-5.413-10.012-10.603-17.108.473-.613.876-1.277 1.233-2.011 2.404-4.955 3.281-16.617 2.75-35.282l-2.993.085c.516 18.146-.34 29.54-2.451 33.89-1.436 2.958-4.28 4.62-11.548 7.42-.491.189-.76.292-.985.38-4.878 1.882-7.379 3.053-9.736 4.81a13.14 13.14 0 0 0-2.748 2.793l.056-.566c-5.503-.54-11.874-.54-19.115-.002-7.45.554-13.296 4.35-17.48 11.33l1.285.77c3.737-6.236 8.802-9.72 15.246-10.503-1.87 3.084-2.262 11.59-1.418 25.953l1.494-.088c-.926-15.773-.237-24.546 1.69-25.637l-.207-.368c6.734-.48 12.686-.484 17.854-.013-.862 1.373-1.542 2.932-2.057 4.647-1.019 3.393-1.286 6.904-1.146 9.886.011.24.023.414.032.514l2.983-.255a11.876 11.876 0 0 1-.024-.4c-.125-2.673.118-5.87 1.023-8.884.366-1.22.824-2.332 1.377-3.323 4.713 4.486 7.669 8.488 8.873 11.98 1.35 3.915 2.079 9.077 2.177 15.48l1.497-.023c-.1-6.548-.85-11.861-2.258-15.945-1.313-3.808-4.472-8.058-9.468-12.777zM520.498 131.695l33.748 23.873-1.074 1.518-32.674-23.113v60.048h-5.554v-20.303c-3.788.38-6.47 1.569-8.078 3.53-2.017 2.46-2.814 5.407-2.393 8.904l-1.845.223c-.48-3.988.453-7.444 2.8-10.305 1.986-2.421 5.17-3.814 9.516-4.219V144.04c-5.289.628-9.7 2.153-13.24 4.568-4.038 2.755-6.81 8.629-8.237 17.664l-1.836-.29c1.498-9.492 4.48-15.809 9.026-18.91 3.852-2.627 8.618-4.26 14.287-4.904V122.45c-4.541.206-7.688 1.435-9.49 3.632-2.018 2.459-2.814 5.406-2.393 8.903l-1.846.223c-.48-3.988.454-7.444 2.8-10.305 2.196-2.676 5.856-4.096 10.93-4.314V94.324l-30.861 21.83-1.074-1.518 31.934-22.59V27.422h5.554v32.524l33.748 25.35-1.117 1.486-32.631-24.51v46.263c5.49.54 10.081 2.061 13.764 4.573 4.176 2.849 6.915 8.652 8.292 17.372l-1.687.266c-1.31-8.3-3.858-13.697-7.568-16.227-3.394-2.315-7.657-3.74-12.801-4.267v21.444zm26.09 49.431l-1.836.29c-1.426-9.034-4.199-14.909-8.238-17.664-4.142-2.825-9.476-4.433-16.016-4.81l.107-1.856c6.857.395 12.515 2.1 16.957 5.13 4.546 3.102 7.528 9.419 9.026 18.91zM641.77 126.426l30.91 21.865-.983 1.39-29.927-21.17v55h-5.087v-18.596c-3.47.348-5.925 1.437-7.4 3.234-1.846 2.252-2.576 4.952-2.19 8.155l-1.691.203c-.44-3.652.416-6.817 2.565-9.438 1.819-2.217 4.736-3.493 8.716-3.864v-25.474c-4.845.575-8.884 1.973-12.126 4.184-3.7 2.524-6.24 7.904-7.545 16.179l-1.682-.266c1.372-8.693 4.103-14.479 8.267-17.32 3.528-2.406 7.893-3.9 13.086-4.49v-32.392c-4.16.19-7.042 1.314-8.693 3.327-1.847 2.252-2.577 4.951-2.191 8.154l-1.69.204c-.44-3.653.415-6.817 2.565-9.438 2.01-2.451 5.362-3.752 10.01-3.951V65.226L608.416 85.22l-.983-1.39 29.25-20.69V30.92h5.086v20.988c7.777.708 14.266 2.823 19.45 6.36 5.772 3.937 9.558 11.957 11.46 24.008l-2.332.368c-1.81-11.47-5.33-18.929-10.458-22.426-4.784-3.264-10.82-5.248-18.12-5.94v29.26l31.556 23.703-1.023 1.362-30.533-22.935v40.758zm23.896 45.274l-1.682.266c-1.306-8.275-3.846-13.655-7.545-16.179-3.794-2.588-8.68-4.06-14.67-4.406l.098-1.7c6.281.362 11.463 1.924 15.532 4.7 4.164 2.84 6.895 8.626 8.267 17.32zM378.067 118.485a27.547 27.547 0 0 0-1.693 2.058c-4.814 6.506-7.856 18.173-8.982 34.937l-4.477-.3c1.179-17.545 4.415-29.958 9.852-37.306 1.455-1.966 3.351-3.98 5.69-6.043-17.912-1.796-29.438-.602-34.45 3.427-5.338 4.291-8.086 8.768-8.333 13.445l-2.24-.119c.284-5.386 3.37-10.415 9.167-15.075 5.834-4.69 18.534-5.858 38.246-3.682 5.685-4.542 13.45-9.325 23.309-14.382-4.191-7.332-6.049-25.423-5.81-54.78l4.488.037c-.234 28.606 1.599 46.307 5.258 52.587 2.291 3.93 7.493 7.31 17.517 12.068 1.06.503 4.864 2.285 5.644 2.654 1.334.63 2.468 1.18 3.49 1.69 12.952-.615 22.424 2.78 28.315 10.246 6.439 8.158 10.925 16.759 13.451 25.796l-2.16.604c-2.444-8.743-6.793-17.079-13.052-25.01-4.789-6.068-12.255-9.232-22.469-9.452 2.264 1.316 3.983 2.551 5.265 3.833 5.184 5.187 7.54 13.337 7.211 24.341l-4.485-.133c.264-8.84-1.322-15.355-4.652-19.623-8.19 7.875-13.016 14.418-14.484 19.552-1.581 5.53-2.047 13.34-1.378 23.409l-2.239.148c-.684-10.304-.204-18.354 1.46-24.174 1.603-5.608 6.65-12.45 15.134-20.599-1.305-1.217-3.33-2.526-6.188-4.033-1.426-.753-3.018-1.536-5.139-2.54-.767-.363-4.575-2.145-5.649-2.655-2.567-1.22-4.844-2.355-6.863-3.445v30.994h-4.487v-33.62c-2.206-1.42-3.982-2.812-5.409-4.271-12.018 6.118-20.813 11.773-26.36 16.902-1.584 14.455.21 23.982 5.23 28.585 6.276 5.752 9.305 14.624 9.138 26.538l-2.243-.032c.159-11.324-2.661-19.582-8.41-24.852-5.32-4.876-7.35-14.118-6.213-27.725zM977.945 96.667V36.793h2.756V92.06c2.622-.01 5.648.989 9.083 2.974 2.82 1.63 4.283 3.757 5.895 7.663a103.724 103.724 0 0 1 .43 1.056c1.214 2.993 1.937 4.325 3.219 5.534 1.574 1.484 4.379 2.088 8.332 2.03 1.423-.02 2.821-.115 4.836-.3 3.469-.318 3.357-.31 4.193-.31 2.881 0 5.57 2.998 8.216 8.866l-1.256.567c-2.44-5.412-4.81-8.055-6.96-8.055-.77 0-.687-.006-4.067.304-2.047.188-3.476.284-4.941.306-4.284.062-7.39-.607-9.298-2.406-1.473-1.388-2.264-2.846-3.55-6.018l-.214-.525c-.08-.2-.148-.365-.213-.523-1.507-3.65-2.816-5.553-5.312-6.996-3.248-1.878-6.047-2.8-8.393-2.79v18.14c3.482.772 6.292 2.086 8.414 3.961 2.464 2.177 4.144 6.988 5.232 14.53l-2.727.393c-1-6.93-2.508-11.249-4.329-12.858-1.63-1.44-3.823-2.51-6.59-3.196v40.061h-2.756v-23.394c-1.94 2.862-3.84 4.563-5.737 5.091-2.427.677-4.96.677-7.59.004l.34-1.335c2.402.614 4.69.614 6.88.004 1.862-.518 3.92-2.628 6.107-6.35V99.426c-7.981.38-12.615 2.204-14.022 5.215-4.385 9.392-7.368 13.568-12.7 14.998-4.063 1.09-10.155 1.09-18.333.036l.352-2.733c7.852 1.012 13.628 1.012 17.268.035 4.207-1.128 6.899-4.897 10.917-13.502 1.968-4.215 7.515-6.397 16.518-6.807zM895.766 78.614V25.21h2.457v49.294c2.34-.01 5.038.882 8.102 2.653 2.515 1.454 3.82 3.35 5.258 6.835.06.143.12.292.193.472l.19.469c1.084 2.67 1.728 3.858 2.872 4.936 1.403 1.323 3.905 1.862 7.431 1.81 1.269-.018 2.517-.102 4.313-.267 3.094-.284 2.995-.276 3.74-.276 2.57 0 4.968 2.673 7.329 7.908l-1.12.505c-2.178-4.827-4.292-7.184-6.208-7.184-.687 0-.614-.006-3.628.27-1.826.168-3.1.254-4.407.273-3.822.056-6.592-.54-8.293-2.145-1.314-1.239-2.02-2.539-3.167-5.368l-.19-.468a91.262 91.262 0 0 0-.19-.467c-1.345-3.256-2.512-4.953-4.738-6.24-2.897-1.674-5.394-2.497-7.487-2.487v16.179c3.106.688 5.613 1.86 7.506 3.532 2.197 1.942 3.695 6.233 4.666 12.96l-2.432.35c-.892-6.181-2.237-10.033-3.861-11.468-1.455-1.285-3.41-2.24-5.879-2.85v35.731h-2.457v-20.865c-1.731 2.552-3.425 4.069-5.117 4.54-2.165.604-4.425.604-6.77.004l.304-1.19c2.141.547 4.183.547 6.136.003 1.66-.463 3.495-2.345 5.447-5.663V81.074c-7.119.339-11.252 1.965-12.506 4.651-3.912 8.377-6.572 12.102-11.328 13.377-3.624.972-9.057.972-16.352.032l.314-2.438c7.004.903 12.155.903 15.402.032 3.752-1.006 6.153-4.368 9.737-12.043 1.755-3.76 6.702-5.706 14.733-6.071z"/>
      <path fill="#BAC68E" d="M1198.48 218.984c-10.184-.1-17.08 1.31-20.64 4.172-5.257 4.226-7.963 8.636-8.206 13.242l-.059 1.103-2.206-.117.058-1.103c.28-5.305 3.32-10.258 9.03-14.848 5.566-4.475 17.482-5.694 35.877-3.816v-63.078c-4.225 3.116-7.362 6.06-9.404 8.82-4.742 6.408-7.738 17.9-8.847 34.41l-.148 2.205-4.41-.296.148-2.205c1.161-17.28 4.349-29.505 9.704-36.743 5.228-7.065 16.243-14.747 33.106-23.202l.305-.153c-.384-3.904-.536-8.195-.457-12.875l.037-78 4.42.074-.038 78c-.228 13.514 1.533 23.42 5.18 29.676 2.255 3.872 7.38 7.2 17.251 11.887 1.044.496 4.791 2.25 5.56 2.613 2.14 1.014 3.76 1.81 5.232 2.587 3.369 1.776 5.76 3.35 7.414 5.005a19.659 19.659 0 0 1 1.784 2.053c14.56-1.428 25.063 1.825 31.383 9.834 6.341 8.035 10.76 16.506 13.248 25.407l.298 1.064-2.129.595-.297-1.064c-2.407-8.612-6.69-16.822-12.855-24.633-5.626-7.13-15.007-10.19-28.257-9.11 1.028 1.764 1.854 3.742 2.48 5.927.771 2.697 1.24 7.248 1.447 13.764l.07 2.21-4.417.14-.07-2.21c-.196-6.173-.636-10.44-1.28-12.688-.975-3.412-2.489-6.122-4.53-8.165-1.27-1.27-3.342-2.633-6.35-4.22-1.406-.741-2.974-1.512-5.062-2.501-.756-.358-4.507-2.114-5.564-2.616-7.606-3.61-12.622-6.482-15.923-9.611-2.212 16.082-.569 26.558 4.747 31.43 6.18 5.665 9.164 14.403 9 26.137l-.016 1.105-2.21-.03.016-1.106c.123-8.735-1.554-15.618-5.008-20.685-8.602 8.132-13.648 14.858-15.145 20.095-1.557 5.447-2.016 13.14-1.357 23.056l.073 1.103-2.205.146-.073-1.102c-.674-10.149-.201-18.078 1.437-23.81 1.643-5.745 6.955-12.804 15.928-21.26a21.48 21.48 0 0 0-1.934-2.02c-6.205-5.688-7.865-17.409-5.182-35.16a16.76 16.76 0 0 1-1.323-1.942c-2.211-3.793-3.78-8.609-4.724-14.453-6.49 3.29-12.035 6.446-16.633 9.456v108.376c8.33 8.009 13.288 14.734 14.864 20.248 1.639 5.732 2.112 13.661 1.437 23.81l-.073 1.102-2.205-.146.074-1.103c.659-9.916.2-17.609-1.357-23.055-1.352-4.73-5.597-10.672-12.74-17.767v13.538h-4.42v-56.643c-4.227-.436-8.1-.705-11.614-.809 2.568 17.447.88 28.986-5.263 34.616-5.662 5.19-8.44 13.324-8.284 24.478l.016 1.104-2.21.031-.015-1.104c-.165-11.735 2.82-20.473 9-26.138 5.49-5.032 7.062-16.042 4.516-33.032zM1047.545 181.518c-10.184-.1-17.08 1.31-20.64 4.171-5.257 4.227-7.963 8.637-8.206 13.242l-.059 1.104-2.206-.117.058-1.103c.28-5.305 3.32-10.258 9.03-14.848 5.566-4.475 17.482-5.695 35.877-3.816v-63.078c-4.225 3.115-7.362 6.06-9.405 8.82-4.741 6.408-7.737 17.9-8.846 34.41l-.148 2.205-4.41-.297.148-2.204c1.161-17.28 4.349-29.506 9.704-36.743 5.228-7.065 16.243-14.747 33.106-23.202l.305-.153c-.385-3.904-.536-8.195-.457-12.875l.037-78 4.419.074-.037 78c-.228 13.514 1.533 23.42 5.179 29.676 2.256 3.872 7.38 7.2 17.252 11.887 1.044.495 4.791 2.25 5.56 2.613 2.14 1.014 3.76 1.81 5.232 2.587 3.368 1.776 5.76 3.35 7.414 5.005a19.659 19.659 0 0 1 1.784 2.052c14.56-1.427 25.063 1.826 31.383 9.834 6.341 8.036 10.76 16.507 13.248 25.408l.297 1.064-2.128.595-.297-1.064c-2.407-8.612-6.69-16.822-12.855-24.634-5.627-7.13-15.007-10.189-28.257-9.11 1.028 1.765 1.854 3.742 2.48 5.928.77 2.696 1.24 7.248 1.447 13.764l.07 2.209-4.417.14-.07-2.209c-.196-6.173-.636-10.44-1.28-12.688-.976-3.413-2.489-6.122-4.531-8.165-1.27-1.27-3.341-2.634-6.35-4.22-1.405-.741-2.973-1.513-5.062-2.501-.755-.358-4.506-2.114-5.564-2.616-7.605-3.611-12.62-6.482-15.922-9.611-2.212 16.081-.569 26.558 4.746 31.43 6.181 5.665 9.165 14.403 9 26.137l-.015 1.105-2.21-.031.016-1.105c.122-8.735-1.555-15.618-5.008-20.685-8.602 8.132-13.648 14.857-15.145 20.095-1.557 5.447-2.016 13.14-1.357 23.056l.073 1.102-2.205.147-.073-1.103c-.674-10.148-.202-18.077 1.437-23.81 1.643-5.745 6.955-12.803 15.928-21.26a21.477 21.477 0 0 0-1.934-2.02c-6.206-5.687-7.865-17.408-5.182-35.16a16.76 16.76 0 0 1-1.323-1.94c-2.211-3.794-3.78-8.61-4.725-14.454-6.489 3.29-12.034 6.446-16.633 9.455v108.377c8.331 8.009 13.288 14.733 14.865 20.248 1.639 5.732 2.112 13.661 1.437 23.81l-.073 1.102-2.205-.146.073-1.103c.66-9.916.2-17.61-1.356-23.056-1.353-4.729-5.597-10.67-12.74-17.766v13.538h-4.42v-56.643c-4.227-.436-8.1-.705-11.614-.81 2.568 17.448.88 28.987-5.263 34.617-5.663 5.19-8.44 13.324-8.284 24.477l.016 1.105-2.21.031-.015-1.105c-.165-11.734 2.82-20.472 9-26.137 5.49-5.032 7.062-16.042 4.516-33.032z"/>
      <path fill="#B7C38C" d="M253.957 364.048c-1.601 13.107-.104 21.7 4.35 25.782 5.388 4.94 7.99 12.559 7.847 22.79l-1.927-.027c.102-7.282-1.23-13.088-3.979-17.445-7.308 6.956-11.602 12.72-12.89 17.222-1.357 4.749-1.757 11.456-1.183 20.103l-1.922.128c-.588-8.85-.176-15.763 1.253-20.76 1.416-4.953 5.96-11.025 13.623-18.287a18.776 18.776 0 0 0-2.125-2.303c-4.915-4.506-6.559-13.351-5.066-26.535-5.682 1.524-14.201 1.524-25.638.05l.492-3.822c10.982 1.415 19.059 1.415 24.15.05.537-.145 1.058-.32 1.563-.528l.06-.382.59.092c4.689-2.259 8.172-7.61 13.054-18.065 2.594-5.556 9.634-8.587 20.977-9.397V83.028c-4.576 2.418-8.548 4.749-11.914 6.986v103.942h-3.854V92.732c-3.396 2.56-5.94 4.984-7.628 7.264-4.134 5.587-6.746 15.607-7.713 30.003l-3.845-.258c1.012-15.066 3.791-25.727 8.46-32.037 4.31-5.823 13.125-12.126 26.494-19.023V31.757h3.853v48.67l.247.492c-.083.04-.165.082-.247.123v22.178c14.245 7.21 23.58 13.774 28.054 19.82 4.67 6.311 7.448 16.971 8.46 32.037l-3.844.259c-.967-14.396-3.58-24.416-7.714-30.003-3.858-5.214-12.191-11.18-24.956-17.785v72.385c7.416 7.089 11.821 13.032 13.212 17.895 1.429 4.998 1.841 11.911 1.253 20.76l-1.922-.128c.574-8.646.174-15.353-1.184-20.102-1.194-4.179-4.98-9.443-11.359-15.74v97.914c3.937-.366 8.57 1.016 13.908 4.103 3.943 2.28 5.99 5.254 8.244 10.717l.304.74.297.735c1.699 4.186 2.709 6.05 4.502 7.74 2.201 2.075 6.124 2.92 11.653 2.839 1.99-.03 3.946-.16 6.763-.42 4.85-.445 4.695-.432 5.865-.432 4.028 0 7.788 4.192 11.49 12.399l-1.757.792c-3.414-7.568-6.729-11.264-9.733-11.264-1.077 0-.963-.01-5.689.424-2.862.263-4.86.397-6.91.428-5.992.087-10.335-.848-13.003-3.364-2.06-1.942-3.166-3.981-4.966-8.417l-.297-.734c-.114-.28-.208-.51-.3-.731-2.107-5.105-3.938-7.766-7.428-9.784-5.111-2.956-9.43-4.218-12.943-3.834v44.304c3.937-.366 8.57 1.016 13.908 4.103 3.943 2.28 5.99 5.254 8.244 10.717l.304.74.297.735c1.699 4.186 2.709 6.05 4.502 7.74 2.201 2.075 6.124 2.92 11.653 2.84 1.99-.03 3.946-.161 6.763-.42 4.85-.446 4.695-.433 5.865-.433 4.028 0 7.788 4.192 11.49 12.399l-1.757.792c-3.414-7.568-6.729-11.264-9.733-11.264-1.077 0-.963-.01-5.689.424-2.862.263-4.86.397-6.91.428-5.992.088-10.335-.848-13.003-3.364-2.06-1.942-3.166-3.981-4.966-8.417l-.297-.734c-.114-.28-.208-.51-.3-.731-2.107-5.105-3.938-7.766-7.428-9.784-5.111-2.956-9.43-4.218-12.943-3.834v3.818l.148-.004.098 3.853a94.38 94.38 0 0 0-.246.006v18.603c5.038 1.067 9.09 2.93 12.131 5.618 3.446 3.044 5.795 9.772 7.317 20.319l-3.814.55c-1.399-9.692-3.507-15.731-6.054-17.982-2.351-2.077-5.538-3.603-9.58-4.557v16.528l.239.13-.239.437v40.62c11.99-.915 20.69 1.963 26.001 8.693 5.53 7.007 9.382 14.392 11.551 22.154l-1.855.518c-2.1-7.509-5.833-14.667-11.208-21.478-4.885-6.19-13.015-8.861-24.489-7.955v54.353h-3.853v-90.907c-2.259 2.91-4.483 4.68-6.705 5.298-3.394.946-6.938.946-10.616.006l.478-1.867c3.357.859 6.559.859 9.62.005 2.226-.62 4.653-2.867 7.223-6.76v-42.131c-9.864.741-15.647 3.226-17.486 7.163-5.557 11.902-9.503 17.814-15.743 20.307z"/>
      <path fill="#B7C38C" d="M212.79 207.943c11.549-.881 19.929 1.891 25.044 8.374 5.326 6.748 9.037 13.862 11.127 21.337l-1.788.5c-2.021-7.232-5.618-14.127-10.795-20.688-4.705-5.961-12.536-8.534-23.588-7.662v66.7l.238.475-.238.119v95.25c7.143 6.829 11.387 12.553 12.726 17.237 1.376 4.814 1.773 11.473 1.207 19.996l-1.852-.123c.554-8.328.168-14.788-1.14-19.363-1.15-4.024-4.796-9.095-10.94-15.16v63.732l.105-.21c14.162 7.1 23.413 13.551 27.804 19.485 4.497 6.078 7.174 16.346 8.149 30.857l-3.703.25c-.932-13.867-3.448-23.518-7.43-28.9-3.805-5.141-12.129-11.042-24.926-17.586v28.425h-3.711V279.01c-4.408 2.33-8.234 4.574-11.476 6.729v100.117h-3.711v-46.731c-3.51-.344-6.718-.547-9.625-.612 1.968 14.152.503 23.545-4.549 28.176-4.756 4.359-7.088 11.19-6.957 20.556l-1.856.026c-.138-9.854 2.368-17.193 7.559-21.95 4.512-4.136 5.873-13.078 3.925-26.83-8.147-.01-13.69 1.174-16.593 3.507-4.415 3.55-6.688 7.253-6.892 11.121l-1.853-.098c.235-4.455 2.788-8.615 7.583-12.469 4.586-3.687 14.304-4.743 29.258-3.292v-48.903c-3.272 2.465-5.722 4.8-7.347 6.997-3.982 5.382-6.499 15.032-7.43 28.898l-3.703-.248c.975-14.512 3.652-24.78 8.149-30.858 4.15-5.608 12.641-11.68 25.518-18.323V174.596c-2.176 2.803-4.318 4.507-6.458 5.103-3.27.91-6.683.91-10.225.005l.46-1.798c3.233.827 6.317.827 9.267.005 2.143-.597 4.48-2.762 6.956-6.51v-40.582c-9.501.714-15.071 3.108-16.842 6.9-5.353 11.463-9.154 17.158-15.164 19.56-1.542 12.623-.1 20.9 4.19 24.833 5.19 4.757 7.696 12.096 7.558 21.95l-1.856-.026c.099-7.014-1.185-12.606-3.832-16.802-7.039 6.7-11.176 12.251-12.415 16.588-1.308 4.574-1.693 11.034-1.14 19.363l-1.852.123c-.566-8.523-.169-15.183 1.207-19.996 1.364-4.77 5.74-10.62 13.122-17.614a18.085 18.085 0 0 0-2.047-2.218c-4.734-4.34-6.318-12.86-4.88-25.558-5.472 1.467-13.678 1.467-24.694.047l.474-3.68c10.578 1.362 18.357 1.362 23.26.047.519-.139 1.02-.307 1.507-.508l.057-.368.569.088c4.516-2.175 7.87-7.328 12.573-17.4 2.499-5.351 9.28-8.27 20.205-9.05v-81.05h3.711v75.327c3.793-.352 8.254.98 13.396 3.952 3.799 2.196 5.77 5.06 7.941 10.322.09.217.182.442.292.714l.287.708c1.636 4.031 2.61 5.826 4.337 7.455 2.12 1.998 5.898 2.812 11.224 2.734 1.915-.028 3.8-.155 6.513-.404 4.673-.429 4.523-.417 5.65-.417 3.88 0 7.5 4.038 11.066 11.943l-1.692.763c-3.288-7.29-6.48-10.85-9.375-10.85-1.037 0-.927-.009-5.479.41-2.757.253-4.682.382-6.656.41-5.77.085-9.954-.816-12.524-3.239-1.985-1.87-3.05-3.835-4.783-8.108l-.287-.706-.288-.705c-2.03-4.917-3.793-7.48-7.155-9.423-4.923-2.847-9.083-4.063-12.467-3.693v3.678l.143-.004.095 3.71-.238.007v17.918c4.853 1.027 8.756 2.823 11.685 5.41 3.32 2.933 5.581 9.413 7.047 19.572l-3.673.53c-1.348-9.336-3.378-15.152-5.831-17.32-2.265-2-5.334-3.47-9.228-4.39v15.92l.23.125a67.38 67.38 0 0 1-.23.421v39.125z"/>
    </g>
    <g stroke="#C5816B" stroke-linecap="round" stroke-width="6">
      <path d="M417.343 187c3.076 2.433 4.436 5.24 4.081 8.421-.532 4.773-11.708 4.605-9.763 12.622 1.944 8.016 7.287 5.21 13.272 7.684 3.99 1.648 3.834 6.903-.466 15.765M848.486 175.343c3.952-4.644 8.249-6.554 12.89-5.73 5.416.96 4.214 7.808 9.566 11.036 2.109 1.272 6.623 1.861 13.544 1.768M133.434 392.916c-3.953-4.643-8.25-6.553-12.89-5.73-5.417.96-4.215 7.808-9.567 11.036-2.109 1.272-6.623 1.862-13.543 1.768M1422.434 189.51c-3.953 4.644-8.25 6.554-12.89 5.73-5.417-.96-4.215-7.808-9.567-11.036-2.109-1.272-6.623-1.861-13.543-1.768"/>
    </g>
  </g>
</svg>
