<svg xmlns="http://www.w3.org/2000/svg" xmlns:xlink="http://www.w3.org/1999/xlink" viewBox="0 0 360 157">
  <defs>
    <path id="a" d="M0 .305h360v158.448H0z"/>
  </defs>
  <g fill="none" fill-rule="evenodd" transform="translate(0 -2.147)">
    <mask id="b" fill="#fff">
      <use xlink:href="#a"/>
    </mask>
    <g mask="url(#b)">
      <path fill="#97CFDC" d="M80.712 48.332c39.016-25.195 72.451-37.792 100.305-37.792 32.427 0 66.794 17.072 103.102 51.218 15.772-14.447 28.832-24.288 39.18-29.522 13.36-6.758 35.01-12.937 44.646-12.937 68.53 0 114.54 15.862 138.031 47.586l-213.59 2.908a388.93 388.93 0 0 1 4.148 4.227H44.594c8.145-6.284 16.083-12.102 23.814-17.453l-188.245 11.168V31.094C-94.155 11.366-62.54 1.502-24.99 1.502c48.302 0 83.536 15.61 105.702 46.83z"/>
      <path fill="#3D676A" d="M-119.837 46.608C-78.745 24.065-38.97 14.005-.511 16.428c56.593 3.564 83.604 30.18 129.238 30.18 51.812 0 40.568-9.885 97.51-9.885 22.119 0 61.338 7.932 109.69 9.885 17.898.723 50.237-9.65 86.925-9.885 19.577-.126 38.931 3.169 58.063 9.885v112.145h-600.752V46.608z"/>
    </g>
  </g>
</svg>
