<svg xmlns="http://www.w3.org/2000/svg" xmlns:xlink="http://www.w3.org/1999/xlink" viewBox="0 0 1600 418">
  <defs>
    <path id="a" d="M0 .813h1600.434v422H0z"/>
  </defs>
  <g fill="none" fill-rule="evenodd" transform="translate(0 -3.813)">
    <mask id="b" fill="#fff">
      <use xlink:href="#a"/>
    </mask>
    <g mask="url(#b)">
      <path fill="#97CFDC" d="M534.563 128.724C638.475 61.62 727.523 28.07 801.707 28.07c86.363 0 177.895 45.47 274.595 136.412 42.006-38.478 76.788-64.687 104.346-78.627 35.586-18 93.246-34.457 118.91-34.457 182.517 0 305.057 42.246 367.622 126.738l-568.863 7.745c3.676 3.689 7.36 7.442 11.05 11.26h-671c21.692-16.738 42.834-32.232 63.425-46.484L.434 180.401V82.812C68.834 30.271 153.038 4 253.043 4c128.644 0 222.484 41.574 281.52 124.723z"/>
      <path fill="#3D676A" d="M.434 124.133C109.877 64.093 215.812 37.3 318.238 43.752c150.727 9.494 222.665 80.381 344.203 80.381 137.993 0 108.047-26.329 259.704-26.329 58.907 0 163.36 21.128 292.14 26.33 47.666 1.925 133.795-25.7 231.508-26.33 52.14-.335 103.687 8.44 154.64 26.33v298.678H.434V124.134z"/>
    </g>
  </g>
</svg>
